<svg width="39" height="15" viewBox="0 0 39 15" fill="none" xmlns="http://www.w3.org/2000/svg">
<path d="M10.768 14.6635L10.0595 11.9542H5.3852L4.65699 14.6635H0.386169L5.08014 0.148315H10.2661L15.0192 14.6635H10.768ZM9.25256 8.75061L8.6326 6.37756C8.48827 5.85022 8.31114 5.16797 8.10121 4.33081C7.89784 3.49365 7.76335 2.8938 7.69774 2.53125C7.6387 2.86743 7.52061 3.42114 7.34348 4.19238C7.17291 4.96362 6.78913 6.48303 6.19213 8.75061H9.25256Z" fill="#1F419B"/>
<path d="M21.9824 3.20361C21.0574 3.20361 20.3357 3.58594 19.8174 4.35059C19.2992 5.10864 19.04 6.15674 19.04 7.49487C19.04 10.2766 20.093 11.6675 22.1989 11.6675C22.8352 11.6675 23.4519 11.5785 24.0489 11.4005C24.6459 11.2225 25.2462 11.0083 25.8497 10.7578V14.0603C24.6492 14.5942 23.2912 14.8612 21.7757 14.8612C19.6042 14.8612 17.9379 14.2284 16.7767 12.9628C15.6221 11.6971 15.0447 9.86792 15.0447 7.4751C15.0447 5.97876 15.3236 4.6637 15.8812 3.52991C16.4454 2.39612 17.2523 1.526 18.302 0.919556C19.3582 0.306519 20.5981 0 22.0217 0C23.5766 0 25.0625 0.339478 26.4795 1.01843L25.2888 4.09351C24.7574 3.84302 24.226 3.63208 23.6946 3.46069C23.1632 3.28931 22.5925 3.20361 21.9824 3.20361Z" fill="#1F419B"/>
<path d="M27.6565 0.207642H32.6752C34.6302 0.207642 36.08 0.500977 37.0247 1.08765C37.976 1.66772 38.4516 2.5741 38.4516 3.80676C38.4516 4.61755 38.245 5.30969 37.8317 5.88318C37.4184 6.45667 36.8738 6.82581 36.1981 6.9906V7.08948C37.0903 7.32678 37.7365 7.72229 38.1367 8.276C38.5369 8.82971 38.737 9.54822 38.737 10.4315C38.737 11.7433 38.245 12.7782 37.2609 13.5363C36.2834 14.2877 34.9484 14.6635 33.2558 14.6635H27.6565V0.207642ZM31.5435 5.75464H32.7145C33.2722 5.75464 33.7019 5.63928 34.0037 5.40857C34.312 5.17786 34.4662 4.83508 34.4662 4.38025C34.4662 3.56946 33.8561 3.16406 32.6358 3.16406H31.5435V5.75464ZM31.5435 8.61218V11.6477H32.9114C34.125 11.6477 34.7319 11.1335 34.7319 10.1052C34.7319 9.62402 34.5679 9.25488 34.2398 8.9978C33.9184 8.74072 33.4493 8.61218 32.8326 8.61218H31.5435Z" fill="#1F419B"/>
<path d="M24.8857 7.53857C24.8857 8.98832 23.7161 10.1636 22.2732 10.1636C20.8304 10.1636 19.6607 8.98832 19.6607 7.53857C19.6607 6.08883 20.8304 4.91357 22.2732 4.91357C23.7161 4.91357 24.8857 6.08883 24.8857 7.53857Z" fill="#00AEEF"/>
</svg>
