<svg width="84" height="16" viewBox="0 0 84 16" fill="none" xmlns="http://www.w3.org/2000/svg">
<path fill-rule="evenodd" clip-rule="evenodd" d="M51.7717 8.30552C52.3459 8.41559 52.7753 8.59144 53.0602 8.83301C53.4541 9.1696 53.6517 9.58208 53.6517 10.0687C53.6517 10.4385 53.5217 10.7934 53.2612 11.1321C53.0005 11.4702 52.6441 11.7177 52.1907 11.8734C51.7364 12.0291 51.0447 12.1071 50.1121 12.1071H46.2071V11.9036H46.5185C46.8641 11.9036 47.1124 11.8044 47.2627 11.6074C47.3563 11.4787 47.403 11.2055 47.403 10.7883V5.97592C47.403 5.51497 47.3441 5.22318 47.2263 5.10304C47.0672 4.94101 46.832 4.86087 46.5185 4.86087H46.2071V4.65771H49.783C50.4495 4.65771 50.985 4.70125 51.3882 4.78982C51.9979 4.92161 52.464 5.15425 52.7849 5.49055C53.1066 5.82526 53.2663 6.21041 53.2663 6.6459C53.2663 7.01962 53.1408 7.35465 52.8888 7.64826C52.6369 7.94343 52.264 8.16252 51.7717 8.30552ZM48.5748 8.00868C48.7254 8.03471 48.8971 8.05401 49.0902 8.06598C49.2838 8.0795 49.4955 8.08537 49.7286 8.08537C50.3211 8.08537 50.7683 8.02756 51.0683 7.91268C51.3667 7.79726 51.5948 7.62037 51.7534 7.38247C51.9128 7.14482 51.9918 6.8846 51.9918 6.60267C51.9918 6.16614 51.7939 5.7948 51.3996 5.48821C51.0057 5.17973 50.4299 5.0259 49.6726 5.0259C49.2663 5.0259 48.8997 5.06566 48.5748 5.14658V8.00868ZM48.5748 11.5684C49.0457 11.6676 49.5129 11.7172 49.9718 11.7172C50.7087 11.7172 51.2698 11.5673 51.656 11.2684C52.0427 10.9706 52.2359 10.6019 52.2359 10.1621C52.2359 9.87198 52.1483 9.59508 51.9736 9.32771C51.7982 9.06005 51.5136 8.84895 51.1189 8.69534C50.7248 8.54099 50.236 8.46438 49.6554 8.46438C49.4023 8.46438 49.1872 8.46859 49.008 8.47602C48.8292 8.48296 48.6846 8.49596 48.5748 8.51475V11.5684Z" fill="#AF0B35" stroke="#9D1D26" stroke-width="0.0140607"/>
<path fill-rule="evenodd" clip-rule="evenodd" d="M60.0527 9.61266H56.8484L56.2885 10.7882C56.1498 11.0772 56.08 11.294 56.08 11.4361C56.08 11.5502 56.1406 11.6496 56.2596 11.7356C56.3805 11.822 56.6408 11.878 57.0381 11.9027V12.1072H54.4327V11.9027C54.778 11.8489 55.0021 11.777 55.1035 11.6892C55.3116 11.5138 55.5413 11.1563 55.7934 10.6182L58.7043 4.48755H58.9183L61.7982 10.6842C62.0301 11.1817 62.2409 11.5051 62.4297 11.6539C62.6186 11.8022 62.8823 11.8849 63.2198 11.9027V12.1072H59.9546V11.9027C60.2851 11.8883 60.5068 11.8401 60.6238 11.7552C60.7391 11.6716 60.7967 11.5682 60.7967 11.448C60.7967 11.2863 60.7155 11.0322 60.553 10.6842L60.0527 9.61266ZM59.8817 9.20627L58.4788 6.19567L57.0381 9.20627H59.8817Z" fill="#AF0B35" stroke="#9D1D26" stroke-width="0.0140607"/>
<path fill-rule="evenodd" clip-rule="evenodd" d="M63.1949 4.65747H65.4407L70.4998 10.2444V5.94861C70.4998 5.49134 70.4425 5.20543 70.3287 5.09114C70.1783 4.93754 69.9404 4.86084 69.6149 4.86084H69.3271V4.65747H72.2076V4.86084H71.9153C71.5654 4.86084 71.3177 4.9558 71.1703 5.14654C71.0812 5.26352 71.0368 5.53035 71.0368 5.94861V12.2275H70.8172L65.3617 6.22844V10.8162C65.3617 11.2732 65.4171 11.5591 65.5272 11.6734C65.6807 11.8262 65.9192 11.9034 66.2398 11.9034H66.5334V12.107H63.6533V11.9034H63.9408C64.2944 11.9034 64.5444 11.8079 64.6904 11.6185C64.7795 11.4999 64.8256 11.2334 64.8256 10.8162V5.63562C64.5853 5.38232 64.4026 5.21578 64.2779 5.13541C64.1546 5.05451 63.9726 4.97919 63.7326 4.91023C63.614 4.87783 63.4355 4.86084 63.1949 4.86084V4.65747Z" fill="#AF0B35" stroke="#9D1D26" stroke-width="0.0140607"/>
<path fill-rule="evenodd" clip-rule="evenodd" d="M76.1204 7.9758L79.1712 10.7056C79.6714 11.1565 80.0984 11.4641 80.4517 11.6262C80.8069 11.7885 81.1602 11.8811 81.5137 11.9037V12.107H77.5787V11.9037C77.8137 11.9037 77.9837 11.8678 78.0869 11.7959C78.1917 11.7254 78.2442 11.6445 78.2442 11.5577C78.2442 11.4697 78.2243 11.3914 78.1853 11.3214C78.1471 11.2517 78.0198 11.1217 77.8047 10.9315L74.9475 8.38766V10.7883C74.9475 11.1652 74.9744 11.4143 75.0272 11.5355C75.0685 11.6273 75.1536 11.7058 75.2836 11.7718C75.4587 11.8593 75.6443 11.9037 75.8393 11.9037H76.1204V12.107H72.5925V11.9037H72.8851C73.227 11.9037 73.4753 11.8134 73.6302 11.6344C73.7272 11.5177 73.7763 11.2355 73.7763 10.7883V5.97591C73.7763 5.59794 73.75 5.34728 73.6981 5.22315C73.6569 5.13541 73.5731 5.05902 73.4463 4.99294C73.2682 4.90466 73.0814 4.86084 72.8851 4.86084H72.5925V4.65747H76.1204V4.86084H75.8393C75.6478 4.86084 75.4632 4.90301 75.2836 4.98686C75.1571 5.04602 75.0704 5.13324 75.0213 5.25052C74.9733 5.36774 74.9475 5.60959 74.9475 5.97591V8.25556C75.0298 8.18639 75.3088 7.95378 75.7838 7.55802C76.9928 6.56181 77.7221 5.8974 77.9752 5.56405C78.0845 5.41736 78.1402 5.28946 78.1402 5.17971C78.1402 5.09503 78.0975 5.02084 78.0113 4.95769C77.9261 4.89272 77.7821 4.86084 77.5787 4.86084H77.3885V4.65747H80.4276V4.86084C80.2498 4.86429 80.0862 4.88685 79.9398 4.9264C79.7931 4.9667 79.6141 5.0455 79.4032 5.1603C79.1915 5.27518 78.9309 5.46187 78.6224 5.7181C78.5325 5.7905 78.12 6.16611 77.3832 6.84376L76.1204 7.9758Z" fill="#AF0B35" stroke="#9D1D26" stroke-width="0.0140607"/>
<path fill-rule="evenodd" clip-rule="evenodd" d="M23.2822 12.1087H19.9242V11.7377C20.2193 11.7196 20.4642 11.6851 20.6594 11.6326C20.8554 11.5801 20.9524 11.5162 20.9524 11.439C20.9524 11.4075 20.9479 11.3698 20.9419 11.3239C20.9331 11.279 20.9222 11.2379 20.9073 11.2035L20.2363 9.53966H17.4116C17.3058 9.78392 17.2195 9.99661 17.1535 10.1773C17.0872 10.3584 17.0275 10.5261 16.9745 10.6799C16.9246 10.8303 16.8904 10.9523 16.8716 11.0454C16.8533 11.1409 16.844 11.2178 16.844 11.2764C16.844 11.4162 16.9623 11.5249 17.2013 11.6002C17.4402 11.678 17.7092 11.7238 18.0089 11.7377V12.1087H14.9741V11.7377C15.0725 11.7299 15.1956 11.7111 15.343 11.6766C15.4911 11.6438 15.612 11.5987 15.7072 11.544C15.8586 11.4499 15.9761 11.3514 16.06 11.248C16.1433 11.1446 16.2239 11.0027 16.3045 10.8218C16.7095 9.89002 17.1556 8.84261 17.6447 7.68117C18.1336 6.5189 18.5688 5.48556 18.9513 4.57764H19.4064L22.0953 10.9836C22.151 11.1197 22.2158 11.2294 22.2882 11.313C22.3604 11.3968 22.4598 11.4793 22.5892 11.5589C22.6765 11.608 22.79 11.6498 22.9314 11.6827C23.0709 11.7153 23.1873 11.7339 23.2822 11.7377V12.1087ZM20.0321 9.07366L18.8091 6.19509L17.6108 9.07366H20.0321Z" fill="#AF0B35" stroke="#9D1D26" stroke-width="0.0140607"/>
<path fill-rule="evenodd" clip-rule="evenodd" d="M31.3561 9.14166C31.2654 9.15329 31.1431 9.16925 30.9903 9.19181C30.836 9.21458 30.7116 9.24743 30.6172 9.28856C30.5036 9.34081 30.4224 9.41561 30.3755 9.51057C30.3286 9.60659 30.3052 9.71982 30.3052 9.84928V10.4246C30.3052 10.8431 30.3071 11.1258 30.3132 11.2722C30.3185 11.4197 30.3251 11.5388 30.3325 11.6333C29.8289 11.843 29.3268 12.0027 28.8273 12.1152C28.3261 12.226 27.8362 12.2826 27.3548 12.2826C26.8395 12.2826 26.3424 12.1934 25.8661 12.0152C25.3883 11.8369 24.9722 11.585 24.6157 11.2564C24.2553 10.9251 23.9691 10.5217 23.7574 10.0477C23.5444 9.57261 23.4399 9.04241 23.4399 8.45596C23.4399 7.89081 23.5404 7.36692 23.7431 6.88342C23.9455 6.40095 24.2324 5.98135 24.6043 5.62489C24.9635 5.27635 25.3926 5.00478 25.8912 4.81118C26.389 4.61781 26.9227 4.52075 27.4908 4.52075C27.9462 4.52075 28.3425 4.57165 28.6791 4.6727C29.0165 4.77351 29.3138 4.89523 29.5721 5.03899L29.8047 4.68223H30.2596L30.3095 7.27918H29.8445C29.7647 6.9922 29.6655 6.71155 29.549 6.4341C29.4313 6.15616 29.2793 5.90819 29.0936 5.68776C28.9082 5.46844 28.6818 5.29282 28.4146 5.1626C28.1473 5.03102 27.8287 4.96577 27.4577 4.96577C27.0521 4.96577 26.6901 5.04161 26.3713 5.19366C26.0535 5.34454 25.7772 5.57107 25.5419 5.87105C25.31 6.16067 25.1329 6.52163 25.0085 6.95454C24.8828 7.38738 24.8202 7.87065 24.8202 8.40372C24.8202 8.87587 24.8812 9.31962 25.0037 9.73575C25.1284 10.1527 25.3072 10.5126 25.5419 10.8168C25.7772 11.1277 26.0703 11.3712 26.422 11.55C26.7749 11.7269 27.1752 11.8162 27.6219 11.8162C27.9556 11.8162 28.2589 11.7699 28.5342 11.6757C28.8087 11.5807 29.0037 11.4821 29.1165 11.3765C29.1469 11.1958 29.1637 11.0126 29.1647 10.8267C29.1669 10.642 29.1679 10.4856 29.1679 10.3561V9.94846C29.1679 9.80123 29.1467 9.67156 29.1029 9.55855C29.0597 9.44426 28.9693 9.36233 28.8321 9.30871C28.7072 9.25781 28.5382 9.21805 28.3237 9.19181C28.1104 9.16549 27.9415 9.14961 27.8211 9.14166V8.76076H31.3561V9.14166Z" fill="#AF0B35" stroke="#9D1D26" stroke-width="0.0140607"/>
<path fill-rule="evenodd" clip-rule="evenodd" d="M40.4295 12.1094H38.2577C37.7771 11.4155 37.3422 10.8151 36.9533 10.3098C36.5655 9.80402 36.1431 9.28097 35.6892 8.74415H34.8651V11.0994C34.8651 11.2209 34.8858 11.3294 34.9277 11.4211C34.9688 11.5142 35.0582 11.5851 35.1943 11.6333C35.2627 11.6572 35.3825 11.6806 35.5531 11.7007C35.7231 11.7219 35.8664 11.7346 35.9844 11.7384V12.1094H32.5746V11.7384C32.6652 11.7306 32.7963 11.7195 32.9703 11.7007C33.1425 11.6837 33.2615 11.662 33.3307 11.6333C33.4442 11.5887 33.526 11.5219 33.5777 11.4341C33.6291 11.3471 33.6532 11.2355 33.6532 11.0994V5.73001C33.6532 5.60798 33.6357 5.49981 33.5978 5.4056C33.5602 5.31147 33.4703 5.2401 33.3307 5.19026C33.2358 5.15952 33.1122 5.13087 32.9616 5.10569C32.8093 5.07862 32.6798 5.06109 32.5746 5.05448V4.68262H36.2969C36.6382 4.68262 36.9565 4.71547 37.2575 4.77937C37.5578 4.84441 37.8272 4.9484 38.071 5.09214C38.3054 5.23057 38.4932 5.41355 38.6335 5.63821C38.7736 5.86393 38.8425 6.1342 38.8425 6.452C38.8425 6.73869 38.7964 6.99176 38.7012 7.21106C38.6059 7.43046 38.4665 7.62113 38.2805 7.78157C38.1097 7.93201 37.9058 8.06171 37.6665 8.17071C37.4276 8.28155 37.1641 8.37514 36.8766 8.45078C37.275 8.93641 37.6052 9.34487 37.8689 9.67615C38.1318 10.0079 38.4553 10.4108 38.8375 10.8848C39.0043 11.0949 39.1552 11.2487 39.2892 11.3482C39.4242 11.4471 39.5579 11.5288 39.6908 11.5919C39.7892 11.637 39.9123 11.6726 40.0589 11.6954C40.208 11.7203 40.3308 11.7346 40.4295 11.7384V12.1094ZM37.44 6.57216C37.44 6.1215 37.2997 5.7658 37.0188 5.50273C36.7384 5.23852 36.3422 5.10779 35.8319 5.10779H34.8651V8.29432H35.6094C36.1322 8.29432 36.5671 8.14041 36.9162 7.83089C37.2653 7.52218 37.44 7.10258 37.44 6.57216Z" fill="#AF0B35" stroke="#9D1D26" stroke-width="0.0140607"/>
<path fill-rule="evenodd" clip-rule="evenodd" d="M44.847 12.1095H41.2157V11.7751C41.3184 11.7684 41.4653 11.7599 41.6587 11.747C41.8517 11.7347 41.9891 11.7156 42.0684 11.6913C42.1928 11.6504 42.2835 11.5934 42.3401 11.5239C42.3976 11.4531 42.4262 11.355 42.4262 11.2297V5.78534C42.4262 5.67443 42.4064 5.35776 42.3625 5.28378C42.3225 5.20897 42.2233 5.1474 42.0684 5.09733C41.9543 5.05936 41.8111 5.02438 41.6387 4.99177C41.4669 4.95862 41.3255 4.93868 41.2157 4.93259V4.59839H44.847V4.93259C44.7295 4.93606 44.5892 4.94665 44.4263 4.96815C44.263 4.98854 44.1211 5.01424 44.0001 5.0456C43.8564 5.08378 43.7609 5.14455 43.7105 5.22943C43.6614 5.31505 43.6375 5.40814 43.6375 5.5116V11.1775C43.6375 11.2809 43.664 11.3727 43.7189 11.4531C43.7744 11.5332 43.8675 11.5969 44.0001 11.6438C44.0791 11.6677 44.2102 11.6955 44.39 11.7262C44.5701 11.7552 44.7221 11.7724 44.847 11.7751V12.1095Z" fill="#AF0B35" stroke="#9D1D26" stroke-width="0.0140607"/>
<path fill-rule="evenodd" clip-rule="evenodd" d="M13.1475 2.79682C13.1475 2.5223 12.9224 2.29956 12.645 2.29956H3.00329C2.72459 2.29956 2.49998 2.5223 2.49998 2.79682V12.3229C2.49998 12.5993 2.72459 12.8205 3.00329 12.8205H12.645C12.9224 12.8205 13.1475 12.5993 13.1475 12.3229V2.79682Z" fill="white" stroke="#C4C6C8" stroke-width="0.0303407"/>
<path fill-rule="evenodd" clip-rule="evenodd" d="M6.21205 12.3181L11.9328 12.3186C12.3184 12.3186 12.6359 12.0055 12.6359 11.6244L12.6373 5.96899L6.21205 12.3181Z" fill="#00422B"/>
<path fill-rule="evenodd" clip-rule="evenodd" d="M12.6381 3.49824C12.6381 3.10899 12.3197 2.80322 11.9342 2.80322H9.82891L3.00963 9.55009V11.6216C3.00963 12.0045 3.31799 12.3182 3.71241 12.3182L5.78321 12.3186L12.6373 5.54511L12.6381 3.49824Z" fill="#AF0B35"/>
<path fill-rule="evenodd" clip-rule="evenodd" d="M3.71424 2.80127C3.32003 2.80127 3.01063 3.10621 3.01063 3.49589L3.00969 9.1181L9.4006 2.80283L3.71424 2.80127Z" fill="#00422B"/>
<path fill-rule="evenodd" clip-rule="evenodd" d="M6.45522 12.2221C6.45522 12.2221 6.81955 12.0764 7.1583 12.0186C7.28642 11.9901 8.02904 11.8175 7.99076 11.0627C7.98166 10.8662 7.68531 11.116 7.68531 11.116C7.68531 11.116 7.0981 11.1976 6.85329 11.3483C6.73117 11.4191 6.45812 11.7184 6.45522 12.2221Z" fill="#FFDC00" stroke="#9D1D26" stroke-width="0.0303407"/>
<path fill-rule="evenodd" clip-rule="evenodd" d="M8.97502 9.80322C8.97502 9.80322 9.11307 10.6582 8.42548 10.9303C8.13308 11.0501 7.69498 11.1845 7.6272 11.2528C7.6272 11.2528 7.47083 10.6582 7.979 10.3012C8.14218 10.1851 8.47672 10.0736 8.69172 9.99621C8.89917 9.92119 8.97502 9.80322 8.97502 9.80322Z" fill="#FFDC00" stroke="#9D1D26" stroke-width="0.0303407"/>
<path fill-rule="evenodd" clip-rule="evenodd" d="M9.33031 8.74609C9.33031 8.74609 9.75921 9.26426 9.27825 9.858C9.17491 9.99501 8.66042 10.3246 8.53098 10.4781C8.53098 10.4781 8.27438 9.92598 8.58384 9.4766C8.66859 9.34872 8.96151 9.11199 9.09015 9.01835C9.21916 8.92344 9.33031 8.74609 9.33031 8.74609Z" fill="#FFDC00" stroke="#9D1D26" stroke-width="0.0303407"/>
<path fill-rule="evenodd" clip-rule="evenodd" d="M8.80841 7.61646C8.80841 7.61646 8.40671 7.84814 8.67347 8.50913C8.69912 8.58578 9.0106 9.13607 9.02084 9.28859C9.02084 9.28859 9.57743 8.94752 9.35225 8.252C9.31771 8.12441 9.0582 7.71871 8.80841 7.61646Z" fill="#FFDC00" stroke="#9D1D26" stroke-width="0.0303407"/>
<path fill-rule="evenodd" clip-rule="evenodd" d="M7.78392 6.71484C7.78392 6.71484 7.64609 7.13176 7.97307 7.52382C8.11088 7.68365 8.72892 7.87116 8.99546 8.0663C8.99546 8.0663 9.3214 7.01358 7.78392 6.71484Z" fill="#FFDC00" stroke="#9D1D26" stroke-width="0.0303407"/>
<path fill-rule="evenodd" clip-rule="evenodd" d="M6.92669 5.96899C6.92669 5.96899 8.26354 6.06395 8.08381 7.27365C8.08381 7.27365 7.78147 7.08638 7.53511 6.98851C7.4279 6.93594 6.8945 6.76936 6.92669 6.2737C6.93559 6.13744 6.92669 5.96899 6.92669 5.96899Z" fill="#FFDC00" stroke="#9D1D26" stroke-width="0.0303407"/>
<path fill-rule="evenodd" clip-rule="evenodd" d="M6.95146 4.81946C6.95146 4.81946 6.45353 5.19279 6.70145 5.82046C6.74593 5.93946 7.00358 6.28029 7.14038 6.3399C7.14038 6.3399 7.29547 5.9055 7.39014 5.59157C7.42493 5.46369 7.51961 4.9636 7.2091 4.76823C7.04561 4.67542 6.95146 4.81946 6.95146 4.81946Z" fill="#FFDC00" stroke="#9D1D26" stroke-width="0.0303407"/>
<path fill-rule="evenodd" clip-rule="evenodd" d="M6.8476 5.19133C6.8476 5.19133 6.46177 4.07008 7.84435 3.76587C7.84435 3.76587 8.15323 4.19871 7.64735 4.64838C7.51057 4.77576 6.93515 5.06423 6.8476 5.19133Z" fill="#FFDC00" stroke="#9D1D26" stroke-width="0.0303407"/>
<path fill-rule="evenodd" clip-rule="evenodd" d="M9.00332 2.91365C9.00332 2.91365 7.56899 2.88073 7.6294 4.15035C7.6294 4.15035 8.52756 3.87751 8.76949 3.61436C8.88909 3.47758 9.01927 3.22046 9.00332 2.91365Z" fill="#FFDC00" stroke="#9D1D26" stroke-width="0.0303407"/>
</svg>
