<svg width="47" height="15" viewBox="0 0 47 15" fill="none" xmlns="http://www.w3.org/2000/svg">
<path fill-rule="evenodd" clip-rule="evenodd" d="M10.0439 12.9143H12.4009V2.29791H10.0439V12.9143Z" fill="#284399"/>
<path fill-rule="evenodd" clip-rule="evenodd" d="M26.5885 9.18253C26.3264 8.49386 23.9343 2.29592 23.9343 2.29592L21.3758 2.29791L21.4199 2.41081L25.4757 12.9143H27.6945L31.7772 2.29791H29.2112C29.2112 2.29791 27.0058 8.04007 26.5885 9.18253Z" fill="#284399"/>
<path fill-rule="evenodd" clip-rule="evenodd" d="M18.9078 10.6935C18.3624 11.0725 17.5213 11.269 16.352 11.2687H15.9443V3.94272H16.2764C17.8194 3.94428 18.3568 4.06337 18.952 4.48811C19.7325 5.06925 20.1854 6.20384 20.1854 7.60572C20.1854 9.00759 19.7171 10.1405 18.9078 10.6935ZM20.7749 3.34152C19.7822 2.58618 18.5766 2.2967 16.449 2.29791H13.5916V12.9143H16.2974C18.4021 12.9143 19.5058 12.7013 20.4656 12.1019C21.8352 11.2374 22.5472 9.66222 22.5461 7.59173C22.5472 5.68735 21.9485 4.23606 20.7749 3.34152Z" fill="#284399"/>
<path fill-rule="evenodd" clip-rule="evenodd" d="M5.6869 11.0889C5.25609 11.2756 4.54261 11.2529 3.29468 11.2529H2.35877V8.5118H3.31308C4.31241 8.5118 5.12831 8.55013 5.61817 8.70119C6.21601 8.88451 6.52438 9.26056 6.52438 9.88661C6.52438 10.6135 6.178 10.8782 5.6869 11.0889ZM2.36182 3.93192H3.09889C4.30879 3.93223 5.11916 3.89087 5.56995 4.12057C5.98585 4.32745 6.24113 4.61759 6.24113 5.18701C6.24035 5.71063 6.00808 6.00392 5.58802 6.22879C5.21929 6.42562 4.28596 6.5189 3.19397 6.51785H2.36182V3.93192ZM6.61719 7.45526C7.94756 7.08863 8.61282 6.29784 8.60418 5.10666C8.60569 4.07068 8.04083 3.17767 7.07783 2.75215C6.26547 2.38127 5.41051 2.26031 3.59331 2.26078H0V12.8767H4.01822C5.71705 12.8767 6.57123 12.7395 7.34683 12.3516C8.3413 11.8392 8.88894 10.9599 8.88848 9.90912C8.89658 8.62132 8.11841 7.79603 6.61719 7.45526Z" fill="#284399"/>
<path fill-rule="evenodd" clip-rule="evenodd" d="M39.2942 0.47919L32.2531 7.49954L39.2911 14.5188L39.2938 14.5177L46.3371 7.50227L39.295 0.481448L39.2942 0.47919Z" fill="white"/>
<path fill-rule="evenodd" clip-rule="evenodd" d="M38.1181 2.78769L38.1169 8.6523L39.346 8.65261L40.4731 8.65308L40.4739 2.788L39.346 2.78769H38.1181Z" fill="#EB1E29"/>
<path fill-rule="evenodd" clip-rule="evenodd" d="M36.8266 3.95421H38.0043V7.50586L36.8266 7.50539V3.95421ZM41.2247 7.50465L40.5891 7.50586L40.5895 3.95545H41.2259C41.8724 3.95545 42.3643 4.75184 42.3678 5.73003C42.3752 6.68571 41.8732 7.50465 41.2247 7.50465Z" fill="#284399"/>
<path fill-rule="evenodd" clip-rule="evenodd" d="M39.2938 14.5178L39.2911 14.5188L32.2526 7.49957L39.2942 0.479223L39.295 0.481482L46.3371 7.5023L39.2938 14.5178ZM31.7742 7.49957L31.8362 7.5627L39.0126 14.7186L39.2942 15L39.5766 14.7186L46.8161 7.5023L39.2965 0L31.7742 7.49957Z" fill="#EB1E29"/>
<path fill-rule="evenodd" clip-rule="evenodd" d="M39.2938 10.885L35.9001 7.49965H32.569L38.4336 13.3495L38.4962 13.4122L39.2934 14.207L46.022 7.49965H42.6898L39.2938 10.885Z" fill="#EB1E29"/>
</svg>
