<svg width="20" height="20" viewBox="0 0 20 20" fill="currentColor"
  xmlns="http://www.w3.org/2000/svg">
  <path fill-rule="evenodd" clip-rule="evenodd"
    d="M6 3C5.44772 3 5 3.44771 5 4V15.3333C5 15.8856 5.44772 16.3333 6 16.3333H12.8889C13.4412 16.3333 13.8889 15.8856 13.8889 15.3333V4C13.8889 3.44772 13.4412 3 12.8889 3H6ZM9.55556 8.21372C10.3822 8.21372 11.0524 7.54406 11.0524 6.71799C11.0524 5.89192 10.3822 5.22226 9.55556 5.22226C8.72888 5.22226 8.05872 5.89192 8.05872 6.71799C8.05872 7.54406 8.72888 8.21372 9.55556 8.21372ZM11.8889 13L9.55556 9.4103L7.22222 13H11.8889Z"
    fill="inherit" />
  <line x1="15.5" y1="5" x2="15.5" y2="14" stroke="inherit" />
</svg>