<svg width="15" height="15" viewBox="0 0 15 15" fill="none" xmlns="http://www.w3.org/2000/svg">
<path d="M1.5 6C1.5 4.34315 2.84315 3 4.5 3H10.5C12.1569 3 13.5 4.34315 13.5 6H1.5Z" fill="#EF230C"/>
<path d="M1.5 6.75H13.5V9C13.5 10.6569 12.1569 12 10.5 12H4.5C2.84315 12 1.5 10.6569 1.5 9V6.75Z" fill="#EF230C"/>
<path d="M13.2053 10.1894C13.3518 10.043 13.5892 10.043 13.7357 10.1894C13.8821 10.3359 13.8821 10.5733 13.7357 10.7198L12.1447 12.3107C11.9982 12.4572 11.7608 12.4572 11.6143 12.3107C11.4679 12.1643 11.4679 11.9269 11.6143 11.7804L13.2053 10.1894Z" fill="white"/>
<path d="M10.7652 11.5151C10.6187 11.3687 10.6187 11.1312 10.7652 10.9848C10.9116 10.8383 11.1491 10.8383 11.2955 10.9848L12.0933 11.7826C12.2398 11.9291 12.2398 12.1665 12.0933 12.3129C11.9469 12.4594 11.7094 12.4594 11.563 12.3129L10.7652 11.5151Z" fill="white"/>
</svg>
