<svg width="15" height="15" viewBox="0 0 15 15" fill="none" xmlns="http://www.w3.org/2000/svg">
<path d="M3.08523 7.3626C3.08166 7.35826 3.07857 7.35369 3.07524 7.34924C3.07125 7.3439 3.0671 7.33868 3.0634 7.33312C3.05983 7.3278 3.05673 7.32226 3.05346 7.31678C3.05046 7.31175 3.04731 7.30685 3.04454 7.30166C3.04155 7.29607 3.03902 7.29032 3.03633 7.28463C3.03378 7.27923 3.03109 7.27392 3.0288 7.2684C3.02652 7.26287 3.02467 7.25722 3.02265 7.2516C3.02052 7.24568 3.01826 7.23982 3.01641 7.23376C3.01471 7.22813 3.01346 7.22242 3.01203 7.21674C3.01047 7.21057 3.00875 7.20448 3.0075 7.19818C3.0062 7.19159 3.00543 7.18495 3.00448 7.17832C3.0037 7.17285 3.00265 7.16746 3.0021 7.16192C2.99968 7.13731 2.99968 7.11251 3.0021 7.0879C3.00265 7.08236 3.00368 7.07699 3.00448 7.07152C3.00543 7.06488 3.0062 7.05823 3.00752 7.05166C3.00877 7.04536 3.01049 7.03928 3.01205 7.03311C3.01348 7.02742 3.01472 7.02171 3.01643 7.01608C3.01826 7.01003 3.02052 7.00418 3.02265 6.99827C3.02467 6.99265 3.02652 6.98699 3.0288 6.98145C3.03109 6.97593 3.03378 6.97063 3.03633 6.96525C3.03902 6.95953 3.04155 6.95379 3.04454 6.9482C3.0473 6.94303 3.05046 6.93812 3.05345 6.9331C3.05672 6.92761 3.05981 6.92208 3.06338 6.91673C3.06709 6.9112 3.07122 6.90598 3.07521 6.90065C3.07855 6.89619 3.08166 6.8916 3.08523 6.88726C3.09301 6.87778 3.1012 6.86866 3.10987 6.85999C3.10994 6.85992 3.10999 6.85985 3.11006 6.85978L4.23502 5.73483C4.38146 5.58839 4.6189 5.58839 4.76533 5.73483C4.91177 5.88127 4.91177 6.1187 4.76533 6.26514L4.28051 6.74996H6.37511C6.58221 6.74996 6.75009 6.91784 6.75009 7.12494C6.75009 7.33203 6.58221 7.49992 6.37511 7.49992H4.28053L4.76535 7.98474C4.91179 8.13117 4.91179 8.36861 4.76535 8.51505C4.61891 8.66148 4.38148 8.66148 4.23504 8.51505L3.11008 7.39009C3.11001 7.39002 3.10996 7.38995 3.10989 7.38988C3.1012 7.3812 3.09301 7.37209 3.08523 7.3626Z" fill="#EF230C"/>
<path d="M5.62512 8.24977C5.83222 8.24977 6.0001 8.41765 6.0001 8.62475V10.4997H7.50003V4.50007V4.49993C7.50003 4.33434 7.60866 4.18834 7.76726 4.14076L9.06992 3.74996H6.00008V5.62489C6.00008 5.83198 5.8322 5.99987 5.6251 5.99987C5.41801 5.99987 5.25012 5.83198 5.25012 5.62489V3.37498C5.25012 3.16788 5.41801 3 5.6251 3H11.6249C11.6249 3 11.6249 3 11.625 3C11.6361 2.99998 11.6471 3.00051 11.658 3.00146C11.83 3.01443 11.9421 3.12758 11.9828 3.26266C11.9855 3.27106 11.9877 3.27964 11.9898 3.28832C11.99 3.28925 11.9902 3.2902 11.9904 3.29115C11.9924 3.30008 11.9941 3.30915 11.9955 3.31834C11.9957 3.31965 11.9959 3.32093 11.9961 3.32223C11.9972 3.33061 11.9982 3.3391 11.9988 3.3477C11.9999 3.36155 12.0002 3.37544 11.9999 3.38932V10.8748C11.9999 11.0536 11.8737 11.2075 11.6984 11.2425L7.94857 11.9925C7.71653 12.0389 7.50005 11.8614 7.50005 11.6248V11.2497H5.62512C5.41802 11.2497 5.25014 11.0818 5.25014 10.8747V8.62477C5.25014 8.41765 5.41802 8.24977 5.62512 8.24977ZM8.25001 11.1674L11.2499 10.5674V3.87912L8.25001 4.77908V10.8747V11.1674Z" fill="#EF230C"/>
</svg>
