<svg width="20" height="20" viewBox="0 0 20 20" fill="none" xmlns="http://www.w3.org/2000/svg">
<path d="M4.11364 9.8168C4.10888 9.81101 4.10475 9.80492 4.10032 9.79899C4.095 9.79187 4.08947 9.7849 4.08453 9.7775C4.07977 9.7704 4.07565 9.76302 4.07129 9.7557C4.06728 9.749 4.06308 9.74246 4.05938 9.73555C4.0554 9.72809 4.05202 9.72043 4.04844 9.71284C4.04504 9.70564 4.04145 9.69856 4.0384 9.69121C4.03536 9.68382 4.0329 9.6763 4.0302 9.6688C4.02737 9.6609 4.02434 9.6531 4.02188 9.64501C4.01961 9.63751 4.01794 9.6299 4.01605 9.62233C4.01396 9.6141 4.01166 9.60597 4.01 9.59758C4.00826 9.58879 4.00723 9.57993 4.00597 9.57109C4.00494 9.5638 4.00353 9.55661 4.0028 9.54923C3.99957 9.51642 3.99957 9.48335 4.0028 9.45054C4.00353 9.44315 4.00491 9.43598 4.00597 9.42869C4.00723 9.41983 4.00827 9.41097 4.01002 9.40221C4.01169 9.39382 4.01398 9.38571 4.01607 9.37748C4.01797 9.36989 4.01963 9.36227 4.0219 9.35477C4.02434 9.34671 4.02737 9.33891 4.0302 9.33103C4.0329 9.32353 4.03536 9.31599 4.0384 9.3086C4.04145 9.30124 4.04504 9.29417 4.04844 9.287C4.05202 9.27938 4.0554 9.27171 4.05938 9.26426C4.06306 9.25737 4.06728 9.25083 4.07126 9.24413C4.07562 9.23682 4.07975 9.22944 4.0845 9.22231C4.08945 9.21493 4.09496 9.20797 4.10028 9.20087C4.10473 9.19491 4.10888 9.1888 4.11364 9.18301C4.12402 9.17038 4.13494 9.15821 4.14649 9.14666C4.14659 9.14656 4.14666 9.14647 4.14675 9.14638L5.6467 7.64644C5.84195 7.45119 6.15853 7.45119 6.35378 7.64644C6.54903 7.84169 6.54903 8.15827 6.35378 8.35352L5.70735 8.99994H8.50015C8.77628 8.99994 9.00012 9.22379 9.00012 9.49992C9.00012 9.77605 8.77628 9.99989 8.50015 9.99989H5.70737L6.3538 10.6463C6.54905 10.8416 6.54905 11.1581 6.3538 11.3534C6.15855 11.5486 5.84197 11.5486 5.64672 11.3534L4.14678 9.85346C4.14668 9.85336 4.14661 9.85327 4.14652 9.85318C4.13494 9.8416 4.12402 9.82946 4.11364 9.8168Z" fill="#EF230C"/>
<path d="M7.50016 10.9997C7.77629 10.9997 8.00013 11.2235 8.00013 11.4997V13.9996H10V6.0001V5.99991C10 5.77912 10.1449 5.58445 10.3563 5.52101L12.0932 4.99994H8.00011V7.49985C8.00011 7.77598 7.77627 7.99982 7.50014 7.99982C7.22401 7.99982 7.00017 7.77598 7.00017 7.49985V4.49997C7.00017 4.22384 7.22401 4 7.50014 4H15.4998C15.4999 4 15.4999 4 15.5 4C15.5148 3.99998 15.5294 4.00068 15.5439 4.00195C15.7733 4.01924 15.9228 4.1701 15.9771 4.35021C15.9806 4.36142 15.9837 4.37285 15.9864 4.38443C15.9866 4.38567 15.9869 4.38694 15.9872 4.3882C15.9899 4.40011 15.9921 4.4122 15.994 4.42446C15.9942 4.42619 15.9945 4.4279 15.9948 4.42964C15.9963 4.44082 15.9976 4.45214 15.9984 4.4636C15.9998 4.48207 16.0003 4.50058 15.9998 4.5191V14.4998C15.9998 14.7381 15.8316 14.9433 15.5979 14.99L10.5981 15.99C10.2887 16.0519 10.0001 15.8152 10.0001 15.4997V14.9995H7.50016C7.22403 14.9995 7.00019 14.7757 7.00019 14.4996V11.4997C7.00019 11.2235 7.22403 10.9997 7.50016 10.9997ZM11 14.8898L14.9999 14.0899V5.17216L11 6.37211V14.4995V14.8898Z" fill="#EF230C"/>
</svg>
