<svg width="15" height="15" viewBox="0 0 15 15" fill="none" xmlns="http://www.w3.org/2000/svg">
<path d="M2 7C2 6.44772 2.44772 6 3 6H12C12.5523 6 13 6.44772 13 7V12C13 12.5523 12.5523 13 12 13H3C2.44771 13 2 12.5523 2 12V7Z" fill="#EF230C"/>
<path fill-rule="evenodd" clip-rule="evenodd" d="M10 6.5V4.5C10 3.11929 8.88071 2 7.5 2C6.11929 2 5 3.11929 5 4.5V6.5C5 7.88071 6.11929 9 7.5 9C8.88071 9 10 7.88071 10 6.5ZM7.5 1C5.567 1 4 2.567 4 4.5V6.5C4 8.433 5.567 10 7.5 10C9.433 10 11 8.433 11 6.5V4.5C11 2.567 9.433 1 7.5 1Z" fill="#EF230C"/>
</svg>
