<svg width="15" height="15" viewBox="0 0 15 15" fill="currentColor" xmlns="http://www.w3.org/2000/svg">
  <path
    d="M11.625 12.0001H3.375C3.375 2.6251 5.25 3.37511 7.5 3.37511C9.75 3.37511 11.625 2.6251 11.625 12.0001Z"
    fill="inherit" />
  <path d="M7.5 2.25C6.9 2.25 6.75 2.875 6.75 3.375H8.25C8.25 2.875 8.1 2.25 7.5 2.25Z"
    fill="inherit" />
  <path d="M6.75 13.125H8.25" stroke="inherit" stroke-linecap="round" />
  <path
    d="M10.0152 11.2954C9.86872 11.149 9.86872 10.9116 10.0152 10.7651C10.1616 10.6187 10.3991 10.6187 10.5455 10.7651L12.1365 12.3561C12.2829 12.5025 12.2829 12.74 12.1365 12.8864C11.99 13.0329 11.7526 13.0329 11.6062 12.8864L10.0152 11.2954Z"
    fill="white" />
  <path
    d="M11.6062 10.7652C11.7526 10.6187 11.99 10.6187 12.1365 10.7652C12.2829 10.9116 12.2829 11.149 12.1365 11.2955L10.5455 12.8865C10.3991 13.0329 10.1616 13.0329 10.0152 12.8865C9.86873 12.74 9.86873 12.5026 10.0152 12.3562L11.6062 10.7652Z"
    fill="white" />
</svg>