<svg width="20" height="20" viewBox="0 0 20 20" fill="none" xmlns="http://www.w3.org/2000/svg">
<path fill-rule="evenodd" clip-rule="evenodd" d="M5 10C5 6.68667 7.68667 4 11 4C14.3133 4 17 6.68667 17 10C17 13.3133 14.3133 16 11 16C9.34 16 7.84667 15.3267 6.76 14.24L7.70667 13.2933C8.54667 14.14 9.71333 14.6667 11 14.6667C13.58 14.6667 15.6667 12.58 15.6667 10C15.6667 7.42 13.58 5.33333 11 5.33333C8.42 5.33333 6.33333 7.42 6.33333 10H8.33333L5.64 12.6867L5.59333 12.5933L3 10H5Z" fill="#EF230C"/>
</svg>
