<svg width="100" height="15" viewBox="0 0 100 15" fill="none" xmlns="http://www.w3.org/2000/svg">
<path fill-rule="evenodd" clip-rule="evenodd" d="M41.5003 7.8024C40.7194 7.30062 39.8185 7.06668 38.7567 7.06668C38.5242 7.06668 38.278 7.06668 38.0484 7.09996C37.0583 7.20172 36.171 7.51956 35.3935 8.05456C34.4196 8.72347 33.8005 9.72864 33.534 11.084L33.4993 11.4698L33.4453 11.9215C33.4453 12.9238 33.8182 13.6935 34.5605 14.2151C35.3028 14.7334 36.2448 14.999 37.3741 14.999C37.6227 14.999 37.854 14.9813 38.0484 14.9655C38.191 14.9504 38.3133 14.9346 38.4183 14.9011C38.721 14.8505 38.9685 14.784 39.1454 14.7334C39.3228 14.6831 39.499 14.6173 39.6756 14.5468C40.0833 14.3649 40.4211 14.1989 40.7041 14.0118C41.0229 13.7931 41.3043 13.5263 41.5703 13.229C42.1012 12.5887 42.4564 11.8182 42.5962 10.8993L42.6662 10.1291C42.6662 9.0588 42.2778 8.28931 41.5003 7.8024ZM39.0398 12.1713C38.8101 12.6062 38.4712 12.8577 38.0484 12.9415C37.9415 12.975 37.8188 12.975 37.6944 12.975C36.9878 12.975 36.6314 12.5564 36.6314 11.7193C36.74 10.9698 36.9154 10.332 37.1446 9.81373C37.3564 9.42566 37.658 9.1929 38.0484 9.09157C38.191 9.05879 38.3298 9.04175 38.4911 9.04175C39.1454 9.04175 39.4812 9.49371 39.4812 10.3995C39.4812 11.0487 39.3228 11.6525 39.0398 12.1713Z" fill="#274695"/>
<path fill-rule="evenodd" clip-rule="evenodd" d="M21.553 7.53511C21.0561 7.21801 20.1886 7.06668 18.9515 7.06668H18.7211C18.26 7.06668 17.853 7.08465 17.4654 7.11868C15.3935 7.33414 14.2261 8.15495 13.9612 9.57755H17.0033C17.0908 9.32726 17.2506 9.14214 17.4654 9.02477C17.6758 8.90646 17.9234 8.84252 18.2437 8.84252C18.8613 8.84252 19.1633 9.02477 19.1633 9.37633C19.1633 9.61108 19.0037 9.79426 18.6684 9.92911C18.5085 9.99666 18.101 10.0785 17.4654 10.1624C17.3561 10.1806 17.2506 10.1959 17.1291 10.2129L15.9604 10.3806L15.1632 10.5336C14.6149 10.6831 14.1532 10.8986 13.7819 11.1843C13.3409 11.5347 13.0379 12.0389 12.8982 12.6893C12.8982 12.7216 12.8796 12.8078 12.844 12.9092V13.2282C12.844 13.7615 13.0379 14.1649 13.4279 14.4309C13.9783 14.8003 14.5594 15 15.2337 15H15.3935C16.1347 15 16.8276 14.8505 17.4654 14.5646C17.8168 14.3957 18.1542 14.1989 18.4898 13.9469V14.7667H21.7291L21.7639 14.6319C21.5712 14.4475 21.4618 14.2604 21.4291 14.0628L21.5173 13.5611L22.2046 9.91331C22.2593 9.54471 22.2972 9.24465 22.2972 8.99075C22.2972 8.33956 22.0481 7.85483 21.553 7.53511ZM18.2437 12.7423C18.101 12.9092 17.9234 13.0431 17.7115 13.1577C17.6248 13.1922 17.5529 13.2282 17.4654 13.244C17.3216 13.2914 17.1637 13.312 17.0033 13.312C16.4364 13.312 16.1553 13.1262 16.1553 12.7423V12.675C16.2253 12.3722 16.346 12.172 16.5623 12.0736L17.0393 11.8865C17.1466 11.8364 17.2876 11.8032 17.4654 11.768C17.5337 11.768 17.6051 11.7517 17.6758 11.7517C18.1542 11.6525 18.5255 11.55 18.7704 11.4496C18.6851 11.989 18.5085 12.4211 18.2437 12.7423Z" fill="#274695"/>
<path fill-rule="evenodd" clip-rule="evenodd" d="M31.5861 7.85483C30.8795 7.31741 29.9234 7.06668 28.7024 7.06668C27.1615 7.06668 25.9418 7.45251 25.0391 8.23998C24.1552 9.02477 23.6066 9.99592 23.3935 11.1338L23.3582 11.4841L23.2878 11.8858C23.2878 12.7726 23.6219 13.4943 24.2774 14.0961C24.9509 14.6824 25.9221 14.9655 27.1989 14.9655C28.4218 14.9655 29.4824 14.6975 30.3675 14.1787C31.2529 13.6612 31.8558 12.8905 32.1357 11.8693H29.003C28.7024 12.6062 28.2413 12.976 27.6049 12.976C26.8462 12.976 26.453 12.571 26.453 11.7522C26.5626 10.9309 26.7368 10.298 26.9656 9.81373C27.232 9.29323 27.6922 9.04132 28.3132 9.04132C28.6332 9.04132 28.8623 9.14214 29.0212 9.32725C29.1811 9.4937 29.2496 9.70998 29.2496 9.94516L29.2358 10.1298H32.4175L32.4369 9.70998C32.4369 8.94217 32.1539 8.32258 31.5861 7.85483Z" fill="#274695"/>
<path fill-rule="evenodd" clip-rule="evenodd" d="M11.6438 1.01761C10.7256 0.333837 9.50801 0 7.95205 0C7.61597 0 7.31349 0.0177272 7.0324 0.0364498C6.7316 0.0750767 6.46749 0.0940498 6.20263 0.130002C5.68971 0.221624 5.19283 0.36985 4.70105 0.555707C3.72843 0.963187 2.96841 1.48412 2.40422 2.11484C1.85583 2.74295 1.50157 3.48426 1.34243 4.31595L1.30841 4.77904L1.23673 5.35633C1.23673 6.44734 1.62622 7.26323 2.40422 7.80022C3.18125 8.33714 4.27512 8.78473 5.67148 9.13462C6.5384 9.3912 7.17453 9.61643 7.59899 9.79911C7.89787 10.0052 8.05698 10.2275 8.05698 10.5052V10.7443C7.89787 11.393 7.26074 11.7271 6.16618 11.7271C5.68971 11.7271 5.26402 11.5972 4.8964 11.3561C4.50667 11.0966 4.31156 10.7098 4.31156 10.2105H0.0534541C0.018223 10.3021 0 10.4698 0 10.7443C0 11.9319 0.441725 12.8941 1.30841 13.6558C2.28079 14.5415 3.60524 14.9886 5.28467 14.9886C7.0324 14.9886 8.58544 14.601 9.91331 13.8223C11.2526 13.063 12.0848 11.8226 12.4014 10.1157L12.4548 9.28185C12.4548 8.3724 12.1171 7.63426 11.4331 7.0589C10.7438 6.50394 9.76994 6.05784 8.53369 5.74316L7.10331 5.35633C6.5542 5.18752 6.16618 5.01982 5.93827 4.83714C5.72446 4.65128 5.61876 4.44763 5.61876 4.20586L5.63625 4.03922C5.74025 3.53844 6.2376 3.27844 7.10331 3.27844C8.19868 3.27844 8.76284 3.64922 8.76284 4.42648V4.50331H12.9857V4.26103C12.9857 2.7998 12.5435 1.70494 11.6438 1.01761Z" fill="#274695"/>
<path fill-rule="evenodd" clip-rule="evenodd" d="M87.3423 7.58562C86.8814 7.23505 86.26 7.06668 85.4657 7.06668C84.3859 7.06668 83.3938 7.51882 82.5111 8.45501L82.7394 7.2506H79.8545L78.4581 14.7667H81.6254L82.3307 10.9309C82.4744 10.3149 82.6498 9.91331 82.8837 9.70998C83.0921 9.51193 83.413 9.40986 83.836 9.40986C84.4213 9.40986 84.7217 9.69586 84.7217 10.298V10.5494L84.7012 10.7827L83.9604 14.7667H87.0953L87.9425 10.2469C88.0134 9.92862 88.0308 9.62781 88.0308 9.3448C88.0308 8.52181 87.8013 7.93843 87.3423 7.58562Z" fill="#274695"/>
<path fill-rule="evenodd" clip-rule="evenodd" d="M99.051 6.96603H95.3774L92.9279 9.24465L94.1801 2.47642H91.0302L88.7679 14.7667H91.9153L92.3731 12.3802L93.0555 11.8032L94.2317 14.7662H98.0017L95.592 9.85771L99.051 6.96603Z" fill="#274695"/>
<path fill-rule="evenodd" clip-rule="evenodd" d="M57.1461 7.5516C56.7387 7.21851 56.1042 7.06668 55.2893 7.06668C54.1381 7.06668 53.1305 7.51882 52.2616 8.43921C51.9781 7.51882 51.2176 7.06668 49.959 7.06668H49.888C49.4475 7.06668 48.9506 7.18399 48.4202 7.45151C47.9059 7.71954 47.4806 8.02103 47.181 8.37359L47.373 7.25011H44.4908L43.11 14.7674H46.2451L46.9509 10.9314C47.0911 10.3648 47.2692 9.97919 47.4806 9.76341C47.7278 9.5253 48.0305 9.40986 48.3655 9.40986C48.9147 9.40986 49.1819 9.67888 49.1819 10.2124L49.1287 10.8653L48.4015 14.7674H51.5529L52.2616 10.9314C52.3851 10.2664 52.5782 9.84483 52.8265 9.66016C53.0758 9.49296 53.3424 9.40986 53.6412 9.40986C53.9603 9.40986 54.1721 9.46092 54.3155 9.59453C54.4387 9.71041 54.507 9.91331 54.507 10.1966C54.507 10.3813 54.4714 10.6313 54.4212 10.9314L53.7117 14.7674H56.8631L57.694 10.2802C57.7657 9.87836 57.7827 9.51193 57.7827 9.21063C57.7827 8.43921 57.5718 7.88817 57.1461 7.5516Z" fill="#274695"/>
<path fill-rule="evenodd" clip-rule="evenodd" d="M77.0579 7.53511C76.5641 7.21801 75.6945 7.06668 74.4747 7.06668H74.2247C73.783 7.06668 73.3595 7.08465 72.9881 7.11868C70.8994 7.33414 69.7306 8.15495 69.4818 9.57755H72.5253C72.6174 9.32726 72.7754 9.14214 72.9881 9.02477C73.1828 8.90646 73.4484 8.84252 73.7687 8.84252C74.3683 8.84252 74.685 9.02477 74.685 9.37633C74.685 9.61108 74.5102 9.79426 74.1886 9.92911C74.0169 9.99666 73.6244 10.0785 72.9881 10.1624C72.8805 10.1806 72.7592 10.1959 72.6329 10.2129L71.4835 10.3806L70.6686 10.5336C70.138 10.6831 69.6771 10.8986 69.3064 11.1843C68.8623 11.5347 68.5631 12.0389 68.4188 12.6893C68.4188 12.7216 68.3852 12.8078 68.3647 12.9092V13.2282C68.3647 13.7615 68.5631 14.1649 68.9525 14.4309C69.4818 14.8003 70.0833 15 70.7576 15H70.8994C71.6439 15 72.3325 14.8505 72.9881 14.5646C73.3389 14.3957 73.681 14.1989 73.9951 13.9469V14.7667H77.2501L77.2887 14.6319C77.0928 14.4475 76.9883 14.2604 76.9541 14.0628L77.0405 13.5611L77.7328 9.91331C77.7826 9.54471 77.8193 9.24465 77.8193 8.99075C77.8193 8.33956 77.5711 7.85483 77.0579 7.53511ZM73.7687 12.7423C73.6244 12.9092 73.4484 13.0431 73.2176 13.1577C73.1492 13.1922 73.0596 13.2282 72.9881 13.244C72.8289 13.2914 72.6864 13.312 72.5253 13.312C71.9618 13.312 71.6782 13.1262 71.6782 12.7423V12.675C71.7323 12.3722 71.8735 12.172 72.0849 12.0736L72.5459 11.8865C72.669 11.8364 72.8115 11.8032 72.9881 11.768C73.041 11.768 73.1131 11.7517 73.1828 11.7517C73.681 11.6525 74.0474 11.55 74.2962 11.4496C74.2097 11.989 74.0325 12.4211 73.7687 12.7423Z" fill="#274695"/>
<path fill-rule="evenodd" clip-rule="evenodd" d="M65.1632 7.06668C64.6507 7.06668 64.2072 7.13131 63.8358 7.26858C63.6803 7.35287 63.518 7.43454 63.3594 7.53561C63.1112 7.68745 62.8792 7.85583 62.6677 8.03808L63.6754 2.46715H60.5081L58.2606 14.7667H61.0933L61.3253 13.7098C61.6419 14.5301 62.3156 14.9504 63.3594 14.999H63.518C64.8279 14.999 65.8916 14.497 66.7045 13.4943C67.5175 12.5061 67.9274 11.3512 67.9274 10.0446C67.9274 9.10663 67.6593 8.37359 67.1107 7.85582C66.577 7.31741 65.9277 7.06668 65.1632 7.06668ZM64.2775 12.1198C64.0299 12.4884 63.7301 12.7216 63.3594 12.8078C63.2536 12.8236 63.1473 12.8407 63.0409 12.8407C62.3324 12.8407 61.9769 12.4058 61.9769 11.55C62.1222 10.8653 62.2976 10.3324 62.5271 9.93036C62.7031 9.62781 62.9886 9.4432 63.3594 9.37633C63.4632 9.36053 63.5895 9.3448 63.7139 9.3448C64.4031 9.3448 64.739 9.76341 64.739 10.5993C64.739 11.1338 64.5816 11.6525 64.2775 12.1198Z" fill="#274695"/>
<path fill-rule="evenodd" clip-rule="evenodd" d="M41.5003 7.8024C40.7194 7.30062 39.8185 7.06668 38.7567 7.06668C38.5242 7.06668 38.278 7.06668 38.0484 7.09996C37.0583 7.20172 36.171 7.51956 35.3935 8.05456C34.4196 8.72347 33.8005 9.72864 33.534 11.084L33.4993 11.4698L33.4453 11.9215C33.4453 12.9238 33.8182 13.6935 34.5605 14.2151C35.3028 14.7334 36.2448 14.999 37.3741 14.999C37.6227 14.999 37.854 14.9813 38.0484 14.9655C38.191 14.9504 38.3133 14.9346 38.4183 14.9011C38.721 14.8505 38.9685 14.784 39.1454 14.7334C39.3228 14.6831 39.499 14.6173 39.6756 14.5468C40.0833 14.3649 40.4211 14.1989 40.7041 14.0118C41.0229 13.7931 41.3043 13.5263 41.5703 13.229C42.1012 12.5887 42.4564 11.8182 42.5962 10.8993L42.6662 10.1291C42.6662 9.0588 42.2778 8.28931 41.5003 7.8024ZM39.0398 12.1713C38.8101 12.6062 38.4712 12.8577 38.0484 12.9415C37.9415 12.975 37.8188 12.975 37.6944 12.975C36.9878 12.975 36.6314 12.5564 36.6314 11.7193C36.74 10.9698 36.9154 10.332 37.1446 9.81373C37.3564 9.42566 37.658 9.1929 38.0484 9.09157C38.191 9.05879 38.3298 9.04175 38.4911 9.04175C39.1454 9.04175 39.4812 9.49371 39.4812 10.3995C39.4812 11.0487 39.3228 11.6525 39.0398 12.1713Z" stroke="white"/>
<path fill-rule="evenodd" clip-rule="evenodd" d="M21.553 7.53511C21.0561 7.21801 20.1886 7.06668 18.9515 7.06668H18.7211C18.26 7.06668 17.853 7.08465 17.4654 7.11868C15.3935 7.33414 14.2261 8.15495 13.9612 9.57755H17.0033C17.0908 9.32726 17.2506 9.14214 17.4654 9.02477C17.6758 8.90646 17.9234 8.84252 18.2437 8.84252C18.8613 8.84252 19.1633 9.02477 19.1633 9.37633C19.1633 9.61108 19.0037 9.79426 18.6684 9.92911C18.5085 9.99666 18.101 10.0785 17.4654 10.1624C17.3561 10.1806 17.2506 10.1959 17.1291 10.2129L15.9604 10.3806L15.1632 10.5336C14.6149 10.6831 14.1532 10.8986 13.7819 11.1843C13.3409 11.5347 13.0379 12.0389 12.8982 12.6893C12.8982 12.7216 12.8796 12.8078 12.844 12.9092V13.2282C12.844 13.7615 13.0379 14.1649 13.4279 14.4309C13.9783 14.8003 14.5594 15 15.2337 15H15.3935C16.1347 15 16.8276 14.8505 17.4654 14.5646C17.8168 14.3957 18.1542 14.1989 18.4898 13.9469V14.7667H21.7291L21.7639 14.6319C21.5712 14.4475 21.4618 14.2604 21.4291 14.0628L21.5173 13.5611L22.2046 9.91331C22.2593 9.54471 22.2972 9.24465 22.2972 8.99075C22.2972 8.33956 22.0481 7.85483 21.553 7.53511ZM18.2437 12.7423C18.101 12.9092 17.9234 13.0431 17.7115 13.1577C17.6248 13.1922 17.5529 13.2282 17.4654 13.244C17.3216 13.2914 17.1637 13.312 17.0033 13.312C16.4364 13.312 16.1553 13.1262 16.1553 12.7423V12.675C16.2253 12.3722 16.346 12.172 16.5623 12.0736L17.0393 11.8865C17.1466 11.8364 17.2876 11.8032 17.4654 11.768C17.5337 11.768 17.6051 11.7517 17.6758 11.7517C18.1542 11.6525 18.5255 11.55 18.7704 11.4496C18.6851 11.989 18.5085 12.4211 18.2437 12.7423Z" stroke="white"/>
<path fill-rule="evenodd" clip-rule="evenodd" d="M31.5861 7.85483C30.8795 7.31741 29.9234 7.06668 28.7024 7.06668C27.1615 7.06668 25.9418 7.45251 25.0391 8.23998C24.1552 9.02477 23.6066 9.99592 23.3935 11.1338L23.3582 11.4841L23.2878 11.8858C23.2878 12.7726 23.6219 13.4943 24.2774 14.0961C24.9509 14.6824 25.9221 14.9655 27.1989 14.9655C28.4218 14.9655 29.4824 14.6975 30.3675 14.1787C31.2529 13.6612 31.8558 12.8905 32.1357 11.8693H29.003C28.7024 12.6062 28.2413 12.976 27.6049 12.976C26.8462 12.976 26.453 12.571 26.453 11.7522C26.5626 10.9309 26.7368 10.298 26.9656 9.81373C27.232 9.29323 27.6922 9.04132 28.3132 9.04132C28.6332 9.04132 28.8623 9.14214 29.0212 9.32725C29.1811 9.4937 29.2496 9.70998 29.2496 9.94516L29.2358 10.1298H32.4175L32.4369 9.70998C32.4369 8.94217 32.1539 8.32258 31.5861 7.85483Z" stroke="white"/>
<path fill-rule="evenodd" clip-rule="evenodd" d="M11.6438 1.01761C10.7256 0.333837 9.50801 0 7.95205 0C7.61597 0 7.31349 0.0177272 7.0324 0.0364498C6.7316 0.0750767 6.46749 0.0940498 6.20263 0.130002C5.68971 0.221624 5.19283 0.36985 4.70105 0.555707C3.72843 0.963187 2.96841 1.48412 2.40422 2.11484C1.85583 2.74295 1.50157 3.48426 1.34243 4.31595L1.30841 4.77904L1.23673 5.35633C1.23673 6.44734 1.62622 7.26323 2.40422 7.80022C3.18125 8.33714 4.27512 8.78473 5.67148 9.13462C6.5384 9.3912 7.17453 9.61643 7.59899 9.79911C7.89787 10.0052 8.05698 10.2275 8.05698 10.5052V10.7443C7.89787 11.393 7.26074 11.7271 6.16618 11.7271C5.68971 11.7271 5.26402 11.5972 4.8964 11.3561C4.50667 11.0966 4.31156 10.7098 4.31156 10.2105H0.0534541C0.018223 10.3021 0 10.4698 0 10.7443C0 11.9319 0.441725 12.8941 1.30841 13.6558C2.28079 14.5415 3.60524 14.9886 5.28467 14.9886C7.0324 14.9886 8.58544 14.601 9.91331 13.8223C11.2526 13.063 12.0848 11.8226 12.4014 10.1157L12.4548 9.28185C12.4548 8.3724 12.1171 7.63426 11.4331 7.0589C10.7438 6.50394 9.76994 6.05784 8.53369 5.74316L7.10331 5.35633C6.5542 5.18752 6.16618 5.01982 5.93827 4.83714C5.72446 4.65128 5.61876 4.44763 5.61876 4.20586L5.63625 4.03922C5.74025 3.53844 6.2376 3.27844 7.10331 3.27844C8.19868 3.27844 8.76284 3.64922 8.76284 4.42648V4.50331H12.9857V4.26103C12.9857 2.7998 12.5435 1.70494 11.6438 1.01761Z" stroke="white"/>
<path fill-rule="evenodd" clip-rule="evenodd" d="M87.3423 7.58562C86.8814 7.23505 86.26 7.06668 85.4657 7.06668C84.3859 7.06668 83.3938 7.51882 82.5111 8.45501L82.7394 7.2506H79.8545L78.4581 14.7667H81.6254L82.3307 10.9309C82.4744 10.3149 82.6498 9.91331 82.8837 9.70998C83.0921 9.51193 83.413 9.40986 83.836 9.40986C84.4213 9.40986 84.7217 9.69586 84.7217 10.298V10.5494L84.7012 10.7827L83.9604 14.7667H87.0953L87.9425 10.2469C88.0134 9.92862 88.0308 9.62781 88.0308 9.3448C88.0308 8.52181 87.8013 7.93843 87.3423 7.58562Z" stroke="white"/>
<path fill-rule="evenodd" clip-rule="evenodd" d="M99.051 6.96603H95.3774L92.9279 9.24465L94.1801 2.47642H91.0302L88.7679 14.7667H91.9153L92.3731 12.3802L93.0555 11.8032L94.2317 14.7662H98.0017L95.592 9.85771L99.051 6.96603Z" stroke="white"/>
<path fill-rule="evenodd" clip-rule="evenodd" d="M57.1461 7.5516C56.7387 7.21851 56.1042 7.06668 55.2893 7.06668C54.1381 7.06668 53.1305 7.51882 52.2616 8.43921C51.9781 7.51882 51.2176 7.06668 49.959 7.06668H49.888C49.4475 7.06668 48.9506 7.18399 48.4202 7.45151C47.9059 7.71954 47.4806 8.02103 47.181 8.37359L47.373 7.25011H44.4908L43.11 14.7674H46.2451L46.9509 10.9314C47.0911 10.3648 47.2692 9.97919 47.4806 9.76341C47.7278 9.5253 48.0305 9.40986 48.3655 9.40986C48.9147 9.40986 49.1819 9.67888 49.1819 10.2124L49.1287 10.8653L48.4015 14.7674H51.5529L52.2616 10.9314C52.3851 10.2664 52.5782 9.84483 52.8265 9.66016C53.0758 9.49296 53.3424 9.40986 53.6412 9.40986C53.9603 9.40986 54.1721 9.46092 54.3155 9.59453C54.4387 9.71041 54.507 9.91331 54.507 10.1966C54.507 10.3813 54.4714 10.6313 54.4212 10.9314L53.7117 14.7674H56.8631L57.694 10.2802C57.7657 9.87836 57.7827 9.51193 57.7827 9.21063C57.7827 8.43921 57.5718 7.88817 57.1461 7.5516Z" stroke="white"/>
<path fill-rule="evenodd" clip-rule="evenodd" d="M77.0579 7.53511C76.5641 7.21801 75.6945 7.06668 74.4747 7.06668H74.2247C73.783 7.06668 73.3595 7.08465 72.9881 7.11868C70.8994 7.33414 69.7306 8.15495 69.4818 9.57755H72.5253C72.6174 9.32726 72.7754 9.14214 72.9881 9.02477C73.1828 8.90646 73.4484 8.84252 73.7687 8.84252C74.3683 8.84252 74.685 9.02477 74.685 9.37633C74.685 9.61108 74.5102 9.79426 74.1886 9.92911C74.0169 9.99666 73.6244 10.0785 72.9881 10.1624C72.8805 10.1806 72.7592 10.1959 72.6329 10.2129L71.4835 10.3806L70.6686 10.5336C70.138 10.6831 69.6771 10.8986 69.3064 11.1843C68.8623 11.5347 68.5631 12.0389 68.4188 12.6893C68.4188 12.7216 68.3852 12.8078 68.3647 12.9092V13.2282C68.3647 13.7615 68.5631 14.1649 68.9525 14.4309C69.4818 14.8003 70.0833 15 70.7576 15H70.8994C71.6439 15 72.3325 14.8505 72.9881 14.5646C73.3389 14.3957 73.681 14.1989 73.9951 13.9469V14.7667H77.2501L77.2887 14.6319C77.0928 14.4475 76.9883 14.2604 76.9541 14.0628L77.0405 13.5611L77.7328 9.91331C77.7826 9.54471 77.8193 9.24465 77.8193 8.99075C77.8193 8.33956 77.5711 7.85483 77.0579 7.53511ZM73.7687 12.7423C73.6244 12.9092 73.4484 13.0431 73.2176 13.1577C73.1492 13.1922 73.0596 13.2282 72.9881 13.244C72.8289 13.2914 72.6864 13.312 72.5253 13.312C71.9618 13.312 71.6782 13.1262 71.6782 12.7423V12.675C71.7323 12.3722 71.8735 12.172 72.0849 12.0736L72.5459 11.8865C72.669 11.8364 72.8115 11.8032 72.9881 11.768C73.041 11.768 73.1131 11.7517 73.1828 11.7517C73.681 11.6525 74.0474 11.55 74.2962 11.4496C74.2097 11.989 74.0325 12.4211 73.7687 12.7423Z" stroke="white"/>
<path fill-rule="evenodd" clip-rule="evenodd" d="M65.1632 7.06668C64.6507 7.06668 64.2072 7.13131 63.8358 7.26858C63.6803 7.35287 63.518 7.43454 63.3594 7.53561C63.1112 7.68745 62.8792 7.85583 62.6677 8.03808L63.6754 2.46715H60.5081L58.2606 14.7667H61.0933L61.3253 13.7098C61.6419 14.5301 62.3156 14.9504 63.3594 14.999H63.518C64.8279 14.999 65.8916 14.497 66.7045 13.4943C67.5175 12.5061 67.9274 11.3512 67.9274 10.0446C67.9274 9.10663 67.6593 8.37359 67.1107 7.85582C66.577 7.31741 65.9277 7.06668 65.1632 7.06668ZM64.2775 12.1198C64.0299 12.4884 63.7301 12.7216 63.3594 12.8078C63.2536 12.8236 63.1473 12.8407 63.0409 12.8407C62.3324 12.8407 61.9769 12.4058 61.9769 11.55C62.1222 10.8653 62.2976 10.3324 62.5271 9.93036C62.7031 9.62781 62.9886 9.4432 63.3594 9.37633C63.4632 9.36053 63.5895 9.3448 63.7139 9.3448C64.4031 9.3448 64.739 9.76341 64.739 10.5993C64.739 11.1338 64.5816 11.6525 64.2775 12.1198Z" stroke="white"/>
</svg>
