<svg width="15" height="15" viewBox="0 0 15 15" fill="none" xmlns="http://www.w3.org/2000/svg">
<g clip-path="url(#clip0_33_1554)">
<path d="M9.6875 8.75H9.19375L9.01875 8.58125C9.63125 7.86875 10 6.94375 10 5.9375C10 3.69375 8.18125 1.875 5.9375 1.875C3.69375 1.875 1.875 3.69375 1.875 5.9375C1.875 8.18125 3.69375 10 5.9375 10C6.94375 10 7.86875 9.63125 8.58125 9.01875L8.75 9.19375V9.6875L11.875 12.8063L12.8063 11.875L9.6875 8.75ZM5.9375 8.75C4.38125 8.75 3.125 7.49375 3.125 5.9375C3.125 4.38125 4.38125 3.125 5.9375 3.125C7.49375 3.125 8.75 4.38125 8.75 5.9375C8.75 7.49375 7.49375 8.75 5.9375 8.75Z" fill="#EF230C"/>
</g>
<defs>
<clipPath id="clip0_33_1554">
<rect width="15" height="15" fill="white"/>
</clipPath>
</defs>
</svg>
