<svg width="20" height="20" viewBox="0 0 20 20" fill="none" xmlns="http://www.w3.org/2000/svg">
<circle cx="10" cy="10" r="5.5" stroke="#EF230C"/>
<path d="M9.00001 7C9.00001 6.44772 9.44772 6 10 6C10.5523 6 11 6.44772 11 7V11C11 11.5523 10.5523 12 10 12C9.44772 12 9.00001 11.5523 9.00001 11V7Z" fill="#EF230C"/>
<path d="M11.7619 8.56434C12.2178 8.25266 12.8401 8.36961 13.1518 8.82554C13.4634 9.28148 13.3465 9.90375 12.8906 10.2154L10.5543 11.8125C10.0983 12.1242 9.47607 12.0072 9.16439 11.5513C8.85271 11.0954 8.96966 10.4731 9.42559 10.1614L11.7619 8.56434Z" fill="#EF230C"/>
</svg>
