<svg width="47" height="15" viewBox="0 0 47 15" fill="currentColor"
  xmlns="http://www.w3.org/2000/svg">
  <g clip-path="url(#clip0_33_1715)">
    <path d="M20.0841 14.7836H16.3296L18.6779 0.263184H22.4323L20.0841 14.7836Z" fill="inherit" />
    <path
      d="M33.6946 0.618191C32.9541 0.324391 31.7795 0 30.3271 0C26.6194 0 24.0084 1.97714 23.9924 4.80386C23.9616 6.88941 25.8618 8.04777 27.2829 8.74316C28.7355 9.45374 29.2293 9.91754 29.2293 10.5509C29.2145 11.5237 28.0555 11.9721 26.9746 11.9721C25.4756 11.9721 24.6724 11.7409 23.4518 11.1997L22.9574 10.9677L22.4321 14.2272C23.3126 14.6284 24.935 14.9844 26.6194 15C30.5589 15 33.1236 13.0535 33.154 10.0411C33.169 8.38818 32.1657 7.12161 30.0025 6.08664C28.6893 5.42226 27.8851 4.97427 27.8851 4.29449C27.9005 3.6765 28.5653 3.04353 30.0477 3.04353C31.2682 3.01252 32.165 3.30591 32.8444 3.59951L33.184 3.7537L33.6946 0.618191Z"
      fill="inherit" />
    <path
      d="M38.6846 9.63952C38.9938 8.80534 40.1836 5.57683 40.1836 5.57683C40.168 5.60783 40.4922 4.72726 40.6776 4.18667L40.94 5.43784C40.94 5.43784 41.6509 8.91354 41.8053 9.63952C41.2186 9.63952 39.4262 9.63952 38.6846 9.63952ZM43.3191 0.263184H40.415C39.5194 0.263184 38.839 0.525571 38.4526 1.46795L32.8758 14.7834H36.8153C36.8153 14.7834 37.4639 12.9912 37.6033 12.6052C38.0354 12.6052 41.8678 12.6052 42.4237 12.6052C42.5315 13.115 42.8717 14.7834 42.8717 14.7834H46.348L43.3191 0.263184Z"
      fill="inherit" />
    <path
      d="M13.1937 0.263184L9.51677 10.1647L9.11498 8.15656C8.43519 5.83942 6.30325 3.3219 3.92411 2.07012L7.29202 14.7682H11.2623L17.1638 0.263184H13.1937Z"
      fill="inherit" />
    <path
      d="M6.10245 0.263184H0.0617983L0 0.556572C4.71209 1.76154 7.83281 4.66607 9.11498 8.15718L7.80181 1.48376C7.58562 0.556367 6.92123 0.293775 6.10245 0.263184Z"
      fill="#FAA61A" />
  </g>
  <defs>
    <clipPath id="clip0_33_1715">
      <rect width="46.3481" height="15" fill="white" />
    </clipPath>
  </defs>
</svg>