<svg width="52" height="15" viewBox="0 0 52 15" fill="none" xmlns="http://www.w3.org/2000/svg">
<path d="M0 4.90845C0.120866 4.93589 0.243072 4.93192 0.364951 4.92796C0.410971 4.92646 0.456945 4.92497 0.502782 4.92517C0.638301 4.92578 0.773803 4.92672 0.909286 4.92765C1.41711 4.93116 1.92466 4.93466 2.43175 4.92117C2.76403 4.91281 3.05741 5.00333 3.33988 5.15784C4.01462 5.52829 4.55631 6.06125 5.08817 6.60402C5.3388 6.85929 5.58539 7.11848 5.832 7.37768C6.01034 7.56514 6.18869 7.7526 6.36858 7.93859C6.43547 8.00767 6.4711 8.0742 6.47 8.1749C6.45983 9.05068 6.45219 9.92755 6.45219 10.8033C6.45219 10.9709 6.38457 10.964 6.26242 10.9237C5.82108 10.7768 5.46117 10.5019 5.11798 10.2031C4.55759 9.71519 4.04474 9.17823 3.53212 8.64151C3.38129 8.48359 3.23049 8.3257 3.07849 8.16908C2.67975 7.75814 2.29024 7.33857 1.90076 6.91903C1.27964 6.24998 0.658611 5.58101 0.000363345 4.94734C0 4.93426 0 4.92117 0 4.90845Z" fill="#EA2127"/>
<path d="M0 4.90845C0.120866 4.93589 0.243072 4.93192 0.364951 4.92796C0.410971 4.92646 0.456945 4.92497 0.502782 4.92517C0.638301 4.92578 0.773803 4.92672 0.909286 4.92765C1.41711 4.93116 1.92466 4.93466 2.43175 4.92117C2.76403 4.91281 3.05741 5.00333 3.33988 5.15784C4.01462 5.52829 4.55631 6.06125 5.08817 6.60402C5.3388 6.85929 5.58539 7.11848 5.832 7.37768C6.01034 7.56514 6.18869 7.7526 6.36858 7.93859C6.43547 8.00767 6.4711 8.0742 6.47 8.1749C6.45983 9.05068 6.45219 9.92755 6.45219 10.8033C6.45219 10.9709 6.38457 10.964 6.26242 10.9237C5.82108 10.7768 5.46117 10.5019 5.11798 10.2031C4.55759 9.71519 4.04474 9.17823 3.53212 8.64151C3.38129 8.48359 3.23049 8.3257 3.07849 8.16908C2.67975 7.75814 2.29024 7.33857 1.90076 6.91903C1.27964 6.24998 0.658611 5.58101 0.000363345 4.94734C0 4.93426 0 4.92117 0 4.90845Z" stroke="white"/>
<path d="M9.66228 0C9.63798 0.0516307 9.64073 0.105987 9.64346 0.159884C9.64433 0.176954 9.64519 0.193978 9.64519 0.210855C9.64483 0.465453 9.64405 0.720073 9.64328 0.974694C9.64096 1.73845 9.63865 2.50221 9.64737 3.26536C9.65646 4.06188 9.41434 4.75007 8.86103 5.33138C8.42339 5.79088 7.99056 6.25519 7.55794 6.71926C7.35016 6.94216 7.14243 7.165 6.93424 7.38723C6.8763 7.3601 6.88252 7.31825 6.88816 7.28029C6.88977 7.26942 6.89134 7.25887 6.89134 7.24908C6.8906 6.77361 6.89049 6.29821 6.89038 5.82285C6.89016 4.90362 6.88995 3.98449 6.88516 3.06504C6.88448 2.92835 6.95567 2.85273 7.03211 2.77153C7.0374 2.76591 7.04271 2.76027 7.04803 2.75458C7.71456 2.04088 8.38176 1.3274 9.04859 0.614304C9.2401 0.409502 9.43158 0.204733 9.62302 0L9.66228 0Z" fill="#EA2128"/>
<path d="M9.66228 0C9.63798 0.0516307 9.64073 0.105987 9.64346 0.159884C9.64433 0.176954 9.64519 0.193978 9.64519 0.210855C9.64483 0.465453 9.64405 0.720073 9.64328 0.974694C9.64096 1.73845 9.63865 2.50221 9.64737 3.26536C9.65646 4.06188 9.41434 4.75007 8.86103 5.33138C8.42339 5.79088 7.99056 6.25519 7.55794 6.71926C7.35016 6.94216 7.14243 7.165 6.93424 7.38723C6.8763 7.3601 6.88252 7.31825 6.88816 7.28029C6.88977 7.26942 6.89134 7.25887 6.89134 7.24908C6.8906 6.77361 6.89049 6.29821 6.89038 5.82285C6.89016 4.90362 6.88995 3.98449 6.88516 3.06504C6.88448 2.92835 6.95567 2.85273 7.03211 2.77153C7.0374 2.76591 7.04271 2.76027 7.04803 2.75458C7.71456 2.04088 8.38176 1.3274 9.04859 0.614304C9.2401 0.409502 9.43158 0.204733 9.62302 0L9.66228 0Z" stroke="white"/>
<path d="M48.6579 8.64871C48.6538 8.65211 48.6496 8.6555 48.6455 8.6589C48.4341 8.83152 48.2226 9.00419 47.9363 9.03771C47.9365 8.68992 47.9365 8.34213 47.9364 7.99434C47.9363 7.82044 47.9363 7.64655 47.9363 7.47265C48.0684 7.3364 48.2005 7.19991 48.3325 7.06341C48.6334 6.75227 48.9345 6.44104 49.2374 6.13226C49.3213 6.04684 49.4142 5.96992 49.5068 5.89327C49.5242 5.8789 49.5415 5.86455 49.5588 5.85015C49.8634 5.59748 50.1972 5.45279 50.6113 5.48588C50.8713 5.5066 51.1334 5.50167 51.3954 5.49674C51.5102 5.49458 51.625 5.49242 51.7397 5.49242V5.53132C51.4921 5.74663 51.2654 5.98301 51.0387 6.21937C50.9313 6.33142 50.8238 6.44346 50.7141 6.55324C50.4366 6.83056 50.1629 7.11178 49.8893 7.39294C49.7712 7.51427 49.6532 7.63559 49.5348 7.75658C49.2094 8.0216 48.9179 8.31971 48.6579 8.64871Z" fill="#EA2127"/>
<path d="M48.6579 8.64871C48.6538 8.65211 48.6496 8.6555 48.6455 8.6589C48.4341 8.83152 48.2226 9.00419 47.9363 9.03771C47.9365 8.68992 47.9365 8.34213 47.9364 7.99434C47.9363 7.82044 47.9363 7.64655 47.9363 7.47265C48.0684 7.3364 48.2005 7.19991 48.3325 7.06341C48.6334 6.75227 48.9345 6.44104 49.2374 6.13226C49.3213 6.04684 49.4142 5.96992 49.5068 5.89327C49.5242 5.8789 49.5415 5.86455 49.5588 5.85015C49.8634 5.59748 50.1972 5.45279 50.6113 5.48588C50.8713 5.5066 51.1334 5.50167 51.3954 5.49674C51.5102 5.49458 51.625 5.49242 51.7397 5.49242V5.53132C51.4921 5.74663 51.2654 5.98301 51.0387 6.21937C50.9313 6.33142 50.8238 6.44346 50.7141 6.55324C50.4366 6.83056 50.1629 7.11178 49.8893 7.39294C49.7712 7.51427 49.6532 7.63559 49.5348 7.75658C49.2094 8.0216 48.9179 8.31971 48.6579 8.64871Z" stroke="white"/>
<path d="M3.55472 13.4423C3.55265 13.4258 3.55106 13.4071 3.54936 13.387C3.5454 13.3402 3.54079 13.2858 3.52782 13.2336C3.47038 12.9984 3.29043 12.8494 3.07521 12.8519C2.8629 12.8541 2.7073 12.9915 2.64259 13.2293C2.60078 13.3838 2.60333 13.5368 2.64077 13.691C2.70257 13.9469 2.87017 14.0891 3.10175 14.08C3.32969 14.0713 3.49946 13.9102 3.54018 13.6594C3.54631 13.6183 3.54816 13.5762 3.55029 13.5277C3.55144 13.5014 3.55268 13.4732 3.55472 13.4423ZM2.7273 14.9997C2.69219 14.9696 2.65252 14.9438 2.61288 14.918C2.51784 14.8563 2.42293 14.7947 2.39138 14.6726C2.38797 14.6592 2.38252 14.6441 2.37683 14.6283C2.35462 14.5666 2.32859 14.4943 2.4041 14.4741C2.47899 14.4541 2.59751 14.4526 2.6644 14.5457C2.82036 14.7616 3.01849 14.8223 3.2668 14.7304C3.47365 14.6537 3.54345 14.4966 3.50783 14.1854C3.0185 14.401 2.69276 14.357 2.46991 14.0451C2.21979 13.6957 2.24851 13.1097 2.52953 12.8123C2.77637 12.552 3.1541 12.5349 3.53545 12.7785C3.53097 12.6178 3.62935 12.6285 3.72216 12.6385C3.73477 12.6399 3.74727 12.6412 3.7594 12.6422C3.85942 12.6499 3.85066 12.7167 3.84273 12.7773C3.84054 12.794 3.83842 12.8103 3.83865 12.8247C3.84043 13.0018 3.83967 13.1791 3.83891 13.3563C3.83781 13.6138 3.8367 13.8714 3.84338 14.1287C3.85283 14.5235 3.74522 14.8394 3.35077 14.9997H2.7273Z" fill="#ED2830"/>
<path d="M3.55472 13.4423C3.55265 13.4258 3.55106 13.4071 3.54936 13.387C3.5454 13.3402 3.54079 13.2858 3.52782 13.2336C3.47038 12.9984 3.29043 12.8494 3.07521 12.8519C2.8629 12.8541 2.7073 12.9915 2.64259 13.2293C2.60078 13.3838 2.60333 13.5368 2.64077 13.691C2.70257 13.9469 2.87017 14.0891 3.10175 14.08C3.32969 14.0713 3.49946 13.9102 3.54018 13.6594C3.54631 13.6183 3.54816 13.5762 3.55029 13.5277C3.55144 13.5014 3.55268 13.4732 3.55472 13.4423ZM2.7273 14.9997C2.69219 14.9696 2.65252 14.9438 2.61288 14.918C2.51784 14.8563 2.42293 14.7947 2.39138 14.6726C2.38797 14.6592 2.38252 14.6441 2.37683 14.6283C2.35462 14.5666 2.32859 14.4943 2.4041 14.4741C2.47899 14.4541 2.59751 14.4526 2.6644 14.5457C2.82036 14.7616 3.01849 14.8223 3.2668 14.7304C3.47365 14.6537 3.54345 14.4966 3.50783 14.1854C3.0185 14.401 2.69276 14.357 2.46991 14.0451C2.21979 13.6957 2.24851 13.1097 2.52953 12.8123C2.77637 12.552 3.1541 12.5349 3.53545 12.7785C3.53097 12.6178 3.62935 12.6285 3.72216 12.6385C3.73477 12.6399 3.74727 12.6412 3.7594 12.6422C3.85942 12.6499 3.85066 12.7167 3.84273 12.7773C3.84054 12.794 3.83842 12.8103 3.83865 12.8247C3.84043 13.0018 3.83967 13.1791 3.83891 13.3563C3.83781 13.6138 3.8367 13.8714 3.84338 14.1287C3.85283 14.5235 3.74522 14.8394 3.35077 14.9997H2.7273Z" stroke="white"/>
<path d="M15.2514 13.4675C15.2538 13.4913 15.2557 13.5152 15.2576 13.5389C15.2619 13.5936 15.2662 13.6476 15.2768 13.7001C15.3219 13.9234 15.4946 14.0739 15.7055 14.0808C15.9287 14.0877 16.1105 13.9455 16.165 13.7143C16.2028 13.5558 16.205 13.3955 16.1675 13.2348C16.1123 12.997 15.9243 12.8422 15.7 12.8516C15.4841 12.8604 15.3147 13.0196 15.2736 13.2566C15.2649 13.3052 15.2609 13.3548 15.2569 13.4041C15.2552 13.4253 15.2535 13.4465 15.2514 13.4675ZM15.3503 14.9994C15.3142 14.9606 15.2695 14.9304 15.2248 14.9002C15.1427 14.8448 15.0605 14.7894 15.0318 14.6803C15.028 14.6661 15.0227 14.6508 15.0173 14.635C14.9949 14.5696 14.9701 14.497 15.0351 14.4741C15.11 14.448 15.2339 14.4545 15.3008 14.5363C15.487 14.7631 15.6458 14.8191 15.8971 14.7322C16.0883 14.6654 16.165 14.5272 16.1679 14.2455V14.1498C16.1354 14.1678 16.1049 14.1868 16.0751 14.2055C16.004 14.2499 15.9366 14.2919 15.856 14.3109C15.5579 14.3818 15.259 14.2724 15.0911 14.0182C14.8871 13.7096 14.8875 13.2166 15.0925 12.9094C15.3267 12.5586 15.7596 12.5059 16.1883 12.7909C16.1758 12.6224 16.2805 12.631 16.3835 12.6395C16.389 12.6399 16.3944 12.6404 16.3998 12.6408C16.5045 12.6478 16.4934 12.7134 16.4835 12.7721C16.4807 12.7889 16.4779 12.8051 16.478 12.8193C16.4805 13.015 16.4799 13.211 16.4793 13.4069C16.4786 13.6459 16.4779 13.885 16.4827 14.1237C16.4907 14.5239 16.3878 14.8493 15.9741 14.9991C15.7663 14.9994 15.5581 14.9994 15.3507 14.9994H15.3503Z" fill="#ED252E"/>
<path d="M15.2514 13.4675C15.2538 13.4913 15.2557 13.5152 15.2576 13.5389C15.2619 13.5936 15.2662 13.6476 15.2768 13.7001C15.3219 13.9234 15.4946 14.0739 15.7055 14.0808C15.9287 14.0877 16.1105 13.9455 16.165 13.7143C16.2028 13.5558 16.205 13.3955 16.1675 13.2348C16.1123 12.997 15.9243 12.8422 15.7 12.8516C15.4841 12.8604 15.3147 13.0196 15.2736 13.2566C15.2649 13.3052 15.2609 13.3548 15.2569 13.4041C15.2552 13.4253 15.2535 13.4465 15.2514 13.4675ZM15.3503 14.9994C15.3142 14.9606 15.2695 14.9304 15.2248 14.9002C15.1427 14.8448 15.0605 14.7894 15.0318 14.6803C15.028 14.6661 15.0227 14.6508 15.0173 14.635C14.9949 14.5696 14.9701 14.497 15.0351 14.4741C15.11 14.448 15.2339 14.4545 15.3008 14.5363C15.487 14.7631 15.6458 14.8191 15.8971 14.7322C16.0883 14.6654 16.165 14.5272 16.1679 14.2455V14.1498C16.1354 14.1678 16.1049 14.1868 16.0751 14.2055C16.004 14.2499 15.9366 14.2919 15.856 14.3109C15.5579 14.3818 15.259 14.2724 15.0911 14.0182C14.8871 13.7096 14.8875 13.2166 15.0925 12.9094C15.3267 12.5586 15.7596 12.5059 16.1883 12.7909C16.1758 12.6224 16.2805 12.631 16.3835 12.6395C16.389 12.6399 16.3944 12.6404 16.3998 12.6408C16.5045 12.6478 16.4934 12.7134 16.4835 12.7721C16.4807 12.7889 16.4779 12.8051 16.478 12.8193C16.4805 13.015 16.4799 13.211 16.4793 13.4069C16.4786 13.6459 16.4779 13.885 16.4827 14.1237C16.4907 14.5239 16.3878 14.8493 15.9741 14.9991C15.7663 14.9994 15.5581 14.9994 15.3507 14.9994H15.3503Z" stroke="white"/>
<path d="M50.4029 13.4437C50.4055 13.4727 50.4072 13.5004 50.4089 13.5273C50.4123 13.584 50.4156 13.6367 50.4262 13.688C50.4756 13.9294 50.6432 14.0774 50.8621 14.0818C51.0926 14.0868 51.2584 13.9432 51.3183 13.6902C51.3587 13.523 51.3558 13.3565 51.3063 13.1932C51.2413 12.9813 51.066 12.8493 50.8635 12.8522C50.6596 12.8548 50.4953 12.9878 50.4367 13.2082C50.4223 13.2635 50.4164 13.3212 50.4108 13.3752C50.4083 13.3989 50.4059 13.4219 50.4029 13.4437ZM50.5313 15.0001C50.4939 14.9686 50.4509 14.943 50.408 14.9175C50.3094 14.8589 50.2109 14.8003 50.1808 14.6707C50.1771 14.6546 50.1706 14.6369 50.1639 14.6188C50.1432 14.5624 50.1211 14.5024 50.1786 14.4777C50.259 14.4435 50.3815 14.4569 50.4462 14.5296C50.6585 14.7652 50.8548 14.8296 51.0922 14.7183C51.2714 14.6351 51.3376 14.4573 51.2969 14.1614C51.0115 14.3813 50.7116 14.3988 50.416 14.2021C50.143 14.021 50.023 13.5804 50.1223 13.1976C50.2746 12.609 50.8254 12.424 51.3452 12.8032C51.3223 12.653 51.4001 12.6338 51.5197 12.637C51.6401 12.6401 51.6352 12.7074 51.6303 12.774C51.6294 12.787 51.6284 12.8001 51.6284 12.8126C51.6288 12.9712 51.628 13.1299 51.6271 13.2887C51.6255 13.5837 51.6239 13.8789 51.6303 14.1741C51.639 14.5678 51.5085 14.863 51.1155 15.0001H50.5313Z" fill="#ED252E"/>
<path d="M50.4029 13.4437C50.4055 13.4727 50.4072 13.5004 50.4089 13.5273C50.4123 13.584 50.4156 13.6367 50.4262 13.688C50.4756 13.9294 50.6432 14.0774 50.8621 14.0818C51.0926 14.0868 51.2584 13.9432 51.3183 13.6902C51.3587 13.523 51.3558 13.3565 51.3063 13.1932C51.2413 12.9813 51.066 12.8493 50.8635 12.8522C50.6596 12.8548 50.4953 12.9878 50.4367 13.2082C50.4223 13.2635 50.4164 13.3212 50.4108 13.3752C50.4083 13.3989 50.4059 13.4219 50.4029 13.4437ZM50.5313 15.0001C50.4939 14.9686 50.4509 14.943 50.408 14.9175C50.3094 14.8589 50.2109 14.8003 50.1808 14.6707C50.1771 14.6546 50.1706 14.6369 50.1639 14.6188C50.1432 14.5624 50.1211 14.5024 50.1786 14.4777C50.259 14.4435 50.3815 14.4569 50.4462 14.5296C50.6585 14.7652 50.8548 14.8296 51.0922 14.7183C51.2714 14.6351 51.3376 14.4573 51.2969 14.1614C51.0115 14.3813 50.7116 14.3988 50.416 14.2021C50.143 14.021 50.023 13.5804 50.1223 13.1976C50.2746 12.609 50.8254 12.424 51.3452 12.8032C51.3223 12.653 51.4001 12.6338 51.5197 12.637C51.6401 12.6401 51.6352 12.7074 51.6303 12.774C51.6294 12.787 51.6284 12.8001 51.6284 12.8126C51.6288 12.9712 51.628 13.1299 51.6271 13.2887C51.6255 13.5837 51.6239 13.8789 51.6303 14.1741C51.639 14.5678 51.5085 14.863 51.1155 15.0001H50.5313Z" stroke="white"/>
<path d="M30.1618 5.08148V5.68424C30.1618 6.07068 30.1618 6.07578 30.5439 6.06959C30.6817 6.06714 30.8196 6.07045 30.9575 6.07376C31.2476 6.08073 31.5376 6.0877 31.8254 6.04087C32.3544 5.95471 32.6845 5.517 32.6532 4.96769C32.6249 4.45982 32.3039 4.17225 31.7433 4.1239C31.432 4.09759 31.1206 4.09551 30.8096 4.09345C30.648 4.09237 30.4864 4.0913 30.3251 4.08682C30.18 4.08246 30.1542 4.13554 30.1589 4.26423C30.1654 4.45778 30.1641 4.6517 30.1629 4.84573C30.1624 4.9243 30.1618 5.00289 30.1618 5.08148ZM30.176 8.37483C30.176 8.44628 30.176 8.51773 30.176 8.58918C30.1759 8.87472 30.1759 9.16021 30.1767 9.44547C30.1767 9.4547 30.1763 9.46417 30.1759 9.47364C30.1732 9.53313 30.1706 9.59236 30.2735 9.59016C30.5188 9.58483 30.7642 9.58583 31.0095 9.58684C31.3995 9.58844 31.7894 9.59004 32.1795 9.56617C32.7161 9.53308 33.2269 8.93542 33.0538 8.2545C32.9033 7.66446 32.4569 7.40017 31.9181 7.25875C31.5325 7.15793 31.1393 7.16538 30.7461 7.17284C30.5878 7.17584 30.4294 7.17884 30.2716 7.17477C30.1718 7.17225 30.174 7.23608 30.1761 7.29692C30.1765 7.30629 30.1768 7.31558 30.1767 7.32455C30.1757 7.58709 30.1758 7.84964 30.1759 8.11219C30.176 8.19973 30.176 8.28728 30.176 8.37483ZM33.0004 6.53639C33.7424 6.85703 34.1994 7.37836 34.3953 8.10981C34.7563 9.4542 34.0234 10.5368 32.623 10.7524C32.3017 10.8019 31.9792 10.8233 31.6546 10.8233C31.3465 10.8239 31.0385 10.8238 30.7305 10.8237C30.169 10.8234 29.6075 10.8232 29.0454 10.8277C28.9083 10.8284 28.8727 10.7891 28.8727 10.6535C28.8742 8.13562 28.8727 5.61771 28.8665 3.10016C28.8665 2.96929 28.8927 2.92384 29.0345 2.92457C29.5271 2.92811 30.0196 2.92783 30.5121 2.92755C30.98 2.92728 31.4478 2.92701 31.9156 2.93002C32.3031 2.93257 32.675 3.02636 33.0153 3.21431C33.7391 3.61494 34.0031 4.24932 33.9525 5.05312C33.9122 5.71477 33.629 6.21428 33.0004 6.53639Z" fill="#008447"/>
<path d="M30.1618 5.08148V5.68424C30.1618 6.07068 30.1618 6.07578 30.5439 6.06959C30.6817 6.06714 30.8196 6.07045 30.9575 6.07376C31.2476 6.08073 31.5376 6.0877 31.8254 6.04087C32.3544 5.95471 32.6845 5.517 32.6532 4.96769C32.6249 4.45982 32.3039 4.17225 31.7433 4.1239C31.432 4.09759 31.1206 4.09551 30.8096 4.09345C30.648 4.09237 30.4864 4.0913 30.3251 4.08682C30.18 4.08246 30.1542 4.13554 30.1589 4.26423C30.1654 4.45778 30.1641 4.6517 30.1629 4.84573C30.1624 4.9243 30.1618 5.00289 30.1618 5.08148ZM30.176 8.37483C30.176 8.44628 30.176 8.51773 30.176 8.58918C30.1759 8.87472 30.1759 9.16021 30.1767 9.44547C30.1767 9.4547 30.1763 9.46417 30.1759 9.47364C30.1732 9.53313 30.1706 9.59236 30.2735 9.59016C30.5188 9.58483 30.7642 9.58583 31.0095 9.58684C31.3995 9.58844 31.7894 9.59004 32.1795 9.56617C32.7161 9.53308 33.2269 8.93542 33.0538 8.2545C32.9033 7.66446 32.4569 7.40017 31.9181 7.25875C31.5325 7.15793 31.1393 7.16538 30.7461 7.17284C30.5878 7.17584 30.4294 7.17884 30.2716 7.17477C30.1718 7.17225 30.174 7.23608 30.1761 7.29692C30.1765 7.30629 30.1768 7.31558 30.1767 7.32455C30.1757 7.58709 30.1758 7.84964 30.1759 8.11219C30.176 8.19973 30.176 8.28728 30.176 8.37483ZM33.0004 6.53639C33.7424 6.85703 34.1994 7.37836 34.3953 8.10981C34.7563 9.4542 34.0234 10.5368 32.623 10.7524C32.3017 10.8019 31.9792 10.8233 31.6546 10.8233C31.3465 10.8239 31.0385 10.8238 30.7305 10.8237C30.169 10.8234 29.6075 10.8232 29.0454 10.8277C28.9083 10.8284 28.8727 10.7891 28.8727 10.6535C28.8742 8.13562 28.8727 5.61771 28.8665 3.10016C28.8665 2.96929 28.8927 2.92384 29.0345 2.92457C29.5271 2.92811 30.0196 2.92783 30.5121 2.92755C30.98 2.92728 31.4478 2.92701 31.9156 2.93002C32.3031 2.93257 32.675 3.02636 33.0153 3.21431C33.7391 3.61494 34.0031 4.24932 33.9525 5.05312C33.9122 5.71477 33.629 6.21428 33.0004 6.53639Z" stroke="white"/>
<path d="M23.9216 5.37674C23.9216 5.47749 23.9217 5.57824 23.9218 5.67899C23.922 5.9476 23.9222 6.21621 23.9209 6.48482C23.9205 6.56371 23.9227 6.61897 24.0303 6.61824C24.1573 6.61685 24.2844 6.6174 24.4116 6.61794C24.7836 6.61954 25.1555 6.62113 25.5248 6.57426C26.2392 6.48337 26.6391 6.01221 26.6151 5.30948C26.5922 4.63656 26.1559 4.21449 25.4467 4.16105C25.159 4.13922 24.8715 4.13901 24.584 4.1388C24.4119 4.13867 24.2398 4.13854 24.0677 4.13378C23.942 4.12978 23.9172 4.17341 23.9191 4.28865C23.9243 4.54839 23.9233 4.8087 23.9224 5.06903C23.922 5.1716 23.9216 5.27419 23.9216 5.37674ZM22.498 6.86509C22.498 6.57004 22.4981 6.27499 22.4983 5.97994C22.4989 5.02914 22.4995 4.07839 22.494 3.12785C22.4936 2.96644 22.535 2.92172 22.6972 2.9239C23.0807 2.92951 23.4643 2.92948 23.8479 2.92945C24.5084 2.92939 25.169 2.92933 25.8295 2.95807C27.0626 3.01152 27.8566 3.78841 27.942 5.02337C27.9828 5.61413 27.901 6.1729 27.6047 6.69168C27.236 7.33879 26.6656 7.66416 25.9371 7.75541C25.3362 7.8303 24.7334 7.8303 24.131 7.82121C23.9769 7.81903 23.9376 7.8623 23.939 8.01426C23.9431 8.47519 23.9431 8.93622 23.943 9.39725C23.943 9.81219 23.943 10.2271 23.946 10.642C23.947 10.7823 23.9176 10.8339 23.7653 10.8292C23.4025 10.8175 23.0385 10.8165 22.6757 10.8292C22.5223 10.8343 22.4947 10.7812 22.495 10.6416C22.499 9.67279 22.4986 8.70442 22.4982 7.73615C22.4981 7.44579 22.498 7.15544 22.498 6.86509Z" fill="#0D8547"/>
<path d="M23.9216 5.37674C23.9216 5.47749 23.9217 5.57824 23.9218 5.67899C23.922 5.9476 23.9222 6.21621 23.9209 6.48482C23.9205 6.56371 23.9227 6.61897 24.0303 6.61824C24.1573 6.61685 24.2844 6.6174 24.4116 6.61794C24.7836 6.61954 25.1555 6.62113 25.5248 6.57426C26.2392 6.48337 26.6391 6.01221 26.6151 5.30948C26.5922 4.63656 26.1559 4.21449 25.4467 4.16105C25.159 4.13922 24.8715 4.13901 24.584 4.1388C24.4119 4.13867 24.2398 4.13854 24.0677 4.13378C23.942 4.12978 23.9172 4.17341 23.9191 4.28865C23.9243 4.54839 23.9233 4.8087 23.9224 5.06903C23.922 5.1716 23.9216 5.27419 23.9216 5.37674ZM22.498 6.86509C22.498 6.57004 22.4981 6.27499 22.4983 5.97994C22.4989 5.02914 22.4995 4.07839 22.494 3.12785C22.4936 2.96644 22.535 2.92172 22.6972 2.9239C23.0807 2.92951 23.4643 2.92948 23.8479 2.92945C24.5084 2.92939 25.169 2.92933 25.8295 2.95807C27.0626 3.01152 27.8566 3.78841 27.942 5.02337C27.9828 5.61413 27.901 6.1729 27.6047 6.69168C27.236 7.33879 26.6656 7.66416 25.9371 7.75541C25.3362 7.8303 24.7334 7.8303 24.131 7.82121C23.9769 7.81903 23.9376 7.8623 23.939 8.01426C23.9431 8.47519 23.9431 8.93622 23.943 9.39725C23.943 9.81219 23.943 10.2271 23.946 10.642C23.947 10.7823 23.9176 10.8339 23.7653 10.8292C23.4025 10.8175 23.0385 10.8165 22.6757 10.8292C22.5223 10.8343 22.4947 10.7812 22.495 10.6416C22.499 9.67279 22.4986 8.70442 22.4982 7.73615C22.4981 7.44579 22.498 7.15544 22.498 6.86509Z" stroke="white"/>
<path d="M18.5244 9.38772C18.9573 8.31853 19.3129 7.26425 19.5925 6.18525C19.8546 5.17423 20.0556 4.15122 20.1465 3.10966C20.1596 2.95697 20.2105 2.90499 20.3701 2.91081C20.7263 2.92401 21.0837 2.91864 21.4403 2.91328L21.46 2.91299C21.5683 2.91117 21.5869 2.94352 21.5723 3.04713C21.2597 5.25712 20.7234 7.40531 19.8324 9.45788C19.6546 9.8676 19.4638 10.2711 19.2649 10.671C19.2184 10.7648 19.1671 10.803 19.0595 10.8008C18.6832 10.7932 18.3066 10.7917 17.9303 10.8019C17.8005 10.8052 17.7387 10.7612 17.6791 10.647C16.9131 9.1885 16.3714 7.64816 15.9748 6.05256C15.7287 5.06481 15.5389 4.06651 15.3808 3.06095C15.3608 2.93298 15.3921 2.91008 15.5106 2.91226C15.5359 2.91275 15.5612 2.91325 15.5866 2.91375C15.9184 2.92031 16.2509 2.92689 16.5812 2.90899C16.7652 2.89954 16.8062 2.97551 16.827 3.13075C16.9418 3.99162 17.1014 4.84486 17.2981 5.69083C17.5762 6.88471 17.9321 8.05424 18.4266 9.17795C18.4446 9.21969 18.4641 9.2607 18.4896 9.31431C18.5001 9.33635 18.5115 9.36051 18.5244 9.38772Z" fill="#008347"/>
<path d="M18.5244 9.38772C18.9573 8.31853 19.3129 7.26425 19.5925 6.18525C19.8546 5.17423 20.0556 4.15122 20.1465 3.10966C20.1596 2.95697 20.2105 2.90499 20.3701 2.91081C20.7263 2.92401 21.0837 2.91864 21.4403 2.91328L21.46 2.91299C21.5683 2.91117 21.5869 2.94352 21.5723 3.04713C21.2597 5.25712 20.7234 7.40531 19.8324 9.45788C19.6546 9.8676 19.4638 10.2711 19.2649 10.671C19.2184 10.7648 19.1671 10.803 19.0595 10.8008C18.6832 10.7932 18.3066 10.7917 17.9303 10.8019C17.8005 10.8052 17.7387 10.7612 17.6791 10.647C16.9131 9.1885 16.3714 7.64816 15.9748 6.05256C15.7287 5.06481 15.5389 4.06651 15.3808 3.06095C15.3608 2.93298 15.3921 2.91008 15.5106 2.91226C15.5359 2.91275 15.5612 2.91325 15.5866 2.91375C15.9184 2.92031 16.2509 2.92689 16.5812 2.90899C16.7652 2.89954 16.8062 2.97551 16.827 3.13075C16.9418 3.99162 17.1014 4.84486 17.2981 5.69083C17.5762 6.88471 17.9321 8.05424 18.4266 9.17795C18.4446 9.21969 18.4641 9.2607 18.4896 9.31431C18.5001 9.33635 18.5115 9.36051 18.5244 9.38772Z" stroke="white"/>
<path d="M41.0046 8.05239C41.0046 7.83977 41.0048 7.62712 41.005 7.41446C41.0056 6.77699 41.0062 6.13938 41.0013 5.50176C40.9998 5.36107 41.0296 5.30545 41.182 5.31381C41.3401 5.322 41.499 5.3204 41.6579 5.3188C41.7459 5.31791 41.8339 5.31703 41.9218 5.31781C42.1668 5.31962 42.2159 5.36834 42.2308 5.61046C42.2314 5.61931 42.2321 5.62817 42.2328 5.63705C42.2356 5.67338 42.2384 5.7099 42.2384 5.74642C42.2384 5.88275 42.2799 5.90202 42.3966 5.82277C42.8924 5.48649 43.4323 5.25455 44.0372 5.22365C45.065 5.17093 45.5605 5.617 45.5739 6.6422C45.5848 7.49167 45.5831 8.34144 45.5814 9.19122C45.5804 9.68522 45.5794 10.1792 45.5809 10.6732C45.5809 10.7852 45.5449 10.8171 45.4365 10.8157C45.0606 10.8102 44.684 10.807 44.3077 10.8171C44.1648 10.8211 44.1398 10.7699 44.1401 10.6408C44.1442 9.63849 44.1436 8.63615 44.143 7.63381C44.1429 7.38338 44.1427 7.13294 44.1427 6.8825C44.1427 6.39608 43.8784 6.18486 43.4003 6.29138C43.0746 6.36409 42.7805 6.51351 42.4878 6.66838C42.393 6.71853 42.3945 6.79257 42.3961 6.87038C42.3964 6.88055 42.3966 6.89079 42.3966 6.90104C42.3966 7.1932 42.3964 7.48529 42.3962 7.77734C42.3956 8.7184 42.395 9.65912 42.4006 10.6005C42.4013 10.7604 42.3657 10.811 42.2006 10.8041C41.8705 10.7902 41.5382 10.7917 41.2078 10.8037C41.0504 10.8095 40.9998 10.7695 41.0013 10.6041C41.0069 9.97984 41.006 9.35634 41.0052 8.73292C41.0049 8.50608 41.0046 8.27925 41.0046 8.05239Z" fill="#008447"/>
<path d="M41.0046 8.05239C41.0046 7.83977 41.0048 7.62712 41.005 7.41446C41.0056 6.77699 41.0062 6.13938 41.0013 5.50176C40.9998 5.36107 41.0296 5.30545 41.182 5.31381C41.3401 5.322 41.499 5.3204 41.6579 5.3188C41.7459 5.31791 41.8339 5.31703 41.9218 5.31781C42.1668 5.31962 42.2159 5.36834 42.2308 5.61046C42.2314 5.61931 42.2321 5.62817 42.2328 5.63705C42.2356 5.67338 42.2384 5.7099 42.2384 5.74642C42.2384 5.88275 42.2799 5.90202 42.3966 5.82277C42.8924 5.48649 43.4323 5.25455 44.0372 5.22365C45.065 5.17093 45.5605 5.617 45.5739 6.6422C45.5848 7.49167 45.5831 8.34144 45.5814 9.19122C45.5804 9.68522 45.5794 10.1792 45.5809 10.6732C45.5809 10.7852 45.5449 10.8171 45.4365 10.8157C45.0606 10.8102 44.684 10.807 44.3077 10.8171C44.1648 10.8211 44.1398 10.7699 44.1401 10.6408C44.1442 9.63849 44.1436 8.63615 44.143 7.63381C44.1429 7.38338 44.1427 7.13294 44.1427 6.8825C44.1427 6.39608 43.8784 6.18486 43.4003 6.29138C43.0746 6.36409 42.7805 6.51351 42.4878 6.66838C42.393 6.71853 42.3945 6.79257 42.3961 6.87038C42.3964 6.88055 42.3966 6.89079 42.3966 6.90104C42.3966 7.1932 42.3964 7.48529 42.3962 7.77734C42.3956 8.7184 42.395 9.65912 42.4006 10.6005C42.4013 10.7604 42.3657 10.811 42.2006 10.8041C41.8705 10.7902 41.5382 10.7917 41.2078 10.8037C41.0504 10.8095 40.9998 10.7695 41.0013 10.6041C41.0069 9.97984 41.006 9.35634 41.0052 8.73292C41.0049 8.50608 41.0046 8.27925 41.0046 8.05239Z" stroke="white"/>
<path d="M38.6099 8.75854C38.6099 8.71272 38.6086 8.66669 38.6073 8.62064C38.6045 8.51725 38.6016 8.41372 38.6132 8.31211C38.631 8.15942 38.5633 8.1227 38.4321 8.12524C38.3225 8.12746 38.2127 8.12617 38.103 8.12489C38.0508 8.12427 37.9986 8.12366 37.9464 8.12343C37.0837 8.12052 36.6918 8.48952 36.8107 9.22388C36.8144 9.2464 36.8151 9.26949 36.8158 9.29257C36.8164 9.31493 36.8171 9.33729 36.8205 9.35911C36.8889 9.81936 37.2044 10.0309 37.6545 9.91825C37.8955 9.8579 38.1075 9.73538 38.314 9.59978C38.5223 9.46345 38.667 9.30422 38.6117 9.03011C38.6003 8.97079 38.6036 8.90846 38.6068 8.84618C38.6084 8.81684 38.6099 8.78752 38.6099 8.75854ZM38.6659 10.1971C38.3339 10.4937 37.9857 10.7348 37.5629 10.8478C37.2266 10.938 36.8849 10.9747 36.5431 10.902C36.0076 10.7889 35.651 10.4741 35.5198 9.93242C35.4114 9.48563 35.3769 9.03774 35.5194 8.58949C35.7277 7.92893 36.2494 7.649 36.863 7.48322C37.3807 7.34326 37.9111 7.30909 38.4434 7.29563C38.5717 7.29236 38.6241 7.25964 38.6037 7.1324C38.6014 7.11901 38.602 7.10544 38.6025 7.09182C38.6027 7.08584 38.603 7.07986 38.603 7.07387C38.6041 6.41804 38.2983 6.13011 37.6392 6.18064C37.1321 6.21954 36.6395 6.32933 36.1759 6.54492C36.0629 6.59799 36.0273 6.57618 35.9862 6.46312C35.9415 6.3422 35.8872 6.22482 35.8328 6.10744C35.8001 6.03673 35.7674 5.96602 35.7368 5.89453C35.675 5.74984 35.683 5.64696 35.868 5.58661C36.6304 5.33831 37.3993 5.14563 38.2107 5.18126C38.4845 5.19289 38.7546 5.2267 39.016 5.30523C39.5824 5.47537 39.831 5.90726 39.9335 6.45112C39.9659 6.62344 39.975 6.79794 39.9746 6.9739C39.9721 7.86967 39.9724 8.76545 39.9735 9.66122C39.9736 9.72905 39.9729 9.79689 39.9723 9.8647C39.9697 10.1345 39.967 10.404 40.0106 10.6719C40.0299 10.7897 40.0008 10.8318 39.8732 10.8282C39.6009 10.8184 39.3275 10.8184 39.0556 10.8286C38.936 10.8322 38.8822 10.7813 38.8356 10.6835C38.7773 10.5611 38.738 10.4325 38.696 10.2948C38.6862 10.2627 38.6762 10.2302 38.6659 10.1971Z" fill="#008447"/>
<path d="M38.6099 8.75854C38.6099 8.71272 38.6086 8.66669 38.6073 8.62064C38.6045 8.51725 38.6016 8.41372 38.6132 8.31211C38.631 8.15942 38.5633 8.1227 38.4321 8.12524C38.3225 8.12746 38.2127 8.12617 38.103 8.12489C38.0508 8.12427 37.9986 8.12366 37.9464 8.12343C37.0837 8.12052 36.6918 8.48952 36.8107 9.22388C36.8144 9.2464 36.8151 9.26949 36.8158 9.29257C36.8164 9.31493 36.8171 9.33729 36.8205 9.35911C36.8889 9.81936 37.2044 10.0309 37.6545 9.91825C37.8955 9.8579 38.1075 9.73538 38.314 9.59978C38.5223 9.46345 38.667 9.30422 38.6117 9.03011C38.6003 8.97079 38.6036 8.90846 38.6068 8.84618C38.6084 8.81684 38.6099 8.78752 38.6099 8.75854ZM38.6659 10.1971C38.3339 10.4937 37.9857 10.7348 37.5629 10.8478C37.2266 10.938 36.8849 10.9747 36.5431 10.902C36.0076 10.7889 35.651 10.4741 35.5198 9.93242C35.4114 9.48563 35.3769 9.03774 35.5194 8.58949C35.7277 7.92893 36.2494 7.649 36.863 7.48322C37.3807 7.34326 37.9111 7.30909 38.4434 7.29563C38.5717 7.29236 38.6241 7.25964 38.6037 7.1324C38.6014 7.11901 38.602 7.10544 38.6025 7.09182C38.6027 7.08584 38.603 7.07986 38.603 7.07387C38.6041 6.41804 38.2983 6.13011 37.6392 6.18064C37.1321 6.21954 36.6395 6.32933 36.1759 6.54492C36.0629 6.59799 36.0273 6.57618 35.9862 6.46312C35.9415 6.3422 35.8872 6.22482 35.8328 6.10744C35.8001 6.03673 35.7674 5.96602 35.7368 5.89453C35.675 5.74984 35.683 5.64696 35.868 5.58661C36.6304 5.33831 37.3993 5.14563 38.2107 5.18126C38.4845 5.19289 38.7546 5.2267 39.016 5.30523C39.5824 5.47537 39.831 5.90726 39.9335 6.45112C39.9659 6.62344 39.975 6.79794 39.9746 6.9739C39.9721 7.86967 39.9724 8.76545 39.9735 9.66122C39.9736 9.72905 39.9729 9.79689 39.9723 9.8647C39.9697 10.1345 39.967 10.404 40.0106 10.6719C40.0299 10.7897 40.0008 10.8318 39.8732 10.8282C39.6009 10.8184 39.3275 10.8184 39.0556 10.8286C38.936 10.8322 38.8822 10.7813 38.8356 10.6835C38.7773 10.5611 38.738 10.4325 38.696 10.2948C38.6862 10.2627 38.6762 10.2302 38.6659 10.1971Z" stroke="white"/>
<path d="M13.3588 4.92576C13.2406 5.04732 13.1252 5.16501 13.0121 5.28037C12.7701 5.52725 12.5386 5.76345 12.3121 6.00404C12.0457 6.28648 11.7801 6.5698 11.5146 6.85314C10.6042 7.82431 9.69378 8.79564 8.74759 9.73255C8.40658 10.071 8.04922 10.392 7.6435 10.653C7.47954 10.7585 7.30977 10.8519 7.12218 10.9115C6.90914 10.9795 6.9026 10.9762 6.90223 10.7574C6.90054 10.3464 6.89916 9.93501 6.89779 9.52364C6.8971 9.31816 6.89641 9.11269 6.89569 8.90731C6.89569 8.88668 6.8966 8.86598 6.89751 8.84532C6.89948 8.80078 6.90144 8.75638 6.89423 8.71317C6.81789 8.25656 6.96731 7.91556 7.31267 7.58873C7.57048 7.34509 7.81546 7.08809 8.06052 6.83103C8.45098 6.42144 8.84162 6.01166 9.28454 5.6554C9.45105 5.52125 9.62627 5.39764 9.80514 5.28058C10.1818 5.03446 10.5824 4.8985 11.0492 4.91813C11.5351 4.93902 12.0222 4.93438 12.5093 4.92973C12.7171 4.92775 12.9249 4.92576 13.1327 4.92576H13.3588Z" fill="#EA2127"/>
<path d="M13.3588 4.92576C13.2406 5.04732 13.1252 5.16501 13.0121 5.28037C12.7701 5.52725 12.5386 5.76345 12.3121 6.00404C12.0457 6.28648 11.7801 6.5698 11.5146 6.85314C10.6042 7.82431 9.69378 8.79564 8.74759 9.73255C8.40658 10.071 8.04922 10.392 7.6435 10.653C7.47954 10.7585 7.30977 10.8519 7.12218 10.9115C6.90914 10.9795 6.9026 10.9762 6.90223 10.7574C6.90054 10.3464 6.89916 9.93501 6.89779 9.52364C6.8971 9.31816 6.89641 9.11269 6.89569 8.90731C6.89569 8.88668 6.8966 8.86598 6.89751 8.84532C6.89948 8.80078 6.90144 8.75638 6.89423 8.71317C6.81789 8.25656 6.96731 7.91556 7.31267 7.58873C7.57048 7.34509 7.81546 7.08809 8.06052 6.83103C8.45098 6.42144 8.84162 6.01166 9.28454 5.6554C9.45105 5.52125 9.62627 5.39764 9.80514 5.28058C10.1818 5.03446 10.5824 4.8985 11.0492 4.91813C11.5351 4.93902 12.0222 4.93438 12.5093 4.92973C12.7171 4.92775 12.9249 4.92576 13.1327 4.92576H13.3588Z" stroke="white"/>
<path d="M3.66521 0.00756836C3.79187 0.140598 3.91422 0.268908 4.03396 0.394474C4.20774 0.576712 4.37601 0.753169 4.5439 0.929881C4.76401 1.16125 4.98402 1.39281 5.20406 1.62441C5.57386 2.01365 5.94375 2.40298 6.31436 2.79159C6.38271 2.86321 6.43724 2.92938 6.43688 3.04135C6.43393 4.19678 6.43409 5.35221 6.43426 6.50764C6.4343 6.77403 6.43433 7.04043 6.43433 7.30682C6.43433 7.31744 6.43261 7.32807 6.42981 7.34533C6.42763 7.35879 6.4248 7.37629 6.42161 7.40098C6.34806 7.32402 6.27626 7.24922 6.20573 7.17573C6.06568 7.02984 5.93062 6.88912 5.79668 6.74696C5.66148 6.60358 5.52558 6.46086 5.38968 6.31814C5.0246 5.93473 4.65952 5.55133 4.30796 5.155C3.88407 4.67694 3.66558 4.1189 3.65903 3.48815C3.65042 2.68164 3.6523 1.87514 3.65418 1.06877C3.65492 0.751974 3.65566 0.435197 3.65576 0.11845C3.65597 0.105007 3.65732 0.091439 3.65949 0.0694397C3.66102 0.0539571 3.66296 0.0342984 3.66521 0.00756836Z" fill="#EA2128"/>
<path d="M3.66521 0.00756836C3.79187 0.140598 3.91422 0.268908 4.03396 0.394474C4.20774 0.576712 4.37601 0.753169 4.5439 0.929881C4.76401 1.16125 4.98402 1.39281 5.20406 1.62441C5.57386 2.01365 5.94375 2.40298 6.31436 2.79159C6.38271 2.86321 6.43724 2.92938 6.43688 3.04135C6.43393 4.19678 6.43409 5.35221 6.43426 6.50764C6.4343 6.77403 6.43433 7.04043 6.43433 7.30682C6.43433 7.31744 6.43261 7.32807 6.42981 7.34533C6.42763 7.35879 6.4248 7.37629 6.42161 7.40098C6.34806 7.32402 6.27626 7.24922 6.20573 7.17573C6.06568 7.02984 5.93062 6.88912 5.79668 6.74696C5.66148 6.60358 5.52558 6.46086 5.38968 6.31814C5.0246 5.93473 4.65952 5.55133 4.30796 5.155C3.88407 4.67694 3.66558 4.1189 3.65903 3.48815C3.65042 2.68164 3.6523 1.87514 3.65418 1.06877C3.65492 0.751974 3.65566 0.435197 3.65576 0.11845C3.65597 0.105007 3.65732 0.091439 3.65949 0.0694397C3.66102 0.0539571 3.66296 0.0342984 3.66521 0.00756836Z" stroke="white"/>
<path d="M47.9366 7.47389C47.9366 7.73473 47.9365 7.99558 47.9364 8.25642C47.9363 8.51726 47.9363 8.77811 47.9363 9.03895C47.9355 9.19657 47.9344 9.35416 47.9333 9.51172C47.9305 9.89927 47.9277 10.2866 47.9308 10.6738C47.9323 10.8025 47.8959 10.837 47.769 10.8341C47.4128 10.8258 47.055 10.8203 46.6987 10.8356C46.5315 10.8432 46.5162 10.7756 46.5166 10.6375C46.5185 9.27262 46.5188 7.90801 46.5191 6.54337C46.5194 5.4937 46.5197 4.44402 46.5206 3.39419C46.5206 3.3502 46.5149 3.30215 46.5092 3.25387C46.4949 3.13377 46.4805 3.01227 46.5533 2.94848C46.6146 2.89526 46.732 2.9052 46.8479 2.91502C46.8951 2.91901 46.9421 2.92299 46.9849 2.92267C47.0764 2.92203 47.1679 2.92283 47.2594 2.92363C47.4279 2.92511 47.5963 2.92658 47.7643 2.91904C47.9057 2.91176 47.9315 2.96157 47.9312 3.09317C47.9271 4.27769 47.9279 5.4622 47.9286 6.64716C47.9288 6.84493 47.9289 7.0427 47.929 7.24049C47.9285 7.29561 47.9311 7.35072 47.9336 7.40584C47.9347 7.42852 47.9358 7.45121 47.9366 7.47389Z" fill="#008346"/>
<path d="M47.9366 7.47389C47.9366 7.73473 47.9365 7.99558 47.9364 8.25642C47.9363 8.51726 47.9363 8.77811 47.9363 9.03895C47.9355 9.19657 47.9344 9.35416 47.9333 9.51172C47.9305 9.89927 47.9277 10.2866 47.9308 10.6738C47.9323 10.8025 47.8959 10.837 47.769 10.8341C47.4128 10.8258 47.055 10.8203 46.6987 10.8356C46.5315 10.8432 46.5162 10.7756 46.5166 10.6375C46.5185 9.27262 46.5188 7.90801 46.5191 6.54337C46.5194 5.4937 46.5197 4.44402 46.5206 3.39419C46.5206 3.3502 46.5149 3.30215 46.5092 3.25387C46.4949 3.13377 46.4805 3.01227 46.5533 2.94848C46.6146 2.89526 46.732 2.9052 46.8479 2.91502C46.8951 2.91901 46.9421 2.92299 46.9849 2.92267C47.0764 2.92203 47.1679 2.92283 47.2594 2.92363C47.4279 2.92511 47.5963 2.92658 47.7643 2.91904C47.9057 2.91176 47.9315 2.96157 47.9312 3.09317C47.9271 4.27769 47.9279 5.4622 47.9286 6.64716C47.9288 6.84493 47.9289 7.0427 47.929 7.24049C47.9285 7.29561 47.9311 7.35072 47.9336 7.40584C47.9347 7.42852 47.9358 7.45121 47.9366 7.47389Z" stroke="white"/>
<path d="M48.6579 8.64922C48.9179 8.32021 49.2094 8.02174 49.5344 7.75708C50.2023 8.77101 50.8705 9.78493 51.5557 10.8247C51.4031 10.8247 51.253 10.8245 51.1047 10.8244C50.7261 10.824 50.3597 10.8237 49.994 10.8258C49.9082 10.8266 49.8818 10.7712 49.8562 10.7173C49.85 10.7042 49.8438 10.6913 49.8369 10.6793C49.6932 10.428 49.5432 10.1802 49.3933 9.93257C49.1378 9.51055 48.8824 9.08862 48.6579 8.64922Z" fill="#008447"/>
<path d="M48.6579 8.64922C48.9179 8.32021 49.2094 8.02174 49.5344 7.75708C50.2023 8.77101 50.8705 9.78493 51.5557 10.8247C51.4031 10.8247 51.253 10.8245 51.1047 10.8244C50.7261 10.824 50.3597 10.8237 49.994 10.8258C49.9082 10.8266 49.8818 10.7712 49.8562 10.7173C49.85 10.7042 49.8438 10.6913 49.8369 10.6793C49.6932 10.428 49.5432 10.1802 49.3933 9.93257C49.1378 9.51055 48.8824 9.08862 48.6579 8.64922Z" stroke="white"/>
<path d="M24.818 12.5435C24.818 12.695 24.8178 12.8423 24.8176 12.9866C24.8169 13.3935 24.8162 13.7759 24.8213 14.1584C24.8231 14.2875 24.7984 14.3373 24.6548 14.3384C24.5105 14.3384 24.5032 14.2747 24.5036 14.1639C24.5052 13.8645 24.5053 13.5653 24.5054 13.2662C24.5055 12.9102 24.5055 12.5544 24.5083 12.1985C24.5085 12.1823 24.5049 12.1629 24.5012 12.1427C24.4901 12.0818 24.4776 12.014 24.5628 12.0069C24.5833 12.0053 24.6045 12.0019 24.6262 11.9986C24.7205 11.9839 24.8218 11.9681 24.8969 12.0807C25.0713 12.3425 25.2504 12.6002 25.4296 12.8581C25.4906 12.9458 25.5516 13.0336 25.6124 13.1216C25.7545 13.327 25.8978 13.5324 26.081 13.7276V13.0027C26.081 12.921 26.0815 12.8394 26.082 12.7578C26.0831 12.5539 26.0843 12.3502 26.0781 12.1469C26.0737 12.0226 26.1166 11.9942 26.2337 11.9953C26.3515 11.996 26.4042 12.016 26.402 12.1527C26.3981 12.5092 26.3981 12.8656 26.3981 13.2221C26.3981 13.5207 26.3982 13.8194 26.3958 14.1181C26.3957 14.135 26.3992 14.1549 26.4028 14.1756C26.4142 14.2414 26.4269 14.3149 26.33 14.326C26.3171 14.3274 26.3041 14.3291 26.2911 14.3307C26.1844 14.3444 26.0736 14.3586 25.9865 14.2268C25.7437 13.8596 25.4923 13.4981 25.241 13.1366C25.1483 13.0034 25.0557 12.8701 24.9635 12.7366C24.9405 12.7039 24.9163 12.6723 24.8835 12.6295C24.8649 12.6052 24.8435 12.5773 24.818 12.5435Z" fill="#ED2830"/>
<path d="M24.818 12.5435C24.818 12.695 24.8178 12.8423 24.8176 12.9866C24.8169 13.3935 24.8162 13.7759 24.8213 14.1584C24.8231 14.2875 24.7984 14.3373 24.6548 14.3384C24.5105 14.3384 24.5032 14.2747 24.5036 14.1639C24.5052 13.8645 24.5053 13.5653 24.5054 13.2662C24.5055 12.9102 24.5055 12.5544 24.5083 12.1985C24.5085 12.1823 24.5049 12.1629 24.5012 12.1427C24.4901 12.0818 24.4776 12.014 24.5628 12.0069C24.5833 12.0053 24.6045 12.0019 24.6262 11.9986C24.7205 11.9839 24.8218 11.9681 24.8969 12.0807C25.0713 12.3425 25.2504 12.6002 25.4296 12.8581C25.4906 12.9458 25.5516 13.0336 25.6124 13.1216C25.7545 13.327 25.8978 13.5324 26.081 13.7276V13.0027C26.081 12.921 26.0815 12.8394 26.082 12.7578C26.0831 12.5539 26.0843 12.3502 26.0781 12.1469C26.0737 12.0226 26.1166 11.9942 26.2337 11.9953C26.3515 11.996 26.4042 12.016 26.402 12.1527C26.3981 12.5092 26.3981 12.8656 26.3981 13.2221C26.3981 13.5207 26.3982 13.8194 26.3958 14.1181C26.3957 14.135 26.3992 14.1549 26.4028 14.1756C26.4142 14.2414 26.4269 14.3149 26.33 14.326C26.3171 14.3274 26.3041 14.3291 26.2911 14.3307C26.1844 14.3444 26.0736 14.3586 25.9865 14.2268C25.7437 13.8596 25.4923 13.4981 25.241 13.1366C25.1483 13.0034 25.0557 12.8701 24.9635 12.7366C24.9405 12.7039 24.9163 12.6723 24.8835 12.6295C24.8649 12.6052 24.8435 12.5773 24.818 12.5435Z" stroke="white"/>
<path d="M1.61341 13.7275C1.61341 13.5861 1.61373 13.4447 1.61406 13.3033C1.61492 12.9262 1.61579 12.5491 1.6105 12.1726C1.60905 12.0421 1.63704 11.9952 1.77918 11.9938C1.92169 11.992 1.93406 12.0509 1.93369 12.1654C1.93174 12.4857 1.93161 12.8057 1.93147 13.1258C1.93134 13.4611 1.9312 13.7964 1.92897 14.1321C1.92888 14.1475 1.93162 14.1655 1.93446 14.1843C1.94388 14.2463 1.95452 14.3164 1.86825 14.3248C1.85051 14.3266 1.83225 14.3293 1.81372 14.3321C1.71571 14.3468 1.61017 14.3625 1.53343 14.2467C1.40813 14.0564 1.27797 13.8696 1.14763 13.6825C1.09268 13.6036 1.03769 13.5247 0.983022 13.4454C0.785618 13.1589 0.587486 12.8721 0.351182 12.5929L0.351182 13.2207C0.351182 13.3116 0.350648 13.4025 0.350113 13.4934C0.348778 13.7206 0.347443 13.9477 0.354454 14.1747C0.358089 14.3045 0.315918 14.3339 0.190858 14.3372C0.0519842 14.3408 0.0348981 14.2841 0.0359887 14.1663C0.0380827 13.8519 0.0381665 13.5374 0.0382502 13.2229C0.0383409 12.8822 0.0384317 12.5415 0.0410783 12.2006C0.0411678 12.1846 0.0377986 12.1654 0.0342897 12.1454C0.0235441 12.0841 0.0114873 12.0154 0.0934291 12.008C0.111914 12.0061 0.13087 12.0033 0.150075 12.0004C0.250226 11.9853 0.357161 11.9692 0.439523 12.0948C0.63104 12.3873 0.831218 12.6742 1.03152 12.9612C1.10954 13.073 1.18758 13.1849 1.26513 13.2971C1.32978 13.3906 1.39502 13.484 1.46028 13.5774C1.49778 13.631 1.53528 13.6847 1.57269 13.7384C1.57643 13.7374 1.58015 13.7365 1.58384 13.7355C1.59379 13.733 1.6036 13.7304 1.61341 13.7275Z" fill="#ED2830"/>
<path d="M1.61341 13.7275C1.61341 13.5861 1.61373 13.4447 1.61406 13.3033C1.61492 12.9262 1.61579 12.5491 1.6105 12.1726C1.60905 12.0421 1.63704 11.9952 1.77918 11.9938C1.92169 11.992 1.93406 12.0509 1.93369 12.1654C1.93174 12.4857 1.93161 12.8057 1.93147 13.1258C1.93134 13.4611 1.9312 13.7964 1.92897 14.1321C1.92888 14.1475 1.93162 14.1655 1.93446 14.1843C1.94388 14.2463 1.95452 14.3164 1.86825 14.3248C1.85051 14.3266 1.83225 14.3293 1.81372 14.3321C1.71571 14.3468 1.61017 14.3625 1.53343 14.2467C1.40813 14.0564 1.27797 13.8696 1.14763 13.6825C1.09268 13.6036 1.03769 13.5247 0.983022 13.4454C0.785618 13.1589 0.587486 12.8721 0.351182 12.5929L0.351182 13.2207C0.351182 13.3116 0.350648 13.4025 0.350113 13.4934C0.348778 13.7206 0.347443 13.9477 0.354454 14.1747C0.358089 14.3045 0.315918 14.3339 0.190858 14.3372C0.0519842 14.3408 0.0348981 14.2841 0.0359887 14.1663C0.0380827 13.8519 0.0381665 13.5374 0.0382502 13.2229C0.0383409 12.8822 0.0384317 12.5415 0.0410783 12.2006C0.0411678 12.1846 0.0377986 12.1654 0.0342897 12.1454C0.0235441 12.0841 0.0114873 12.0154 0.0934291 12.008C0.111914 12.0061 0.13087 12.0033 0.150075 12.0004C0.250226 11.9853 0.357161 11.9692 0.439523 12.0948C0.63104 12.3873 0.831218 12.6742 1.03152 12.9612C1.10954 13.073 1.18758 13.1849 1.26513 13.2971C1.32978 13.3906 1.39502 13.484 1.46028 13.5774C1.49778 13.631 1.53528 13.6847 1.57269 13.7384C1.57643 13.7374 1.58015 13.7365 1.58384 13.7355C1.59379 13.733 1.6036 13.7304 1.61341 13.7275Z" stroke="white"/>
<path d="M8.96495 13.1676C8.96495 13.0742 8.96533 12.9808 8.96571 12.8873C8.96667 12.65 8.96763 12.4123 8.96241 12.1747C8.9595 12.05 8.97659 11.9889 9.12601 11.9926C9.26088 11.9951 9.30669 12.0293 9.29942 12.1667C9.29336 12.2816 9.29459 12.3968 9.29583 12.5122C9.29681 12.6046 9.2978 12.697 9.29505 12.7895C9.29142 12.8989 9.31251 12.9549 9.4412 12.9513C9.75894 12.9436 10.0774 12.9447 10.3951 12.9505C10.5006 12.9523 10.5271 12.9127 10.5246 12.8146C10.5223 12.7196 10.5232 12.6246 10.5242 12.5296C10.5255 12.3975 10.5269 12.2654 10.5195 12.1336C10.5123 11.9929 10.5856 11.994 10.6823 11.9954C10.6838 11.9954 10.6852 11.9955 10.6867 11.9955C10.694 11.9956 10.7012 11.9957 10.7083 11.9958C10.7936 11.9965 10.8589 11.9971 10.8576 12.1304C10.8507 12.8182 10.8514 13.506 10.8576 14.1938C10.859 14.3309 10.7921 14.336 10.69 14.3345C10.6854 14.3345 10.6808 14.3344 10.6763 14.3343C10.5844 14.3329 10.5147 14.3319 10.5202 14.1964C10.5258 14.0503 10.5248 13.9038 10.5238 13.7573C10.523 13.6377 10.5221 13.5181 10.5249 13.3988C10.5275 13.2901 10.5126 13.2345 10.381 13.2388C10.0632 13.2486 9.74512 13.2454 9.42702 13.2399C9.3245 13.2381 9.29251 13.2726 9.29505 13.3737C9.29806 13.5131 9.29753 13.6528 9.297 13.7925C9.29656 13.906 9.29613 14.0195 9.2976 14.1328C9.29767 14.1386 9.29777 14.1444 9.29787 14.1502C9.29968 14.2575 9.30109 14.3406 9.13509 14.3393C8.97259 14.3382 8.95987 14.2713 8.96277 14.1419C8.96769 13.9108 8.96672 13.6801 8.96574 13.4492C8.96535 13.3554 8.96495 13.2615 8.96495 13.1676Z" fill="#ED3036"/>
<path d="M8.96495 13.1676C8.96495 13.0742 8.96533 12.9808 8.96571 12.8873C8.96667 12.65 8.96763 12.4123 8.96241 12.1747C8.9595 12.05 8.97659 11.9889 9.12601 11.9926C9.26088 11.9951 9.30669 12.0293 9.29942 12.1667C9.29336 12.2816 9.29459 12.3968 9.29583 12.5122C9.29681 12.6046 9.2978 12.697 9.29505 12.7895C9.29142 12.8989 9.31251 12.9549 9.4412 12.9513C9.75894 12.9436 10.0774 12.9447 10.3951 12.9505C10.5006 12.9523 10.5271 12.9127 10.5246 12.8146C10.5223 12.7196 10.5232 12.6246 10.5242 12.5296C10.5255 12.3975 10.5269 12.2654 10.5195 12.1336C10.5123 11.9929 10.5856 11.994 10.6823 11.9954C10.6838 11.9954 10.6852 11.9955 10.6867 11.9955C10.694 11.9956 10.7012 11.9957 10.7083 11.9958C10.7936 11.9965 10.8589 11.9971 10.8576 12.1304C10.8507 12.8182 10.8514 13.506 10.8576 14.1938C10.859 14.3309 10.7921 14.336 10.69 14.3345C10.6854 14.3345 10.6808 14.3344 10.6763 14.3343C10.5844 14.3329 10.5147 14.3319 10.5202 14.1964C10.5258 14.0503 10.5248 13.9038 10.5238 13.7573C10.523 13.6377 10.5221 13.5181 10.5249 13.3988C10.5275 13.2901 10.5126 13.2345 10.381 13.2388C10.0632 13.2486 9.74512 13.2454 9.42702 13.2399C9.3245 13.2381 9.29251 13.2726 9.29505 13.3737C9.29806 13.5131 9.29753 13.6528 9.297 13.7925C9.29656 13.906 9.29613 14.0195 9.2976 14.1328C9.29767 14.1386 9.29777 14.1444 9.29787 14.1502C9.29968 14.2575 9.30109 14.3406 9.13509 14.3393C8.97259 14.3382 8.95987 14.2713 8.96277 14.1419C8.96769 13.9108 8.96672 13.6801 8.96574 13.4492C8.96535 13.3554 8.96495 13.2615 8.96495 13.1676Z" stroke="white"/>
<path d="M29.013 12.8412C29.2744 12.5937 29.5696 12.4933 29.8066 12.6747C30.0051 12.8268 30.1022 12.7729 30.2604 12.6851C30.272 12.6787 30.284 12.672 30.2963 12.6653C30.6929 12.449 31.0903 12.6955 31.0969 13.1404C31.0995 13.3131 31.099 13.4858 31.0984 13.6586C31.0978 13.836 31.0972 14.0135 31.1001 14.1911C31.1023 14.2994 31.0718 14.3394 30.9583 14.3361C30.8551 14.3325 30.7875 14.33 30.7922 14.1933C30.8004 13.9241 30.7979 13.6538 30.7955 13.3841C30.7951 13.3427 30.7947 13.3014 30.7944 13.26C30.7922 12.9856 30.706 12.8685 30.5065 12.8587C30.2756 12.8481 30.0906 13.0168 30.0818 13.2709C30.0713 13.5687 30.0713 13.8679 30.0818 14.1653C30.0866 14.3041 30.0444 14.3423 29.9084 14.3376C29.7939 14.3336 29.7666 14.2943 29.7692 14.1882C29.7739 13.8704 29.7735 13.5527 29.7692 13.235C29.7655 12.9856 29.6776 12.8729 29.494 12.8598C29.2864 12.8452 29.1003 12.9885 29.0694 13.2048C29.0383 13.4221 29.0426 13.641 29.0469 13.8597C29.0488 13.9589 29.0507 14.058 29.0494 14.1569C29.0493 14.1617 29.0492 14.1665 29.0492 14.1712C29.0482 14.2685 29.0474 14.3384 28.9021 14.3394C28.7469 14.3398 28.7418 14.2689 28.7429 14.1504C28.7459 13.8695 28.7457 13.5883 28.7455 13.307C28.7454 13.1407 28.7453 12.9744 28.7458 12.8082C28.7458 12.7967 28.7452 12.7849 28.7446 12.7733C28.7411 12.7044 28.7376 12.6375 28.8589 12.6369C28.9817 12.6355 29.0472 12.6646 29.013 12.8412Z" fill="#ED2830"/>
<path d="M29.013 12.8412C29.2744 12.5937 29.5696 12.4933 29.8066 12.6747C30.0051 12.8268 30.1022 12.7729 30.2604 12.6851C30.272 12.6787 30.284 12.672 30.2963 12.6653C30.6929 12.449 31.0903 12.6955 31.0969 13.1404C31.0995 13.3131 31.099 13.4858 31.0984 13.6586C31.0978 13.836 31.0972 14.0135 31.1001 14.1911C31.1023 14.2994 31.0718 14.3394 30.9583 14.3361C30.8551 14.3325 30.7875 14.33 30.7922 14.1933C30.8004 13.9241 30.7979 13.6538 30.7955 13.3841C30.7951 13.3427 30.7947 13.3014 30.7944 13.26C30.7922 12.9856 30.706 12.8685 30.5065 12.8587C30.2756 12.8481 30.0906 13.0168 30.0818 13.2709C30.0713 13.5687 30.0713 13.8679 30.0818 14.1653C30.0866 14.3041 30.0444 14.3423 29.9084 14.3376C29.7939 14.3336 29.7666 14.2943 29.7692 14.1882C29.7739 13.8704 29.7735 13.5527 29.7692 13.235C29.7655 12.9856 29.6776 12.8729 29.494 12.8598C29.2864 12.8452 29.1003 12.9885 29.0694 13.2048C29.0383 13.4221 29.0426 13.641 29.0469 13.8597C29.0488 13.9589 29.0507 14.058 29.0494 14.1569C29.0493 14.1617 29.0492 14.1665 29.0492 14.1712C29.0482 14.2685 29.0474 14.3384 28.9021 14.3394C28.7469 14.3398 28.7418 14.2689 28.7429 14.1504C28.7459 13.8695 28.7457 13.5883 28.7455 13.307C28.7454 13.1407 28.7453 12.9744 28.7458 12.8082C28.7458 12.7967 28.7452 12.7849 28.7446 12.7733C28.7411 12.7044 28.7376 12.6375 28.8589 12.6369C28.9817 12.6355 29.0472 12.6646 29.013 12.8412Z" stroke="white"/>
<path d="M46.3574 13.4777C46.357 13.6085 46.3723 13.7362 46.433 13.855C46.5922 14.1662 47.0143 14.2157 47.2288 13.9485C47.4098 13.7234 47.4127 13.261 47.2357 13.0327C47.1473 12.9185 47.0328 12.8556 46.887 12.8506C46.5613 12.8393 46.3595 13.077 46.3574 13.4777ZM47.6767 13.2479C47.777 13.1956 47.8355 13.1312 47.8464 13.0327C47.8472 13.0264 47.8485 13.0196 47.85 13.0125C47.8563 12.981 47.8635 12.9457 47.8159 12.9385C47.6394 12.9127 47.6773 12.7933 47.7052 12.7049C47.7112 12.6862 47.7166 12.669 47.7196 12.6542C47.7349 12.5793 47.8006 12.5886 47.8671 12.598C47.8984 12.6025 47.9298 12.6069 47.9562 12.6026C47.9977 12.5957 48.0213 12.6226 48.0337 12.6695C48.0962 12.9098 48.0038 13.2039 47.7981 13.3432C47.7119 13.4021 47.6865 13.4613 47.6774 13.5609C47.621 14.1753 47.1801 14.4898 46.598 14.3353C46.5311 14.3167 46.4639 14.2873 46.4035 14.2517C46.0945 14.0641 45.9604 13.61 46.08 13.1723C46.1778 12.816 46.4497 12.6106 46.8391 12.6004C47.2528 12.5899 47.5225 12.7902 47.6523 13.2061C47.6546 13.2123 47.6585 13.2183 47.6636 13.2264C47.6673 13.2322 47.6717 13.2391 47.6767 13.2479Z" fill="#ED2830"/>
<path d="M46.3574 13.4777C46.357 13.6085 46.3723 13.7362 46.433 13.855C46.5922 14.1662 47.0143 14.2157 47.2288 13.9485C47.4098 13.7234 47.4127 13.261 47.2357 13.0327C47.1473 12.9185 47.0328 12.8556 46.887 12.8506C46.5613 12.8393 46.3595 13.077 46.3574 13.4777ZM47.6767 13.2479C47.777 13.1956 47.8355 13.1312 47.8464 13.0327C47.8472 13.0264 47.8485 13.0196 47.85 13.0125C47.8563 12.981 47.8635 12.9457 47.8159 12.9385C47.6394 12.9127 47.6773 12.7933 47.7052 12.7049C47.7112 12.6862 47.7166 12.669 47.7196 12.6542C47.7349 12.5793 47.8006 12.5886 47.8671 12.598C47.8984 12.6025 47.9298 12.6069 47.9562 12.6026C47.9977 12.5957 48.0213 12.6226 48.0337 12.6695C48.0962 12.9098 48.0038 13.2039 47.7981 13.3432C47.7119 13.4021 47.6865 13.4613 47.6774 13.5609C47.621 14.1753 47.1801 14.4898 46.598 14.3353C46.5311 14.3167 46.4639 14.2873 46.4035 14.2517C46.0945 14.0641 45.9604 13.61 46.08 13.1723C46.1778 12.816 46.4497 12.6106 46.8391 12.6004C47.2528 12.5899 47.5225 12.7902 47.6523 13.2061C47.6546 13.2123 47.6585 13.2183 47.6636 13.2264C47.6673 13.2322 47.6717 13.2391 47.6767 13.2479Z" stroke="white"/>
<path d="M45.0421 14.1205C44.8581 14.3088 44.6778 14.3819 44.4651 14.3706C44.1118 14.3506 43.9155 14.1546 43.9093 13.8024C43.9061 13.6377 43.9069 13.473 43.9076 13.3082C43.9083 13.1291 43.9091 12.9501 43.9049 12.7714C43.9017 12.6488 43.9558 12.6365 44.0551 12.6361C44.1619 12.6358 44.2223 12.6488 44.2183 12.7812C44.2096 13.0924 44.2121 13.4043 44.2187 13.7151C44.2245 13.9881 44.3212 14.0998 44.5429 14.107C44.7952 14.1157 44.9828 13.9772 44.9996 13.7315C45.0199 13.4283 45.0166 13.1225 45.0126 12.8183C45.0116 12.6939 45.029 12.6339 45.1777 12.6321C45.3244 12.6308 45.3232 12.704 45.3216 12.7969C45.3215 12.803 45.3214 12.8091 45.3213 12.8154C45.3188 12.9487 45.3195 13.0821 45.3202 13.2154C45.3203 13.2377 45.3205 13.2599 45.3206 13.2821C45.3207 13.2895 45.3203 13.298 45.3199 13.3068C45.3184 13.3422 45.3165 13.3834 45.3471 13.3858C45.4776 13.3948 45.5703 13.3127 45.6227 13.2069C45.6272 13.1979 45.6326 13.1884 45.6383 13.1786C45.676 13.1126 45.7234 13.0297 45.583 12.9775C45.4646 12.9341 45.4898 12.83 45.5102 12.7459C45.5144 12.7286 45.5184 12.7121 45.5209 12.6972C45.5346 12.6177 45.5998 12.6269 45.6635 12.6359C45.6892 12.6395 45.7147 12.6432 45.7365 12.6408C45.8424 12.6282 45.8416 12.694 45.8407 12.7588C45.8405 12.7725 45.8403 12.7861 45.8412 12.799C45.8641 13.1444 45.7994 13.4381 45.4005 13.5297C45.3271 13.5464 45.3191 13.5992 45.3198 13.6624L45.3198 13.6628C45.3217 13.8251 45.3235 13.9872 45.3184 14.1488C45.3179 14.1644 45.3195 14.181 45.3211 14.1977C45.3274 14.265 45.3339 14.3334 45.205 14.3371C45.0628 14.3408 45.0265 14.2793 45.0421 14.1205Z" fill="#ED2D31"/>
<path d="M45.0421 14.1205C44.8581 14.3088 44.6778 14.3819 44.4651 14.3706C44.1118 14.3506 43.9155 14.1546 43.9093 13.8024C43.9061 13.6377 43.9069 13.473 43.9076 13.3082C43.9083 13.1291 43.9091 12.9501 43.9049 12.7714C43.9017 12.6488 43.9558 12.6365 44.0551 12.6361C44.1619 12.6358 44.2223 12.6488 44.2183 12.7812C44.2096 13.0924 44.2121 13.4043 44.2187 13.7151C44.2245 13.9881 44.3212 14.0998 44.5429 14.107C44.7952 14.1157 44.9828 13.9772 44.9996 13.7315C45.0199 13.4283 45.0166 13.1225 45.0126 12.8183C45.0116 12.6939 45.029 12.6339 45.1777 12.6321C45.3244 12.6308 45.3232 12.704 45.3216 12.7969C45.3215 12.803 45.3214 12.8091 45.3213 12.8154C45.3188 12.9487 45.3195 13.0821 45.3202 13.2154C45.3203 13.2377 45.3205 13.2599 45.3206 13.2821C45.3207 13.2895 45.3203 13.298 45.3199 13.3068C45.3184 13.3422 45.3165 13.3834 45.3471 13.3858C45.4776 13.3948 45.5703 13.3127 45.6227 13.2069C45.6272 13.1979 45.6326 13.1884 45.6383 13.1786C45.676 13.1126 45.7234 13.0297 45.583 12.9775C45.4646 12.9341 45.4898 12.83 45.5102 12.7459C45.5144 12.7286 45.5184 12.7121 45.5209 12.6972C45.5346 12.6177 45.5998 12.6269 45.6635 12.6359C45.6892 12.6395 45.7147 12.6432 45.7365 12.6408C45.8424 12.6282 45.8416 12.694 45.8407 12.7588C45.8405 12.7725 45.8403 12.7861 45.8412 12.799C45.8641 13.1444 45.7994 13.4381 45.4005 13.5297C45.3271 13.5464 45.3191 13.5992 45.3198 13.6624L45.3198 13.6628C45.3217 13.8251 45.3235 13.9872 45.3184 14.1488C45.3179 14.1644 45.3195 14.181 45.3211 14.1977C45.3274 14.265 45.3339 14.3334 45.205 14.3371C45.0628 14.3408 45.0265 14.2793 45.0421 14.1205Z" stroke="white"/>
<path d="M5.35972 13.5111C5.2898 13.5246 5.21976 13.5376 5.14973 13.5506C4.99912 13.5785 4.84855 13.6065 4.69916 13.6395C4.58138 13.6649 4.50576 13.7453 4.5054 13.8721C4.50503 14.0074 4.58429 14.0801 4.71007 14.1168C5.1027 14.2295 5.41498 13.943 5.35972 13.5111ZM5.76326 14.3146C5.46733 14.3538 5.46733 14.3538 5.39572 14.1484C5.14741 14.3251 4.88021 14.4207 4.57374 14.3469C4.33598 14.2906 4.19238 14.143 4.17384 13.9303C4.15385 13.7002 4.27818 13.5101 4.51339 13.4217C4.63943 13.3742 4.77174 13.3589 4.90404 13.3436C5.00375 13.3321 5.10347 13.3205 5.20049 13.2952C5.2169 13.2909 5.23526 13.289 5.25379 13.2871C5.31285 13.2812 5.37365 13.275 5.37863 13.1876C5.38554 13.08 5.35791 12.9829 5.25866 12.9171C5.03617 12.7706 4.67553 12.8477 4.55593 13.0843C4.49467 13.2057 4.41422 13.1744 4.34219 13.1465C4.32445 13.1396 4.30721 13.1329 4.29091 13.1287C4.20196 13.1062 4.23313 13.0494 4.26061 12.9992C4.26783 12.986 4.2748 12.9733 4.27927 12.9618C4.33017 12.827 4.42905 12.7353 4.56102 12.6826C4.81659 12.5808 5.08052 12.5714 5.343 12.6441C5.57349 12.7066 5.6771 12.84 5.68437 13.0803C5.69237 13.3396 5.69091 13.5995 5.68692 13.8591C5.68546 14.0161 5.71527 14.1659 5.76326 14.3146Z" fill="#ED252E"/>
<path d="M5.35972 13.5111C5.2898 13.5246 5.21976 13.5376 5.14973 13.5506C4.99912 13.5785 4.84855 13.6065 4.69916 13.6395C4.58138 13.6649 4.50576 13.7453 4.5054 13.8721C4.50503 14.0074 4.58429 14.0801 4.71007 14.1168C5.1027 14.2295 5.41498 13.943 5.35972 13.5111ZM5.76326 14.3146C5.46733 14.3538 5.46733 14.3538 5.39572 14.1484C5.14741 14.3251 4.88021 14.4207 4.57374 14.3469C4.33598 14.2906 4.19238 14.143 4.17384 13.9303C4.15385 13.7002 4.27818 13.5101 4.51339 13.4217C4.63943 13.3742 4.77174 13.3589 4.90404 13.3436C5.00375 13.3321 5.10347 13.3205 5.20049 13.2952C5.2169 13.2909 5.23526 13.289 5.25379 13.2871C5.31285 13.2812 5.37365 13.275 5.37863 13.1876C5.38554 13.08 5.35791 12.9829 5.25866 12.9171C5.03617 12.7706 4.67553 12.8477 4.55593 13.0843C4.49467 13.2057 4.41422 13.1744 4.34219 13.1465C4.32445 13.1396 4.30721 13.1329 4.29091 13.1287C4.20196 13.1062 4.23313 13.0494 4.26061 12.9992C4.26783 12.986 4.2748 12.9733 4.27927 12.9618C4.33017 12.827 4.42905 12.7353 4.56102 12.6826C4.81659 12.5808 5.08052 12.5714 5.343 12.6441C5.57349 12.7066 5.6771 12.84 5.68437 13.0803C5.69237 13.3396 5.69091 13.5995 5.68692 13.8591C5.68546 14.0161 5.71527 14.1659 5.76326 14.3146Z" stroke="white"/>
<path d="M27.4138 14.1352C27.7348 14.1403 27.9413 13.9698 27.982 13.7091C28.0074 13.5386 27.9744 13.4834 27.7937 13.5455C27.7138 13.5727 27.6286 13.5832 27.5432 13.5938C27.4926 13.6 27.442 13.6063 27.3923 13.616C27.2371 13.6469 27.0942 13.7044 27.1153 13.9007C27.1368 14.0908 27.2894 14.1199 27.4138 14.1352ZM28.0122 14.1392C27.7402 14.3388 27.4698 14.4202 27.1647 14.3435C26.9368 14.2857 26.807 14.1439 26.7856 13.932C26.763 13.7157 26.8735 13.5328 27.0859 13.4383C27.2188 13.3789 27.3604 13.3631 27.5022 13.3472C27.5985 13.3364 27.6948 13.3256 27.7886 13.3012C27.8066 13.2964 27.8269 13.2943 27.8476 13.2922C27.9166 13.2849 27.989 13.2773 27.9882 13.1696C27.9871 13.0449 27.942 12.9468 27.8173 12.8915C27.5654 12.7806 27.2978 12.8584 27.1568 13.0987C27.0922 13.2088 27.0112 13.1754 26.9394 13.1459C26.9199 13.1379 26.901 13.1301 26.8834 13.1256C26.8074 13.1059 26.8385 13.0515 26.8651 13.0049C26.8729 12.9913 26.8803 12.9783 26.8845 12.9671C26.9361 12.8257 27.0419 12.7286 27.1804 12.6766C27.4367 12.5814 27.7002 12.5705 27.9624 12.6479C28.195 12.7166 28.2852 12.8432 28.2914 13.0915C28.2958 13.265 28.2985 13.4389 28.3013 13.6128C28.3032 13.7369 28.3052 13.861 28.3077 13.985C28.3079 13.9995 28.3107 14.0147 28.3135 14.0298C28.318 14.0545 28.3226 14.079 28.3154 14.0999C28.305 14.1308 28.323 14.1655 28.3403 14.1987C28.3667 14.2498 28.3914 14.2975 28.3095 14.3228C28.1863 14.3613 28.0256 14.3719 28.0122 14.1392Z" fill="#ED252E"/>
<path d="M27.4138 14.1352C27.7348 14.1403 27.9413 13.9698 27.982 13.7091C28.0074 13.5386 27.9744 13.4834 27.7937 13.5455C27.7138 13.5727 27.6286 13.5832 27.5432 13.5938C27.4926 13.6 27.442 13.6063 27.3923 13.616C27.2371 13.6469 27.0942 13.7044 27.1153 13.9007C27.1368 14.0908 27.2894 14.1199 27.4138 14.1352ZM28.0122 14.1392C27.7402 14.3388 27.4698 14.4202 27.1647 14.3435C26.9368 14.2857 26.807 14.1439 26.7856 13.932C26.763 13.7157 26.8735 13.5328 27.0859 13.4383C27.2188 13.3789 27.3604 13.3631 27.5022 13.3472C27.5985 13.3364 27.6948 13.3256 27.7886 13.3012C27.8066 13.2964 27.8269 13.2943 27.8476 13.2922C27.9166 13.2849 27.989 13.2773 27.9882 13.1696C27.9871 13.0449 27.942 12.9468 27.8173 12.8915C27.5654 12.7806 27.2978 12.8584 27.1568 13.0987C27.0922 13.2088 27.0112 13.1754 26.9394 13.1459C26.9199 13.1379 26.901 13.1301 26.8834 13.1256C26.8074 13.1059 26.8385 13.0515 26.8651 13.0049C26.8729 12.9913 26.8803 12.9783 26.8845 12.9671C26.9361 12.8257 27.0419 12.7286 27.1804 12.6766C27.4367 12.5814 27.7002 12.5705 27.9624 12.6479C28.195 12.7166 28.2852 12.8432 28.2914 13.0915C28.2958 13.265 28.2985 13.4389 28.3013 13.6128C28.3032 13.7369 28.3052 13.861 28.3077 13.985C28.3079 13.9995 28.3107 14.0147 28.3135 14.0298C28.318 14.0545 28.3226 14.079 28.3154 14.0999C28.305 14.1308 28.323 14.1655 28.3403 14.1987C28.3667 14.2498 28.3914 14.2975 28.3095 14.3228C28.1863 14.3613 28.0256 14.3719 28.0122 14.1392Z" stroke="white"/>
<path d="M11.8777 14.1358C12.2325 14.1355 12.4477 13.9213 12.4354 13.621C12.4317 13.5407 12.4208 13.5033 12.3259 13.5247C12.2381 13.5452 12.1496 13.5607 12.061 13.5762C11.9907 13.5885 11.9204 13.6008 11.8504 13.6156C11.6319 13.661 11.5381 13.7585 11.5683 13.9137C11.6043 14.0987 11.7541 14.1238 11.8777 14.1358ZM12.8244 14.3252C12.7898 14.3242 12.7541 14.3279 12.7192 14.3316C12.5932 14.3447 12.4777 14.3567 12.4652 14.1409C12.2001 14.3314 11.9311 14.4212 11.6247 14.346C11.3942 14.2885 11.2589 14.1482 11.2382 13.9399C11.2153 13.7101 11.3251 13.532 11.5505 13.4338C11.679 13.3787 11.8153 13.3631 11.9514 13.3475C12.0406 13.3373 12.1297 13.3272 12.2165 13.3059C12.2359 13.301 12.2582 13.2995 12.281 13.298C12.354 13.293 12.4322 13.2877 12.4361 13.1713C12.4415 13.0234 12.375 12.9256 12.2325 12.878C11.9671 12.7885 11.7475 12.8612 11.6079 13.1001C11.5507 13.1987 11.4806 13.1735 11.4148 13.1498C11.3932 13.142 11.3721 13.1344 11.352 13.1313C11.264 13.117 11.2901 13.0641 11.3133 13.017C11.3195 13.0044 11.3255 12.9921 11.3291 12.9812C11.372 12.8518 11.46 12.7551 11.5836 12.7009C11.8817 12.5704 12.1881 12.5609 12.4921 12.6762C12.6517 12.7369 12.732 12.8692 12.7393 13.0401C12.7447 13.1632 12.7454 13.2865 12.7461 13.4097C12.7462 13.4357 12.7464 13.4617 12.7466 13.4876C12.747 13.5341 12.7467 13.5807 12.7465 13.6272C12.7453 13.8587 12.7441 14.091 12.8244 14.3252Z" fill="#ED252E"/>
<path d="M11.8777 14.1358C12.2325 14.1355 12.4477 13.9213 12.4354 13.621C12.4317 13.5407 12.4208 13.5033 12.3259 13.5247C12.2381 13.5452 12.1496 13.5607 12.061 13.5762C11.9907 13.5885 11.9204 13.6008 11.8504 13.6156C11.6319 13.661 11.5381 13.7585 11.5683 13.9137C11.6043 14.0987 11.7541 14.1238 11.8777 14.1358ZM12.8244 14.3252C12.7898 14.3242 12.7541 14.3279 12.7192 14.3316C12.5932 14.3447 12.4777 14.3567 12.4652 14.1409C12.2001 14.3314 11.9311 14.4212 11.6247 14.346C11.3942 14.2885 11.2589 14.1482 11.2382 13.9399C11.2153 13.7101 11.3251 13.532 11.5505 13.4338C11.679 13.3787 11.8153 13.3631 11.9514 13.3475C12.0406 13.3373 12.1297 13.3272 12.2165 13.3059C12.2359 13.301 12.2582 13.2995 12.281 13.298C12.354 13.293 12.4322 13.2877 12.4361 13.1713C12.4415 13.0234 12.375 12.9256 12.2325 12.878C11.9671 12.7885 11.7475 12.8612 11.6079 13.1001C11.5507 13.1987 11.4806 13.1735 11.4148 13.1498C11.3932 13.142 11.3721 13.1344 11.352 13.1313C11.264 13.117 11.2901 13.0641 11.3133 13.017C11.3195 13.0044 11.3255 12.9921 11.3291 12.9812C11.372 12.8518 11.46 12.7551 11.5836 12.7009C11.8817 12.5704 12.1881 12.5609 12.4921 12.6762C12.6517 12.7369 12.732 12.8692 12.7393 13.0401C12.7447 13.1632 12.7454 13.2865 12.7461 13.4097C12.7462 13.4357 12.7464 13.4617 12.7466 13.4876C12.747 13.5341 12.7467 13.5807 12.7465 13.6272C12.7453 13.8587 12.7441 14.091 12.8244 14.3252Z" stroke="white"/>
<path d="M17.6566 12.0122C17.8188 11.9954 17.8995 11.987 17.9537 12.021C18.0074 12.0547 18.0351 12.13 18.0903 12.2801C18.2589 12.7363 18.4278 13.1924 18.6022 13.6636C18.6444 13.7775 18.6869 13.8922 18.7298 14.008C18.8514 13.6915 18.9694 13.3839 19.086 13.0802C19.1649 12.8747 19.2431 12.671 19.3213 12.4673C19.3298 12.4451 19.3383 12.4229 19.3468 12.4007C19.3639 12.3564 19.3809 12.3121 19.3976 12.2678C19.4497 12.1326 19.4765 12.0629 19.5273 12.0292C19.5815 11.9932 19.6628 11.9982 19.8309 12.0086C19.8215 12.0332 19.8123 12.0576 19.8031 12.0818C19.7689 12.1717 19.7359 12.2586 19.7015 12.3448C19.639 12.4994 19.5763 12.6539 19.5136 12.8084C19.3283 13.265 19.143 13.7218 18.9621 14.18C18.9181 14.2916 18.8636 14.3385 18.7381 14.3367C18.6116 14.3356 18.5465 14.3069 18.4967 14.1782C18.3302 13.7468 18.1578 13.3182 17.9854 12.8896C17.8898 12.6522 17.7943 12.4147 17.6998 12.1769C17.6949 12.1645 17.6888 12.1522 17.6828 12.1399C17.6633 12.1002 17.6435 12.0599 17.6566 12.0122Z" fill="#ED252E"/>
<path d="M17.6566 12.0122C17.8188 11.9954 17.8995 11.987 17.9537 12.021C18.0074 12.0547 18.0351 12.13 18.0903 12.2801C18.2589 12.7363 18.4278 13.1924 18.6022 13.6636C18.6444 13.7775 18.6869 13.8922 18.7298 14.008C18.8514 13.6915 18.9694 13.3839 19.086 13.0802C19.1649 12.8747 19.2431 12.671 19.3213 12.4673C19.3298 12.4451 19.3383 12.4229 19.3468 12.4007C19.3639 12.3564 19.3809 12.3121 19.3976 12.2678C19.4497 12.1326 19.4765 12.0629 19.5273 12.0292C19.5815 11.9932 19.6628 11.9982 19.8309 12.0086C19.8215 12.0332 19.8123 12.0576 19.8031 12.0818C19.7689 12.1717 19.7359 12.2586 19.7015 12.3448C19.639 12.4994 19.5763 12.6539 19.5136 12.8084C19.3283 13.265 19.143 13.7218 18.9621 14.18C18.9181 14.2916 18.8636 14.3385 18.7381 14.3367C18.6116 14.3356 18.5465 14.3069 18.4967 14.1782C18.3302 13.7468 18.1578 13.3182 17.9854 12.8896C17.8898 12.6522 17.7943 12.4147 17.6998 12.1769C17.6949 12.1645 17.6888 12.1522 17.6828 12.1399C17.6633 12.1002 17.6435 12.0599 17.6566 12.0122Z" stroke="white"/>
<path d="M21.4538 13.3164C21.4909 13.3164 21.5281 13.316 21.5654 13.3156C21.6515 13.3146 21.7379 13.3136 21.8239 13.3179C21.9264 13.3233 21.9453 13.2841 21.9206 13.1906C21.8704 13.002 21.7141 12.8649 21.5181 12.8507C21.2873 12.834 21.107 12.9478 21.0241 13.1499C20.9703 13.2801 21.0019 13.3281 21.1426 13.3175C21.2131 13.3125 21.2842 13.3139 21.3555 13.3152C21.3883 13.3158 21.421 13.3164 21.4538 13.3164ZM21.6101 13.5578C21.5567 13.5578 21.5033 13.5583 21.4499 13.5588C21.328 13.5598 21.2063 13.5609 21.0844 13.5564C20.9812 13.5527 20.9688 13.5902 20.9874 13.6832C21.0314 13.9028 21.167 14.0624 21.3647 14.1053C21.5952 14.1551 21.7635 14.0926 21.8901 13.8759C21.9613 13.754 22.0485 13.777 22.1347 13.7997C22.1612 13.8066 22.1875 13.8136 22.2132 13.8163C22.2585 13.8213 22.2401 13.8676 22.2263 13.9025C22.2249 13.906 22.2236 13.9094 22.2223 13.9126C22.1722 14.0439 22.0904 14.15 21.9759 14.2311C21.4803 14.5826 20.7849 14.3049 20.6711 13.7098C20.534 12.9965 21.0034 12.4854 21.6705 12.6217C22.038 12.6962 22.3358 13.1325 22.2689 13.4902C22.2561 13.56 22.2151 13.559 22.1723 13.558C22.1664 13.5579 22.1606 13.5578 22.1547 13.5578C22.0335 13.5583 21.9122 13.5581 21.7912 13.558C21.7308 13.5579 21.6704 13.5578 21.6101 13.5578Z" fill="#ED252E"/>
<path d="M21.4538 13.3164C21.4909 13.3164 21.5281 13.316 21.5654 13.3156C21.6515 13.3146 21.7379 13.3136 21.8239 13.3179C21.9264 13.3233 21.9453 13.2841 21.9206 13.1906C21.8704 13.002 21.7141 12.8649 21.5181 12.8507C21.2873 12.834 21.107 12.9478 21.0241 13.1499C20.9703 13.2801 21.0019 13.3281 21.1426 13.3175C21.2131 13.3125 21.2842 13.3139 21.3555 13.3152C21.3883 13.3158 21.421 13.3164 21.4538 13.3164ZM21.6101 13.5578C21.5567 13.5578 21.5033 13.5583 21.4499 13.5588C21.328 13.5598 21.2063 13.5609 21.0844 13.5564C20.9812 13.5527 20.9688 13.5902 20.9874 13.6832C21.0314 13.9028 21.167 14.0624 21.3647 14.1053C21.5952 14.1551 21.7635 14.0926 21.8901 13.8759C21.9613 13.754 22.0485 13.777 22.1347 13.7997C22.1612 13.8066 22.1875 13.8136 22.2132 13.8163C22.2585 13.8213 22.2401 13.8676 22.2263 13.9025C22.2249 13.906 22.2236 13.9094 22.2223 13.9126C22.1722 14.0439 22.0904 14.15 21.9759 14.2311C21.4803 14.5826 20.7849 14.3049 20.6711 13.7098C20.534 12.9965 21.0034 12.4854 21.6705 12.6217C22.038 12.6962 22.3358 13.1325 22.2689 13.4902C22.2561 13.56 22.2151 13.559 22.1723 13.558C22.1664 13.5579 22.1606 13.5578 22.1547 13.5578C22.0335 13.5583 21.9122 13.5581 21.7912 13.558C21.7308 13.5579 21.6704 13.5578 21.6101 13.5578Z" stroke="white"/>
<path d="M34.7476 12.7999C34.9777 12.6137 35.2035 12.5661 35.4518 12.6232C35.6881 12.677 35.8223 12.8257 35.8466 13.0674C35.8714 13.3045 35.8689 13.5421 35.8664 13.7798C35.8649 13.9249 35.8634 14.0701 35.8681 14.2152C35.8721 14.3328 35.8086 14.333 35.7383 14.3333C35.7263 14.3334 35.714 14.3334 35.7019 14.334C35.6048 14.3395 35.5427 14.3286 35.5456 14.2035C35.5514 13.9611 35.55 13.7187 35.5487 13.4762C35.5483 13.4135 35.548 13.3508 35.5478 13.2881C35.546 12.998 35.4431 12.8686 35.2122 12.8588C34.9585 12.8482 34.7632 13.0195 34.7531 13.2834C34.7422 13.5811 34.7418 13.8811 34.7512 14.1792C34.7556 14.3177 34.6971 14.3326 34.58 14.3373C34.4441 14.3431 34.4379 14.2788 34.4382 14.1744C34.4411 13.4986 34.4426 12.8235 34.4368 12.148C34.4357 12.0299 34.4648 11.9946 34.5866 11.9946C34.7127 11.995 34.7574 12.0273 34.7505 12.1571C34.7432 12.296 34.7446 12.4354 34.7462 12.5882C34.7469 12.6557 34.7476 12.7259 34.7476 12.7999Z" fill="#ED2D31"/>
<path d="M34.7476 12.7999C34.9777 12.6137 35.2035 12.5661 35.4518 12.6232C35.6881 12.677 35.8223 12.8257 35.8466 13.0674C35.8714 13.3045 35.8689 13.5421 35.8664 13.7798C35.8649 13.9249 35.8634 14.0701 35.8681 14.2152C35.8721 14.3328 35.8086 14.333 35.7383 14.3333C35.7263 14.3334 35.714 14.3334 35.7019 14.334C35.6048 14.3395 35.5427 14.3286 35.5456 14.2035C35.5514 13.9611 35.55 13.7187 35.5487 13.4762C35.5483 13.4135 35.548 13.3508 35.5478 13.2881C35.546 12.998 35.4431 12.8686 35.2122 12.8588C34.9585 12.8482 34.7632 13.0195 34.7531 13.2834C34.7422 13.5811 34.7418 13.8811 34.7512 14.1792C34.7556 14.3177 34.6971 14.3326 34.58 14.3373C34.4441 14.3431 34.4379 14.2788 34.4382 14.1744C34.4411 13.4986 34.4426 12.8235 34.4368 12.148C34.4357 12.0299 34.4648 11.9946 34.5866 11.9946C34.7127 11.995 34.7574 12.0273 34.7505 12.1571C34.7432 12.296 34.7446 12.4354 34.7462 12.5882C34.7469 12.6557 34.7476 12.7259 34.7476 12.7999Z" stroke="white"/>
<path d="M42.5747 14.0097C42.7506 13.5517 42.9202 13.1096 43.0882 12.6714C43.14 12.5364 43.1916 12.4018 43.2432 12.2672C43.2947 12.1323 43.3213 12.0626 43.3719 12.029C43.426 11.9931 43.5075 11.9986 43.6762 12.0099C43.6456 12.0874 43.6153 12.1642 43.5852 12.2405C43.5209 12.4034 43.4575 12.5642 43.3934 12.7253C43.3314 12.8792 43.2691 13.033 43.2068 13.1869C43.0749 13.5123 42.943 13.838 42.8139 14.1646C42.7695 14.278 42.7197 14.3387 42.5791 14.3391C42.4322 14.3391 42.3827 14.2787 42.3347 14.1555C42.125 13.6198 41.91 13.0856 41.6949 12.551C41.6252 12.3777 41.5555 12.2044 41.4859 12.0309C41.8054 11.9531 41.8189 11.9608 41.9239 12.2469C42.0984 12.7218 42.2739 13.1963 42.4562 13.6893C42.4954 13.7952 42.5348 13.9019 42.5747 14.0097Z" fill="#ED252E"/>
<path d="M42.5747 14.0097C42.7506 13.5517 42.9202 13.1096 43.0882 12.6714C43.14 12.5364 43.1916 12.4018 43.2432 12.2672C43.2947 12.1323 43.3213 12.0626 43.3719 12.029C43.426 11.9931 43.5075 11.9986 43.6762 12.0099C43.6456 12.0874 43.6153 12.1642 43.5852 12.2405C43.5209 12.4034 43.4575 12.5642 43.3934 12.7253C43.3314 12.8792 43.2691 13.033 43.2068 13.1869C43.0749 13.5123 42.943 13.838 42.8139 14.1646C42.7695 14.278 42.7197 14.3387 42.5791 14.3391C42.4322 14.3391 42.3827 14.2787 42.3347 14.1555C42.125 13.6198 41.91 13.0856 41.6949 12.551C41.6252 12.3777 41.5555 12.2044 41.4859 12.0309C41.8054 11.9531 41.8189 11.9608 41.9239 12.2469C42.0984 12.7218 42.2739 13.1963 42.4562 13.6893C42.4954 13.7952 42.5348 13.9019 42.5747 14.0097Z" stroke="white"/>
<path d="M39.2014 12.8057C39.4097 12.6341 39.6078 12.5763 39.8318 12.6097C40.1324 12.6541 40.2982 12.8042 40.3131 13.102C40.3247 13.3407 40.3242 13.58 40.3237 13.8193C40.3234 13.9565 40.3231 14.0937 40.3251 14.2308C40.3275 14.3403 40.2652 14.3359 40.2044 14.3316C40.1911 14.3307 40.1779 14.3298 40.1655 14.33C40.1566 14.3303 40.1475 14.3309 40.1384 14.3314C40.0724 14.3356 40.0069 14.3397 40.0092 14.2253C40.0144 13.9586 40.0129 13.6919 40.0114 13.4249C40.0111 13.3735 40.0109 13.3221 40.0106 13.2707C40.0099 13.0078 39.911 12.8795 39.6976 12.8584C39.47 12.8355 39.2697 12.9715 39.2268 13.1994C39.1859 13.4155 39.1926 13.6339 39.1993 13.8521C39.2024 13.9518 39.2054 14.0514 39.2039 14.1508C39.2021 14.2722 39.1937 14.3362 39.0414 14.3373C38.896 14.3373 38.8966 14.2646 38.8973 14.1723C38.8974 14.1656 38.8975 14.1588 38.8975 14.1519C38.8976 14.0786 38.8977 14.0053 38.8978 13.932C38.8989 13.3431 38.8999 12.7539 38.8964 12.1659C38.8956 12.0521 38.9055 11.9906 39.0494 11.9917C39.1887 11.9928 39.2076 12.0462 39.2032 12.1626C39.1982 12.3003 39.1992 12.4378 39.2003 12.5893C39.2008 12.6581 39.2014 12.7298 39.2014 12.8057Z" fill="#ED2830"/>
<path d="M39.2014 12.8057C39.4097 12.6341 39.6078 12.5763 39.8318 12.6097C40.1324 12.6541 40.2982 12.8042 40.3131 13.102C40.3247 13.3407 40.3242 13.58 40.3237 13.8193C40.3234 13.9565 40.3231 14.0937 40.3251 14.2308C40.3275 14.3403 40.2652 14.3359 40.2044 14.3316C40.1911 14.3307 40.1779 14.3298 40.1655 14.33C40.1566 14.3303 40.1475 14.3309 40.1384 14.3314C40.0724 14.3356 40.0069 14.3397 40.0092 14.2253C40.0144 13.9586 40.0129 13.6919 40.0114 13.4249C40.0111 13.3735 40.0109 13.3221 40.0106 13.2707C40.0099 13.0078 39.911 12.8795 39.6976 12.8584C39.47 12.8355 39.2697 12.9715 39.2268 13.1994C39.1859 13.4155 39.1926 13.6339 39.1993 13.8521C39.2024 13.9518 39.2054 14.0514 39.2039 14.1508C39.2021 14.2722 39.1937 14.3362 39.0414 14.3373C38.896 14.3373 38.8966 14.2646 38.8973 14.1723C38.8974 14.1656 38.8975 14.1588 38.8975 14.1519C38.8976 14.0786 38.8977 14.0053 38.8978 13.932C38.8989 13.3431 38.8999 12.7539 38.8964 12.1659C38.8956 12.0521 38.9055 11.9906 39.0494 11.9917C39.1887 11.9928 39.2076 12.0462 39.2032 12.1626C39.1982 12.3003 39.1992 12.4378 39.2003 12.5893C39.2008 12.6581 39.2014 12.7298 39.2014 12.8057Z" stroke="white"/>
<path d="M6.41072 12.8488C6.56849 12.6815 6.71319 12.619 6.88005 12.6023C7.30286 12.5601 7.55043 12.7797 7.55298 13.2058C7.55363 13.3246 7.55301 13.4435 7.5524 13.5625C7.5513 13.774 7.5502 13.9858 7.55625 14.1975C7.56025 14.3275 7.49582 14.3303 7.40976 14.3342C7.40215 14.3345 7.39438 14.3349 7.38647 14.3353C7.27668 14.3415 7.24069 14.3062 7.24287 14.1943C7.24978 13.8827 7.2476 13.5719 7.24469 13.2607C7.24178 13.0044 7.13345 12.8753 6.9175 12.8593C6.69937 12.8426 6.50233 12.9815 6.46343 13.1949C6.42359 13.4139 6.42974 13.6344 6.43589 13.8551C6.43877 13.9586 6.44166 14.0621 6.4398 14.1655C6.43762 14.2775 6.43144 14.34 6.28675 14.3389C6.14569 14.3379 6.12933 14.2811 6.13079 14.1655C6.1333 13.9283 6.13314 13.6909 6.13299 13.4535C6.13285 13.2435 6.13272 13.0334 6.13442 12.8233C6.1345 12.8094 6.13273 12.7942 6.13092 12.7786C6.12345 12.7145 6.11531 12.6445 6.23294 12.6372C6.354 12.6296 6.4398 12.6485 6.41072 12.8488Z" fill="#ED2D31"/>
<path d="M6.41072 12.8488C6.56849 12.6815 6.71319 12.619 6.88005 12.6023C7.30286 12.5601 7.55043 12.7797 7.55298 13.2058C7.55363 13.3246 7.55301 13.4435 7.5524 13.5625C7.5513 13.774 7.5502 13.9858 7.55625 14.1975C7.56025 14.3275 7.49582 14.3303 7.40976 14.3342C7.40215 14.3345 7.39438 14.3349 7.38647 14.3353C7.27668 14.3415 7.24069 14.3062 7.24287 14.1943C7.24978 13.8827 7.2476 13.5719 7.24469 13.2607C7.24178 13.0044 7.13345 12.8753 6.9175 12.8593C6.69937 12.8426 6.50233 12.9815 6.46343 13.1949C6.42359 13.4139 6.42974 13.6344 6.43589 13.8551C6.43877 13.9586 6.44166 14.0621 6.4398 14.1655C6.43762 14.2775 6.43144 14.34 6.28675 14.3389C6.14569 14.3379 6.12933 14.2811 6.13079 14.1655C6.1333 13.9283 6.13314 13.6909 6.13299 13.4535C6.13285 13.2435 6.13272 13.0334 6.13442 12.8233C6.1345 12.8094 6.13273 12.7942 6.13092 12.7786C6.12345 12.7145 6.11531 12.6445 6.23294 12.6372C6.354 12.6296 6.4398 12.6485 6.41072 12.8488Z" stroke="white"/>
<path d="M37.3138 12.8416C37.5487 12.6118 37.7857 12.5646 38.0489 12.6228C38.2972 12.6773 38.4459 12.8452 38.4517 13.1015C38.4555 13.2824 38.4548 13.4635 38.4542 13.6446C38.4536 13.8329 38.4529 14.0213 38.4572 14.2096C38.4598 14.33 38.3996 14.3308 38.3253 14.3319C38.3161 14.332 38.3067 14.3321 38.2972 14.3325C38.1976 14.3376 38.1416 14.3212 38.1449 14.1987C38.1525 13.8875 38.1496 13.5767 38.1463 13.2651C38.1442 13.0008 38.0464 12.8783 37.8293 12.8587C37.5945 12.8376 37.3814 12.9896 37.3651 13.2259C37.3467 13.4823 37.3475 13.74 37.3484 13.9975C37.3485 14.051 37.3487 14.1045 37.3487 14.158C37.3487 14.266 37.3473 14.3394 37.1986 14.3365C37.0626 14.3351 37.0401 14.2852 37.0415 14.1664C37.0455 13.8519 37.0449 13.5375 37.0442 13.2232C37.0439 13.0836 37.0436 12.9441 37.0437 12.8045C37.0437 12.7942 37.0433 12.7839 37.043 12.7737C37.0405 12.7023 37.0382 12.6367 37.16 12.6348C37.2869 12.6329 37.3429 12.6707 37.3138 12.8416Z" fill="#ED2830"/>
<path d="M37.3138 12.8416C37.5487 12.6118 37.7857 12.5646 38.0489 12.6228C38.2972 12.6773 38.4459 12.8452 38.4517 13.1015C38.4555 13.2824 38.4548 13.4635 38.4542 13.6446C38.4536 13.8329 38.4529 14.0213 38.4572 14.2096C38.4598 14.33 38.3996 14.3308 38.3253 14.3319C38.3161 14.332 38.3067 14.3321 38.2972 14.3325C38.1976 14.3376 38.1416 14.3212 38.1449 14.1987C38.1525 13.8875 38.1496 13.5767 38.1463 13.2651C38.1442 13.0008 38.0464 12.8783 37.8293 12.8587C37.5945 12.8376 37.3814 12.9896 37.3651 13.2259C37.3467 13.4823 37.3475 13.74 37.3484 13.9975C37.3485 14.051 37.3487 14.1045 37.3487 14.158C37.3487 14.266 37.3473 14.3394 37.1986 14.3365C37.0626 14.3351 37.0401 14.2852 37.0415 14.1664C37.0455 13.8519 37.0449 13.5375 37.0442 13.2232C37.0439 13.0836 37.0436 12.9441 37.0437 12.8045C37.0437 12.7942 37.0433 12.7839 37.043 12.7737C37.0405 12.7023 37.0382 12.6367 37.16 12.6348C37.2869 12.6329 37.3429 12.6707 37.3138 12.8416Z" stroke="white"/>
<path d="M48.6157 12.8476C48.8553 12.6091 49.1 12.5619 49.3694 12.6251C49.5969 12.6782 49.742 12.8291 49.75 13.0585C49.7591 13.2954 49.7591 13.5328 49.7591 13.77C49.7592 13.9223 49.7592 14.0745 49.7616 14.2265C49.7628 14.3332 49.7045 14.3322 49.6431 14.3311C49.6296 14.3309 49.616 14.3307 49.6027 14.3316C49.5166 14.3378 49.453 14.3309 49.4552 14.2131C49.4602 13.8888 49.4592 13.5642 49.4552 13.2395C49.4533 13.0825 49.4133 12.9439 49.2414 12.8836C49.0702 12.8243 48.9204 12.8683 48.7877 12.9774C48.6779 13.0672 48.6579 13.1973 48.6568 13.3308C48.6566 13.3981 48.656 13.4655 48.6555 13.5329C48.6538 13.7509 48.6521 13.9693 48.6593 14.1873C48.6644 14.3167 48.607 14.3312 48.4983 14.3352C48.3772 14.3396 48.3452 14.3003 48.3463 14.1811C48.3518 13.8201 48.3507 13.4588 48.3496 13.0975C48.3493 12.9978 48.349 12.8982 48.3489 12.7985C48.3489 12.7907 48.3487 12.783 48.3485 12.7753C48.347 12.6997 48.3457 12.6365 48.4692 12.6335C48.603 12.6313 48.6448 12.6797 48.6157 12.8476Z" fill="#ED2830"/>
<path d="M48.6157 12.8476C48.8553 12.6091 49.1 12.5619 49.3694 12.6251C49.5969 12.6782 49.742 12.8291 49.75 13.0585C49.7591 13.2954 49.7591 13.5328 49.7591 13.77C49.7592 13.9223 49.7592 14.0745 49.7616 14.2265C49.7628 14.3332 49.7045 14.3322 49.6431 14.3311C49.6296 14.3309 49.616 14.3307 49.6027 14.3316C49.5166 14.3378 49.453 14.3309 49.4552 14.2131C49.4602 13.8888 49.4592 13.5642 49.4552 13.2395C49.4533 13.0825 49.4133 12.9439 49.2414 12.8836C49.0702 12.8243 48.9204 12.8683 48.7877 12.9774C48.6779 13.0672 48.6579 13.1973 48.6568 13.3308C48.6566 13.3981 48.656 13.4655 48.6555 13.5329C48.6538 13.7509 48.6521 13.9693 48.6593 14.1873C48.6644 14.3167 48.607 14.3312 48.4983 14.3352C48.3772 14.3396 48.3452 14.3003 48.3463 14.1811C48.3518 13.8201 48.3507 13.4588 48.3496 13.0975C48.3493 12.9978 48.349 12.8982 48.3489 12.7985C48.3489 12.7907 48.3487 12.783 48.3485 12.7753C48.347 12.6997 48.3457 12.6365 48.4692 12.6335C48.603 12.6313 48.6448 12.6797 48.6157 12.8476Z" stroke="white"/>
<path d="M13.4649 12.847C13.7009 12.6125 13.9386 12.5649 14.2015 12.622C14.4432 12.6751 14.5966 12.8347 14.6043 13.0801C14.6115 13.303 14.6109 13.5261 14.6103 13.7491C14.6099 13.9084 14.6095 14.0676 14.6119 14.2267C14.6134 14.3366 14.5538 14.3343 14.4912 14.3319C14.4791 14.3315 14.4668 14.331 14.4548 14.3314C14.4489 14.3315 14.443 14.3317 14.4371 14.3319C14.3658 14.3344 14.2987 14.3367 14.3007 14.2212C14.3065 13.9031 14.3051 13.5857 14.3018 13.268C14.2989 12.9964 14.192 12.8677 13.967 12.8576C13.7256 12.8467 13.5318 12.9964 13.5165 13.2422C13.4969 13.5519 13.4995 13.8639 13.5053 14.1743C13.5078 14.3059 13.4609 14.3339 13.3377 14.3361C13.1999 14.339 13.197 14.2714 13.1977 14.1692C13.2 13.8834 13.1998 13.5975 13.1997 13.3117C13.1996 13.1435 13.1995 12.9754 13.1999 12.8074C13.1999 12.7958 13.1992 12.7838 13.1986 12.7718C13.1947 12.7035 13.1909 12.6357 13.3122 12.6351C13.4333 12.6351 13.5035 12.6594 13.4649 12.847Z" fill="#ED2830"/>
<path d="M13.4649 12.847C13.7009 12.6125 13.9386 12.5649 14.2015 12.622C14.4432 12.6751 14.5966 12.8347 14.6043 13.0801C14.6115 13.303 14.6109 13.5261 14.6103 13.7491C14.6099 13.9084 14.6095 14.0676 14.6119 14.2267C14.6134 14.3366 14.5538 14.3343 14.4912 14.3319C14.4791 14.3315 14.4668 14.331 14.4548 14.3314C14.4489 14.3315 14.443 14.3317 14.4371 14.3319C14.3658 14.3344 14.2987 14.3367 14.3007 14.2212C14.3065 13.9031 14.3051 13.5857 14.3018 13.268C14.2989 12.9964 14.192 12.8677 13.967 12.8576C13.7256 12.8467 13.5318 12.9964 13.5165 13.2422C13.4969 13.5519 13.4995 13.8639 13.5053 14.1743C13.5078 14.3059 13.4609 14.3339 13.3377 14.3361C13.1999 14.339 13.197 14.2714 13.1977 14.1692C13.2 13.8834 13.1998 13.5975 13.1997 13.3117C13.1996 13.1435 13.1995 12.9754 13.1999 12.8074C13.1999 12.7958 13.1992 12.7838 13.1986 12.7718C13.1947 12.7035 13.1909 12.6357 13.3122 12.6351C13.4333 12.6351 13.5035 12.6594 13.4649 12.847Z" stroke="white"/>
<path d="M33.0379 13.306C33.0379 13.217 33.0375 13.1281 33.0372 13.0393C33.0363 12.8295 33.0355 12.62 33.0393 12.4106C33.0419 12.3095 33.0117 12.2739 32.9084 12.2779C32.82 12.2816 32.7316 12.2806 32.6432 12.2797C32.55 12.2787 32.4568 12.2777 32.3639 12.2822C32.2508 12.2878 32.251 12.2265 32.2513 12.1569C32.2513 12.1489 32.2513 12.1407 32.2512 12.1324C32.2511 12.1311 32.2511 12.1297 32.2511 12.1284C32.25 12.0543 32.2491 11.9969 32.3577 11.9976C32.9219 12.0023 33.4861 12.0016 34.05 11.9976C34.1518 11.9968 34.1689 12.0419 34.1638 12.1266C34.163 12.1387 34.1629 12.151 34.1628 12.163C34.1623 12.2276 34.1618 12.2864 34.054 12.2815C33.9553 12.2767 33.8563 12.2779 33.7574 12.279C33.7137 12.2795 33.6701 12.28 33.6264 12.28C33.3723 12.28 33.3723 12.28 33.3723 12.5251V12.5251C33.3722 12.6575 33.372 12.79 33.3717 12.9225C33.3708 13.3346 33.3699 13.7471 33.3749 14.1592C33.3771 14.2912 33.3447 14.337 33.2044 14.3373C33.0644 14.3377 33.0299 14.2948 33.0346 14.1618C33.0418 13.9582 33.0404 13.7549 33.039 13.5519C33.0384 13.4699 33.0379 13.3879 33.0379 13.306Z" fill="#ED252E"/>
<path d="M33.0379 13.306C33.0379 13.217 33.0375 13.1281 33.0372 13.0393C33.0363 12.8295 33.0355 12.62 33.0393 12.4106C33.0419 12.3095 33.0117 12.2739 32.9084 12.2779C32.82 12.2816 32.7316 12.2806 32.6432 12.2797C32.55 12.2787 32.4568 12.2777 32.3639 12.2822C32.2508 12.2878 32.251 12.2265 32.2513 12.1569C32.2513 12.1489 32.2513 12.1407 32.2512 12.1324C32.2511 12.1311 32.2511 12.1297 32.2511 12.1284C32.25 12.0543 32.2491 11.9969 32.3577 11.9976C32.9219 12.0023 33.4861 12.0016 34.05 11.9976C34.1518 11.9968 34.1689 12.0419 34.1638 12.1266C34.163 12.1387 34.1629 12.151 34.1628 12.163C34.1623 12.2276 34.1618 12.2864 34.054 12.2815C33.9553 12.2767 33.8563 12.2779 33.7574 12.279C33.7137 12.2795 33.6701 12.28 33.6264 12.28C33.3723 12.28 33.3723 12.28 33.3723 12.5251V12.5251C33.3722 12.6575 33.372 12.79 33.3717 12.9225C33.3708 13.3346 33.3699 13.7471 33.3749 14.1592C33.3771 14.2912 33.3447 14.337 33.2044 14.3373C33.0644 14.3377 33.0299 14.2948 33.0346 14.1618C33.0418 13.9582 33.0404 13.7549 33.039 13.5519C33.0384 13.4699 33.0379 13.3879 33.0379 13.306Z" stroke="white"/>
<path d="M22.6663 13.5057C22.6661 13.4557 22.6663 13.4058 22.6664 13.3558C22.6666 13.2758 22.6668 13.1958 22.6659 13.1159C22.6657 13.0984 22.6666 13.0803 22.6675 13.0622C22.6723 12.9606 22.677 12.86 22.5005 12.872C22.4427 12.8761 22.4446 12.826 22.4464 12.7813C22.4468 12.7698 22.4473 12.7586 22.4467 12.7488C22.4427 12.6939 22.4485 12.6346 22.5219 12.6415C22.6906 12.6571 22.6779 12.5419 22.6641 12.4408C22.6415 12.2762 22.7008 12.1776 22.8539 12.1082C22.9666 12.0569 22.9742 12.0998 22.9713 12.1889C22.9704 12.2183 22.971 12.2478 22.9717 12.2772C22.9726 12.3196 22.9735 12.3618 22.9698 12.4034C22.9578 12.5554 22.968 12.6782 23.1756 12.6412C23.2575 12.6267 23.2591 12.6859 23.2606 12.7427C23.2607 12.7472 23.2609 12.7516 23.261 12.756C23.2625 12.8266 23.2585 12.8938 23.1625 12.8782C22.9858 12.8491 22.9615 12.9407 22.968 13.0894C22.9759 13.2905 22.974 13.4921 22.972 13.6935C22.9714 13.7517 22.9709 13.8099 22.9706 13.8681C22.9698 13.9979 23.0102 14.0862 23.1607 14.0692C23.2808 14.0557 23.2852 14.1298 23.2893 14.1999C23.2904 14.2173 23.2914 14.2344 23.2941 14.2498C23.3117 14.3518 23.2464 14.3477 23.1896 14.3442C23.1759 14.3434 23.1627 14.3426 23.1512 14.3433C22.779 14.3676 22.6717 14.2673 22.6659 13.8947C22.6652 13.812 22.6655 13.7294 22.6659 13.6469C22.6661 13.5998 22.6663 13.5527 22.6663 13.5057Z" fill="#ED2D31"/>
<path d="M22.6663 13.5057C22.6661 13.4557 22.6663 13.4058 22.6664 13.3558C22.6666 13.2758 22.6668 13.1958 22.6659 13.1159C22.6657 13.0984 22.6666 13.0803 22.6675 13.0622C22.6723 12.9606 22.677 12.86 22.5005 12.872C22.4427 12.8761 22.4446 12.826 22.4464 12.7813C22.4468 12.7698 22.4473 12.7586 22.4467 12.7488C22.4427 12.6939 22.4485 12.6346 22.5219 12.6415C22.6906 12.6571 22.6779 12.5419 22.6641 12.4408C22.6415 12.2762 22.7008 12.1776 22.8539 12.1082C22.9666 12.0569 22.9742 12.0998 22.9713 12.1889C22.9704 12.2183 22.971 12.2478 22.9717 12.2772C22.9726 12.3196 22.9735 12.3618 22.9698 12.4034C22.9578 12.5554 22.968 12.6782 23.1756 12.6412C23.2575 12.6267 23.2591 12.6859 23.2606 12.7427C23.2607 12.7472 23.2609 12.7516 23.261 12.756C23.2625 12.8266 23.2585 12.8938 23.1625 12.8782C22.9858 12.8491 22.9615 12.9407 22.968 13.0894C22.9759 13.2905 22.974 13.4921 22.972 13.6935C22.9714 13.7517 22.9709 13.8099 22.9706 13.8681C22.9698 13.9979 23.0102 14.0862 23.1607 14.0692C23.2808 14.0557 23.2852 14.1298 23.2893 14.1999C23.2904 14.2173 23.2914 14.2344 23.2941 14.2498C23.3117 14.3518 23.2464 14.3477 23.1896 14.3442C23.1759 14.3434 23.1627 14.3426 23.1512 14.3433C22.779 14.3676 22.6717 14.2673 22.6659 13.8947C22.6652 13.812 22.6655 13.7294 22.6659 13.6469C22.6661 13.5998 22.6663 13.5527 22.6663 13.5057Z" stroke="white"/>
<path d="M20.0161 13.4727C20.0161 13.4084 20.0165 13.3442 20.0169 13.2801C20.018 13.1176 20.0191 12.9553 20.0131 12.7932C20.0095 12.6787 20.0361 12.6292 20.1622 12.6347C20.2687 12.6398 20.3273 12.65 20.3254 12.7812C20.3178 13.2538 20.3178 13.7268 20.3247 14.1997C20.3267 14.3278 20.264 14.3307 20.1809 14.3346C20.172 14.335 20.1628 14.3355 20.1535 14.3361C20.0393 14.343 20.0106 14.2983 20.0131 14.1914C20.0187 14.0184 20.0177 13.8454 20.0168 13.672C20.0164 13.6056 20.0161 13.5392 20.0161 13.4727Z" fill="#ED3036"/>
<path d="M20.0161 13.4727C20.0161 13.4084 20.0165 13.3442 20.0169 13.2801C20.018 13.1176 20.0191 12.9553 20.0131 12.7932C20.0095 12.6787 20.0361 12.6292 20.1622 12.6347C20.2687 12.6398 20.3273 12.65 20.3254 12.7812C20.3178 13.2538 20.3178 13.7268 20.3247 14.1997C20.3267 14.3278 20.264 14.3307 20.1809 14.3346C20.172 14.335 20.1628 14.3355 20.1535 14.3361C20.0393 14.343 20.0106 14.2983 20.0131 14.1914C20.0187 14.0184 20.0177 13.8454 20.0168 13.672C20.0164 13.6056 20.0161 13.5392 20.0161 13.4727Z" stroke="white"/>
<path d="M36.3013 13.4812C36.3013 13.4139 36.3017 13.3465 36.302 13.2792C36.3028 13.1137 36.3037 12.9481 36.2995 12.7825C36.2966 12.6778 36.3213 12.6265 36.4384 12.6352C36.4487 12.6359 36.4589 12.6364 36.4688 12.6369C36.5497 12.6406 36.6127 12.6436 36.6111 12.7712C36.6035 13.2503 36.6042 13.7295 36.6104 14.209C36.612 14.329 36.5505 14.3311 36.4725 14.3339C36.4649 14.3341 36.4572 14.3344 36.4493 14.3348C36.3486 14.3395 36.2948 14.321 36.2992 14.2007C36.3049 14.037 36.3036 13.8731 36.3024 13.7092C36.3018 13.6332 36.3012 13.5572 36.3013 13.4812Z" fill="#ED3036"/>
<path d="M36.3013 13.4812C36.3013 13.4139 36.3017 13.3465 36.302 13.2792C36.3028 13.1137 36.3037 12.9481 36.2995 12.7825C36.2966 12.6778 36.3213 12.6265 36.4384 12.6352C36.4487 12.6359 36.4589 12.6364 36.4688 12.6369C36.5497 12.6406 36.6127 12.6436 36.6111 12.7712C36.6035 13.2503 36.6042 13.7295 36.6104 14.209C36.612 14.329 36.5505 14.3311 36.4725 14.3339C36.4649 14.3341 36.4572 14.3344 36.4493 14.3348C36.3486 14.3395 36.2948 14.321 36.2992 14.2007C36.3049 14.037 36.3036 13.8731 36.3024 13.7092C36.3018 13.6332 36.3012 13.5572 36.3013 13.4812Z" stroke="white"/>
<path d="M5.47026 12.4215C5.45948 12.4229 5.44878 12.4242 5.43815 12.4256C5.27268 12.4466 5.1263 12.4652 5.04636 12.2787C5.01146 12.1965 4.95621 12.1892 4.91694 12.2776C4.83693 12.4582 4.69615 12.4451 4.5483 12.4313C4.52887 12.4295 4.50933 12.4277 4.48978 12.4263C4.78897 11.8773 5.08126 11.7835 5.47026 12.4215Z" fill="#ED252E"/>
<path d="M5.47026 12.4215C5.45948 12.4229 5.44878 12.4242 5.43815 12.4256C5.27268 12.4466 5.1263 12.4652 5.04636 12.2787C5.01146 12.1965 4.95621 12.1892 4.91694 12.2776C4.83693 12.4582 4.69615 12.4451 4.5483 12.4313C4.52887 12.4295 4.50933 12.4277 4.48978 12.4263C4.78897 11.8773 5.08126 11.7835 5.47026 12.4215Z" stroke="white"/>
<path d="M20.9699 12.4195C21.3 11.8292 21.5956 11.8299 21.9355 12.4043C21.8449 12.4287 21.7908 12.4432 21.7409 12.4344C21.6673 12.4215 21.6026 12.3579 21.4425 12.2007C21.3593 12.4217 21.1953 12.4777 20.9699 12.4195Z" fill="#ED252E"/>
<path d="M20.9699 12.4195C21.3 11.8292 21.5956 11.8299 21.9355 12.4043C21.8449 12.4287 21.7908 12.4432 21.7409 12.4344C21.6673 12.4215 21.6026 12.3579 21.4425 12.2007C21.3593 12.4217 21.1953 12.4777 20.9699 12.4195Z" stroke="white"/>
<path d="M12.2649 12.4238C12.0368 12.479 11.9424 12.3466 11.8455 12.2108C11.7971 12.1428 11.748 12.0741 11.6814 12.0275C11.8859 11.9956 11.9842 11.9714 12.0512 12.0066C12.1265 12.0462 12.1624 12.1607 12.2649 12.4238Z" fill="#ED252E"/>
<path d="M12.2649 12.4238C12.0368 12.479 11.9424 12.3466 11.8455 12.2108C11.7971 12.1428 11.748 12.0741 11.6814 12.0275C11.8859 11.9956 11.9842 11.9714 12.0512 12.0066C12.1265 12.0462 12.1624 12.1607 12.2649 12.4238Z" stroke="white"/>
<path d="M21.4764 14.8418C21.3346 14.8792 21.3059 14.8127 21.3048 14.6796C21.3045 14.5473 21.3379 14.5033 21.4768 14.5029C21.6207 14.5029 21.6647 14.54 21.6636 14.688C21.6626 14.8378 21.6037 14.8672 21.4764 14.8418Z" fill="#ED3036"/>
<path d="M21.4764 14.8418C21.3346 14.8792 21.3059 14.8127 21.3048 14.6796C21.3045 14.5473 21.3379 14.5033 21.4768 14.5029C21.6207 14.5029 21.6647 14.54 21.6636 14.688C21.6626 14.8378 21.6037 14.8672 21.4764 14.8418Z" stroke="white"/>
<path d="M36.4479 14.8412C36.3097 14.8747 36.2763 14.8158 36.2708 14.6802C36.2647 14.5202 36.3334 14.5071 36.465 14.5028C36.6166 14.497 36.6235 14.566 36.6289 14.6871C36.6355 14.8336 36.5766 14.8696 36.4479 14.8412Z" fill="#ED3036"/>
<path d="M36.4479 14.8412C36.3097 14.8747 36.2763 14.8158 36.2708 14.6802C36.2647 14.5202 36.3334 14.5071 36.465 14.5028C36.6166 14.497 36.6235 14.566 36.6289 14.6871C36.6355 14.8336 36.5766 14.8696 36.4479 14.8412Z" stroke="white"/>
<path d="M46.8503 14.841C46.7253 14.8676 46.6678 14.8359 46.6682 14.688C46.6682 14.5451 46.7031 14.5029 46.8503 14.5029C46.9972 14.5026 47.0317 14.5455 47.0321 14.688C47.0321 14.8367 46.9746 14.8679 46.8503 14.841Z" fill="#ED2D31"/>
<path d="M46.8503 14.841C46.7253 14.8676 46.6678 14.8359 46.6682 14.688C46.6682 14.5451 46.7031 14.5029 46.8503 14.5029C46.9972 14.5026 47.0317 14.5455 47.0321 14.688C47.0321 14.8367 46.9746 14.8679 46.8503 14.841Z" stroke="white"/>
<path d="M36.6045 12.1736C36.6358 12.3132 36.5747 12.3455 36.4402 12.351C36.3002 12.3576 36.3004 12.2872 36.3007 12.2059C36.3007 12.1932 36.3007 12.1803 36.3003 12.1674C36.2963 12.0623 36.2937 11.9864 36.446 11.9915C36.5882 11.9962 36.6333 12.0416 36.6045 12.1736Z" fill="#ED3036"/>
<path d="M36.6045 12.1736C36.6358 12.3132 36.5747 12.3455 36.4402 12.351C36.3002 12.3576 36.3004 12.2872 36.3007 12.2059C36.3007 12.1932 36.3007 12.1803 36.3003 12.1674C36.2963 12.0623 36.2937 11.9864 36.446 11.9915C36.5882 11.9962 36.6333 12.0416 36.6045 12.1736Z" stroke="white"/>
<path d="M20.3193 12.1758C20.352 12.3183 20.284 12.3445 20.1528 12.3503C20.0153 12.357 20.0156 12.2882 20.0158 12.2105C20.0159 12.1955 20.0159 12.1801 20.015 12.1649C20.0081 12.0566 20.0142 11.9882 20.1626 11.9908C20.3087 11.9944 20.3458 12.0475 20.3193 12.1758Z" fill="#ED3036"/>
<path d="M20.3193 12.1758C20.352 12.3183 20.284 12.3445 20.1528 12.3503C20.0153 12.357 20.0156 12.2882 20.0158 12.2105C20.0159 12.1955 20.0159 12.1801 20.015 12.1649C20.0081 12.0566 20.0142 11.9882 20.1626 11.9908C20.3087 11.9944 20.3458 12.0475 20.3193 12.1758Z" stroke="white"/>
</svg>
