<svg width="24" height="15" viewBox="0 0 24 15" fill="none" xmlns="http://www.w3.org/2000/svg">
<path fill-rule="evenodd" clip-rule="evenodd" d="M0.648715 9.00944C2.27392 9.93579 3.86533 9.93975 5.3979 8.33118C6.54119 7.27287 7.86499 4.68464 8.44693 2.85517H11.2848C10.8866 4.54028 10.4881 6.22565 10.0896 7.91049C10.1268 7.92343 10.1642 7.93636 10.2017 7.94903C10.8549 7.12165 11.5086 6.29453 12.1621 5.46794H15.6883C15.3473 6.93743 15.0066 8.40798 14.6659 9.87747C14.6234 10.129 14.593 10.409 14.8509 10.4193C15.0604 10.4182 15.2702 10.4166 15.4801 10.4156C15.8633 8.76928 16.2465 7.1227 16.6299 5.47613H19.2264C19.1342 5.8501 19.0424 6.22407 18.9506 6.59804C18.9653 6.64343 18.9806 6.68882 18.996 6.73422H19.9743C20.4897 6.63208 20.7903 6.15017 20.8621 5.45184C20.8864 4.93562 20.6417 4.54529 20.0545 4.54344H12.8939C13.3447 3.98156 13.7955 3.42021 14.2462 2.85886C16.0696 2.8586 17.8925 2.85886 19.7157 2.85886C21.0247 2.88446 22.1374 3.25975 22.7351 4.14493C23.4049 5.5392 23.0901 7.20399 21.8719 7.67086C21.519 7.91208 23.1408 7.9543 23.0671 9.95691C22.9238 11.732 21.4802 12.0775 21.1799 12.0743H18.8315C18.7199 11.5335 18.5879 10.9733 18.476 10.4327C18.8703 10.4327 19.2844 10.4264 19.6784 10.4264C20.0611 10.3821 20.371 10.077 20.4615 9.5547C20.5934 8.8181 20.3667 8.44334 19.8817 8.39399H18.5536C18.2588 9.62226 17.964 10.8503 17.6692 12.0775H13.1613C12.2001 12.0704 11.7562 11.2258 11.952 10.3021C12.0475 9.83418 12.1431 9.36573 12.2386 8.89754C11.6818 9.58267 11.1249 10.2678 10.568 10.9527C10.0017 11.5718 9.40917 12.0688 8.71243 12.0812H6.88111C7.09779 11.1585 7.31446 10.2361 7.53114 9.31348C6.64992 10.528 5.60877 11.4652 4.2496 11.8471C2.67718 12.2667 1.29663 12.144 0.0316772 11.6972C0.237005 10.8006 0.44286 9.90544 0.648715 9.00944Z" fill="#1A4F99"/>
<path fill-rule="evenodd" clip-rule="evenodd" d="M4.57911 4.76837e-05L5.14759 1.35236L6.70153 1.35816L5.5271 2.28451L6.23229 3.97754L4.72242 2.86143L3.74619 3.61756L4.03465 2.35946L2.7412 1.36529L4.29857 1.36371L4.57911 4.76837e-05Z" fill="#D60000"/>
<path fill-rule="evenodd" clip-rule="evenodd" d="M0 14.5743L0.321715 13.2531L0.765095 13.26L0.982035 13.9697L1.17496 13.2574H1.55948L1.20584 14.5764H0.804946L0.572172 13.8636L0.366053 14.5727L0 14.5743Z" fill="#1A4F99"/>
<path fill-rule="evenodd" clip-rule="evenodd" d="M2.88918 13.5697C2.92191 13.4641 2.95463 13.3583 2.98736 13.2522C2.71447 13.2532 2.44211 13.2543 2.16921 13.2559C1.83457 13.2889 1.63082 13.595 1.55402 13.9336C1.50019 14.3129 1.59493 14.5208 1.83905 14.5557H2.65165C2.72186 14.2862 2.79232 14.016 2.86305 13.7465H2.24601C2.21382 13.8465 2.18215 13.9471 2.14995 14.0471H2.38061C2.44633 14.0698 2.43287 14.2403 2.36742 14.2464C2.23282 14.2706 2.0808 14.2603 1.99002 14.2274C1.86914 14.116 1.96653 13.5734 2.13464 13.5734C2.38589 13.5723 2.63767 13.5713 2.88918 13.5697Z" fill="#1A4F99"/>
<path fill-rule="evenodd" clip-rule="evenodd" d="M3.63426 13.1301L3.90372 12.9047H4.09057L4.20775 13.1264H3.99609L3.94199 13.0359L3.84777 13.1301H3.63426Z" fill="#1A4F99"/>
<path fill-rule="evenodd" clip-rule="evenodd" d="M3.68014 13.2668H4.06097L4.30588 14.5771H3.93007L3.90737 14.3782H3.34998L3.20165 14.5756H2.82399L3.68014 13.2668ZM3.76169 13.7622L3.53577 14.1082H3.81579L3.76169 13.7622Z" fill="#1A4F99"/>
<path fill-rule="evenodd" clip-rule="evenodd" d="M4.4523 14.5743L4.77375 13.2531L5.21766 13.26L5.43434 13.9697L5.62752 13.2574H6.01179L5.65814 14.5764H5.25672L5.02474 13.8636L4.81862 14.5727L4.4523 14.5743Z" fill="#1A4F99"/>
<path fill-rule="evenodd" clip-rule="evenodd" d="M6.809 13.2635H7.18614L7.07107 13.7599H7.45534L7.55299 13.2672H7.93751L7.60894 14.5778H7.26664L7.37141 14.0676H6.9663L6.82801 14.5825H6.48016L6.809 13.2635Z" fill="#1A4F99"/>
<path fill-rule="evenodd" clip-rule="evenodd" d="M8.61646 13.2668H8.99729L9.24221 14.5771H8.86639L8.84343 14.3782H8.2863L8.13772 14.5756H7.76031L8.61646 13.2668ZM8.69775 13.7622L8.47236 14.1082H8.75211L8.69775 13.7622Z" fill="#1A4F99"/>
<path fill-rule="evenodd" clip-rule="evenodd" d="M8.668 12.8868L8.92294 12.8971L9.02112 13.1626H8.82002L8.668 12.8868Z" fill="#1A4F99"/>
<path fill-rule="evenodd" clip-rule="evenodd" d="M9.37267 14.5743L9.69438 13.2531L10.138 13.26L10.3547 13.9697L10.5479 13.2574H10.9322L10.5788 14.5764H10.1773L9.94537 13.8636L9.73898 14.5727L9.37267 14.5743Z" fill="#1A4F99"/>
<path fill-rule="evenodd" clip-rule="evenodd" d="M12.2657 13.5697C12.2984 13.4641 12.3312 13.3583 12.3639 13.2522C12.0913 13.2532 11.8186 13.2543 11.546 13.2559C11.2111 13.2889 11.0076 13.595 10.9308 13.9336C10.8767 14.3129 10.9717 14.5208 11.2158 14.5557H12.0282C12.0989 14.2862 12.1694 14.016 12.2396 13.7465H11.6228C11.5909 13.8465 11.5587 13.9471 11.5267 14.0471H11.7574C11.8231 14.0698 11.8099 14.2403 11.7442 14.2464C11.6096 14.2706 11.4576 14.2603 11.3671 14.2274C11.2462 14.116 11.3431 13.5734 11.5112 13.5734C11.7629 13.5723 12.0145 13.5713 12.2657 13.5697Z" fill="#1A4F99"/>
<path fill-rule="evenodd" clip-rule="evenodd" d="M16.5144 13.2668H16.8952L17.1399 14.5771H16.7643L16.7414 14.3782H16.1842L16.0359 14.5756H15.6585L16.5144 13.2668ZM16.5959 13.7622L16.3703 14.1082H16.65L16.5959 13.7622Z" fill="#1A4F99"/>
<path fill-rule="evenodd" clip-rule="evenodd" d="M17.2989 14.5743L17.6204 13.2531L18.064 13.26L18.281 13.9697L18.4736 13.2574H18.8582L18.5045 14.5764H18.1034L17.8711 13.8636L17.6653 14.5727L17.2989 14.5743Z" fill="#1A4F99"/>
<path fill-rule="evenodd" clip-rule="evenodd" d="M16.4332 13.1301L16.7024 12.9047H16.8895L17.0064 13.1264H16.795L16.7407 13.0359L16.6465 13.1301H16.4332Z" fill="#1A4F99"/>
<path fill-rule="evenodd" clip-rule="evenodd" d="M13.0191 14.3888C12.9277 14.2243 12.9594 13.9301 13.1064 13.5923C13.2136 13.4321 13.3917 13.3202 13.634 13.2531C13.7797 13.2389 13.9314 13.2389 14.0779 13.2708C14.2141 13.3146 14.3326 13.4046 14.3751 13.55C14.4268 13.8398 14.3579 14.0789 14.1724 14.2703H14.3418C14.3241 14.3721 14.293 14.4737 14.2339 14.5759H13.4838C13.2827 14.5806 13.1225 14.5284 13.0191 14.3888ZM13.7575 13.5305C13.9164 13.5305 14.0053 13.6997 13.9562 13.909C13.9069 14.1182 13.738 14.2877 13.5788 14.2877C13.4199 14.2877 13.3307 14.1182 13.3801 13.909C13.4294 13.6997 13.5981 13.5305 13.7575 13.5305Z" fill="#1A4F99"/>
<path fill-rule="evenodd" clip-rule="evenodd" d="M14.685 13.2647H15.0904C15.0173 13.5714 14.9434 13.8775 14.87 14.1837C14.8874 14.2998 15.1777 14.3344 15.2685 14.205C15.3548 13.8915 15.4409 13.5782 15.5272 13.2647H15.9117C15.8119 13.6022 15.7114 13.9406 15.6114 14.2781C15.457 14.4972 15.2527 14.594 15.0099 14.5896C14.6826 14.6086 14.4485 14.4452 14.4755 14.2467L14.685 13.2647Z" fill="#1A4F99"/>
<path fill-rule="evenodd" clip-rule="evenodd" d="M19.7512 13.2686C20.0215 13.2665 20.292 13.2638 20.5623 13.262C20.8787 13.2691 20.9793 13.6484 20.8383 14.0656C20.7048 14.4274 20.5171 14.5784 20.2619 14.5721H19.4475C19.4879 14.4058 19.529 14.2393 19.5697 14.0727H19.4438C19.4704 13.964 19.4963 13.8563 19.5224 13.7473H19.6467C19.6813 13.5877 19.7164 13.4283 19.7512 13.2686ZM20.0381 13.5779C20.1643 13.5753 20.2471 13.5742 20.4013 13.5763C20.6364 13.5779 20.3915 14.2422 20.2421 14.2506C20.1281 14.253 20.0138 14.2551 19.8998 14.2577C19.9091 14.1989 19.9186 14.1316 19.9275 14.0727H20.2266C20.2559 13.963 20.2849 13.8571 20.3142 13.7473H20.0186C20.0249 13.6893 20.0315 13.6362 20.0381 13.5779Z" fill="#1A4F99"/>
<path fill-rule="evenodd" clip-rule="evenodd" d="M21.8621 13.2521C21.4786 13.2521 21.0983 13.5485 21.0136 13.914C20.9286 14.2795 21.1703 14.5759 21.5541 14.5759C21.9373 14.5759 22.3173 14.2795 22.4023 13.914C22.4873 13.5485 22.2455 13.2521 21.8621 13.2521ZM21.8159 13.5327C21.6594 13.5327 21.4868 13.696 21.4303 13.8974C21.3738 14.0996 21.4546 14.2629 21.6113 14.2629C21.7678 14.2629 21.9404 14.0996 21.9969 13.8974C22.0534 13.696 21.9724 13.5327 21.8159 13.5327Z" fill="#1A4F99"/>
<path fill-rule="evenodd" clip-rule="evenodd" d="M21.3886 14.7522H21.7383L21.6557 15H21.3063L21.3886 14.7522Z" fill="#1A4F99"/>
<path fill-rule="evenodd" clip-rule="evenodd" d="M21.5971 13.1301L21.8666 12.9047H22.0534L22.1703 13.1264H21.9587L21.9046 13.0359L21.8106 13.1301H21.5971Z" fill="#1A4F99"/>
<path fill-rule="evenodd" clip-rule="evenodd" d="M22.7023 13.2636H23.0868L22.7514 14.5842H22.3948L22.7023 13.2636Z" fill="#1A4F99"/>
</svg>
