<svg width="109" height="15" viewBox="0 0 109 15" fill="none" xmlns="http://www.w3.org/2000/svg">
<path fill-rule="evenodd" clip-rule="evenodd" d="M96.8266 3.73438L93.0925 0.000301265L85.5925 7.5003L93.0925 14.9996L96.8266 11.2655L93.0614 7.5003L96.8266 3.73438Z" fill="#EC1C24"/>
<path fill-rule="evenodd" clip-rule="evenodd" d="M100.561 5.38792e-07L96.8266 3.73438L100.592 7.50074L96.8266 11.2655L100.561 15L108.062 7.50074L100.561 5.38792e-07Z" fill="#EC1C24"/>
<path fill-rule="evenodd" clip-rule="evenodd" d="M-2.89905e-08 5.41085L1.64856 5.41085L1.64856 10.949L3.60966 10.949L3.60966 5.41085L5.25748 5.41085L5.25748 3.69711L-1.06266e-08 3.69711L-2.89905e-08 5.41085Z" fill="#EC1C24"/>
<path fill-rule="evenodd" clip-rule="evenodd" d="M6.48346 3.71378L6.21463 3.71378L6.21463 10.9546L10.6841 10.9546L10.6841 9.35267L8.18239 9.35267L8.18239 8.12328L10.5434 8.12328L10.5434 6.55618L8.18239 6.55618L8.18239 5.30902L10.6878 5.30902L10.6878 3.71304L6.48346 3.71304L6.48346 3.71378Z" fill="#EC1C24"/>
<path fill-rule="evenodd" clip-rule="evenodd" d="M13.6244 7.34048C13.6658 5.2831 15.9728 4.45438 17.2362 6.13183L17.2362 3.99003C15.4773 3.19981 13.7554 3.402 12.4638 4.90318C11.3426 6.5273 11.4929 8.28844 12.3291 9.61558C13.6895 11.2619 15.3522 11.5241 17.2459 10.6894L17.2459 8.58541C16.3105 9.82961 13.7806 9.8859 13.6244 7.34048Z" fill="#EC1C24"/>
<path fill-rule="evenodd" clip-rule="evenodd" d="M22.9866 6.53878L20.3672 6.53878L20.3672 3.69638L18.3668 3.69638L18.3668 10.9646L20.3672 10.9646L20.3672 8.02145L22.9866 8.02145L22.9866 10.9646L24.9877 10.9646L24.9877 3.69638L22.9866 3.69638L22.9866 6.53878Z" fill="#EC1C24"/>
<path fill-rule="evenodd" clip-rule="evenodd" d="M28.169 7.34048C28.2112 5.2831 30.5174 4.45438 31.7816 6.13183L31.7816 3.99003C30.0219 3.19981 28.3 3.402 27.0084 4.90318C25.8872 6.5273 26.0375 8.28844 26.8744 9.61558C28.2341 11.2619 29.8968 11.5241 31.7905 10.6894L31.7905 8.58542C30.8558 9.82961 28.326 9.8859 28.169 7.34048Z" fill="#EC1C24"/>
<path fill-rule="evenodd" clip-rule="evenodd" d="M36.4971 9.54168C35.4321 9.54168 34.5701 8.56928 34.5701 7.37025C34.5701 6.17123 35.4321 5.19883 36.4971 5.19883C37.5613 5.19883 38.4241 6.17123 38.4241 7.37025C38.4241 8.56928 37.5613 9.54168 36.4971 9.54168ZM36.4971 3.56508C34.3664 3.56508 32.6386 5.26845 32.6386 7.37025C32.6386 9.47132 34.3664 11.1754 36.4971 11.1754C38.6278 11.1754 40.3549 9.47132 40.3549 7.37025C40.3549 5.26845 38.6278 3.56508 36.4971 3.56508Z" fill="#EC1C24"/>
<path fill-rule="evenodd" clip-rule="evenodd" d="M53.7246 9.52064C53.4743 9.51916 53.1751 9.5236 52.8573 9.51842C52.8573 9.03777 52.847 8.39938 52.847 7.91799C53.1447 7.91355 53.4654 7.91799 53.6779 7.91799C54.3363 7.83134 54.8955 8.17942 54.871 8.75338C54.8614 9.35178 54.1749 9.53767 53.7246 9.52064ZM53.6779 5.1415C54.3082 5.15409 54.557 5.41626 54.5555 5.91024C54.5526 6.4331 54.1793 6.55382 53.7246 6.59455C53.4743 6.59307 53.1751 6.59751 52.8573 6.59233C52.8573 6.11094 52.847 5.62289 52.847 5.1415C53.1447 5.1378 53.4654 5.1415 53.6779 5.1415ZM55.0584 7.06187C55.8086 6.92115 56.3626 6.4879 56.3929 5.52439C56.3863 4.52903 55.6857 3.83435 54.1186 3.71364C53.6016 3.71364 53.1388 3.70401 52.3448 3.70845L51.0244 3.70845L51.0244 10.9611L52.4663 10.9611C53.1854 10.9611 53.769 10.9685 54.5415 10.9626C55.9093 10.947 56.8647 9.87464 56.7077 8.8941C56.6447 7.64027 55.9997 7.1848 55.0584 7.06187Z" fill="#EC1C24"/>
<path fill-rule="evenodd" clip-rule="evenodd" d="M59.8193 8.26799L60.8154 4.84645L61.8108 8.26799L59.8193 8.26799ZM60.8154 3.72074L59.5719 3.71778L57.0687 10.9564L59.032 10.9726L59.4105 9.67216L62.2203 9.67216L62.5988 10.9726L64.5606 10.9564L62.0589 3.71778L60.8154 3.72074Z" fill="#EC1C24"/>
<path fill-rule="evenodd" clip-rule="evenodd" d="M70.5492 8.66725C69.9116 7.19125 68.3593 5.36717 67.161 3.72008C67.0988 3.71934 67.0359 3.71934 66.9722 3.72008L65.2607 3.72008L65.2607 10.955L67.1566 10.955C67.1395 9.32861 67.2484 7.63857 67.0603 5.97445C67.8135 7.76965 69.3162 9.2975 70.4582 10.9564L72.3526 10.9564L72.3526 3.72231L70.4574 3.72231C70.473 5.3368 70.3663 7.01425 70.5492 8.66725Z" fill="#EC1C24"/>
<path fill-rule="evenodd" clip-rule="evenodd" d="M80.4959 3.7203L78.1815 3.7203L75.9153 7.00632L75.8701 7.05742L75.8701 3.71141L73.9261 3.71141L73.9261 10.9596L75.8701 10.9596L75.8701 7.70766C76.6196 8.78967 77.4987 9.87834 78.2437 10.9596C79.0154 10.9596 79.9049 10.9574 80.6766 10.9574C79.7834 9.76725 78.7103 8.48084 77.8172 7.29071L80.4959 3.7203Z" fill="#EC1C24"/>
<path fill-rule="evenodd" clip-rule="evenodd" d="M46.9424 3.72393L45.5738 8.47855L44.2059 3.72393L42.2641 3.72393L41.1739 10.9566L42.9758 10.9551L43.5905 6.21084L44.8977 10.9647L46.2507 10.9647L47.5571 6.21084L48.1718 10.9551L49.9737 10.9566L48.8835 3.72393L46.9424 3.72393Z" fill="#EC1C24"/>
</svg>
